<?xml version="1.0" standalone="no"?>
<!DOCTYPE svg PUBLIC "-//W3C//DTD SVG 1.1//EN" "http://www.w3.org/Graphics/SVG/1.1/DTD/svg11.dtd" >
<svg>
<metadata>
Created by FontForge 20110222 at Mon Mar  7 04:04:37 2011
 By www-data
Converted by ALLTYPE
</metadata>
<defs>
<font id="ArmyWide" horiz-adv-x="575" >
  <font-face 
    font-family="Army Wide"
    font-weight="5"
    font-stretch="normal"
    units-per-em="1000"
    panose-1="0 0 0 0 0 0 0 0 0 0"
    ascent="800"
    descent="-200"
    x-height="667"
    cap-height="667"
    bbox="-89 -272 1387 909"
    underline-thickness="50"
    underline-position="-55"
    unicode-range="U+0020-25D9"
  />
    <missing-glyph />
    <glyph glyph-name="space" unicode=" " horiz-adv-x="347" 
 />
    <glyph glyph-name="space" unicode="&#xa0;" horiz-adv-x="347" 
 />
    <glyph glyph-name="exclam" unicode="!" horiz-adv-x="421" 
d="M210 -13q-50 0 -85 27t-35 66q0 40 35 67.5t85 27.5t84 -27.5t34 -67.5q0 -39 -34.5 -66t-83.5 -27v0zM335 561v-5v-4q-1 -21 -8.5 -45.5t-24.5 -65.5q-26 -64 -38.5 -107.5t-15.5 -81.5q-1 -20 -9 -28.5t-26 -8.5q-16 0 -23.5 7t-9.5 23q-1 9 -1.5 15.5t-1.5 11.5
q-1 7 -1.5 12t-1.5 9q-1 7 -3 13.5t-5 16.5q-7 26 -17.5 52.5t-23.5 56.5q-9 20 -15 34.5t-10 24.5q-3 7 -5.5 13.5t-4.5 13.5q-3 12 -5 24t-2 22q0 50 36 82.5t91 32.5t90 -33t35 -86v1z" />
    <glyph glyph-name="quotedbl" unicode="&#x22;" horiz-adv-x="512" 
d="M198 399h-117l-30 268h177l-30 -268v0zM431 399h-118l-30 268h178l-30 -268v0z" />
    <glyph glyph-name="numbersign" unicode="#" horiz-adv-x="717" 
d="M270 667h108l-45 -160h109l-19 -69h-108l-57 -204h108l-19 -68h-107l-47 -166h-108l46 166h-133l18 68h134l57 204h-135l20 69h134l44 160v0zM531 667h107l-43 -160h133l-18 -69h-134l-58 -204h135l-20 -68h-133l-47 -166h-110l188 667v0z" />
    <glyph glyph-name="dollar" unicode="$" horiz-adv-x="717" 
d="M325 730h51v-63q108 -7 171 -44t63 -95q0 -33 -26.5 -53.5t-68.5 -20.5q-39 0 -65.5 20t-26.5 49q0 6 0.5 10.5t2.5 9.5q2 8 8 16t16 20l5 12q0 9 -24 16.5t-55 7.5v-134l-51 22v110q-34 -7 -54 -25.5t-20 -44.5q0 -20 14 -37t40 -31q5 -3 10.5 -5.5t11.5 -5.5
q16 -8 38.5 -16.5t57.5 -21.5q43 -16 70 -27.5t45 -21.5q11 -6 20 -12t18 -13l2 -2l2 -2q29 -25 45 -61.5t16 -77.5q0 -55 -31 -101t-87 -74q-28 -15 -63.5 -23.5t-83.5 -11.5v-73h-51v73q-112 5 -180.5 46.5t-68.5 103.5q0 35 29.5 59.5t70.5 24.5q39 0 67.5 -23t28.5 -55
q0 -19 -12 -37t-32 -26q-8 -4 -10.5 -6.5t-2.5 -4.5t2 -4.5t6 -5.5q11 -7 32.5 -13t44.5 -9q6 -1 12.5 -1.5t12.5 -0.5v154l51 -20v-132q47 2 76 24.5t29 54.5q0 20 -11.5 36t-36.5 30q-3 2 -6 3.5t-6 3.5q-2 1 -3.5 1.5t-2.5 1.5q-8 3 -18 7.5t-31 13.5q-6 2 -11.5 4
t-11.5 4t-11.5 4.5t-11.5 4.5q-41 16 -69 28t-48 24q-12 7 -22 14t-19 15q-31 28 -48 63t-17 73q0 79 64 136t164 69v66v0z" />
    <glyph glyph-name="percent" unicode="%" horiz-adv-x="910" 
d="M665 283v-36q-22 -8 -32 -19.5t-10 -32.5v-107q0 -29 9 -42t33 -18v-35h-17q-84 0 -137 39t-53 103q0 65 54.5 106t139.5 41l13 1v0zM696 283h12q86 -1 140 -42.5t54 -106.5q0 -63 -52.5 -102t-137.5 -39h-16v36q23 4 32 17t9 41v109q0 20 -9 31.5t-32 18.5v37v0z
M622 666h71l-405 -666h-71l405 666v0zM215 673v-37q-22 -8 -32 -19.5t-10 -31.5v-107q0 -29 9 -42t33 -18v-35h-17q-84 -1 -137 38.5t-53 102.5q0 65 54.5 106.5t139.5 41.5l13 1v0zM246 673h12q86 -1 140 -42.5t54 -106.5q0 -63 -52.5 -102.5t-137.5 -39.5l-16 1v36
q23 4 32 17t9 41v109q0 19 -9 30.5t-32 18.5v38v0z" />
    <glyph glyph-name="ampersand" unicode="&#x26;" horiz-adv-x="870" 
d="M228 368l28 -45q-6 -8 -9.5 -13.5t-4.5 -9.5q-1 -2 -1 -3.5v-3.5v-1.5v-1.5q1 -5 4 -11.5t11 -18.5l111 -164q1 -3 2 -4.5t2 -2.5q9 -11 18.5 -15t22.5 -4h7h11l32 -44q-38 -20 -80.5 -29.5t-86.5 -9.5q-108 0 -185.5 56t-77.5 134q0 42 25.5 79t75.5 69q10 6 19.5 11.5
t18.5 9.5q14 7 27.5 12t29.5 9v1zM535 0l-279 400q-1 0 -1.5 1t-1.5 2q-6 12 -12 28t-11 33q-3 13 -5 25.5t-2 22.5q0 69 70 119t167 50h3.5h3.5q7 0 14.5 -1t18.5 -2v-60q-19 -6 -29 -17.5t-10 -27.5q0 -5 1.5 -11.5t3.5 -13.5q2 -5 5 -10.5t6 -10.5l295 -440q3 -6 6 -9.5
t5 -6.5q4 -4 7.5 -7t8.5 -6l8 -4t9 -4q4 -2 7 -4l6 -4q4 -3 6 -7t2 -9q0 -13 -11 -19.5t-33 -6.5h-258v0zM725 241l-32 47q5 5 8.5 10.5t5.5 11.5q3 5 4 10.5t1 11.5q0 9 -2.5 18t-7.5 16l-11 15l-5 15q0 12 20.5 21.5t48.5 9.5q21 0 32 -14t11 -41q0 -16 -3 -30.5
t-10 -28.5q-8 -17 -22.5 -34.5t-37.5 -38.5v1zM553 618v55q55 -9 89.5 -42t34.5 -77q0 -35 -22 -65.5t-63 -52.5l-29 47q12 8 21 15.5t15 14.5q6 9 9 17.5t3 18.5q0 24 -14 40t-44 28v1z" />
    <glyph glyph-name="quotesingle" unicode="'" horiz-adv-x="280" 
d="M198 399h-117l-30 268h177l-30 -268v0z" />
    <glyph glyph-name="parenleft" unicode="(" horiz-adv-x="523" 
d="M115 262q0 31 4.5 60t14.5 58q8 24 20.5 48t28.5 50q32 50 67.5 89.5t77.5 70.5q28 20 48 31t30 11q2 0 5.5 -1t7.5 -2q3 -2 6.5 -3.5t5.5 -3.5l4 -4t3 -4q2 -3 2.5 -5t0.5 -4q0 -4 -3.5 -11.5t-9.5 -15.5q-35 -52 -56 -150.5t-21 -214.5t21 -213.5t56 -149.5
q6 -9 9.5 -16.5t3.5 -11.5q0 -2 -1 -4.5t-2 -5.5l-4.5 -4.5t-5.5 -4.5q-2 -1 -4.5 -2.5t-4.5 -2.5q-4 -1 -7 -2t-6 -1q-13 0 -40 16t-56 41q-14 11 -28 24t-26 26q-22 23 -43.5 51t-38.5 57q-8 13 -14.5 26l-12.5 25q-2 5 -4 9.5t-4 8.5q-12 32 -18 65t-6 69v1z" />
    <glyph glyph-name="parenright" unicode=")" horiz-adv-x="523" 
d="M408 262q0 -32 -4.5 -61.5t-14.5 -58.5q-8 -24 -20.5 -48t-28.5 -50q-31 -49 -67 -88.5t-78 -70.5q-28 -20 -48 -31t-31 -11q-2 0 -5.5 1t-6.5 2q-3 2 -6.5 3.5t-5.5 3.5q-4 4 -7 8.5t-3 8.5t3.5 11.5t9.5 16.5q35 52 56 149.5t21 213.5t-21 214.5t-56 150.5
q-6 8 -9.5 15.5t-3.5 11.5q0 2 1 4.5t3 5.5q1 2 3.5 4.5t5.5 4.5l4 2t3 2q4 2 8 3t6 1q13 0 40 -16t57 -40q14 -12 28 -25t26 -26q22 -22 42 -49t37 -55q9 -14 16.5 -28t13.5 -27q4 -9 7.5 -18.5t6.5 -18.5q9 -28 13.5 -56t4.5 -60v1z" />
    <glyph glyph-name="asterisk" unicode="*" horiz-adv-x="717" 
d="M345 477l-13 -116q-1 -20 -15 -31t-34 -11q-16 0 -36.5 9t-46.5 28q-6 4 -10 8t-7 8q-4 5 -6 10t-2 11q0 12 9.5 22t26.5 15l134 47v0zM373 477l134 -46q17 -6 26.5 -16t9.5 -23q0 -3 -1 -6.5t-2 -7.5q-4 -7 -10.5 -13.5t-17.5 -14.5q-3 -2 -7.5 -4.5t-9.5 -5.5
q-2 -1 -4.5 -2t-4.5 -3q-7 -3 -12.5 -5.5t-10.5 -4.5t-8.5 -3t-6.5 -2t-6 -1h-7q-20 0 -33.5 11t-15.5 30l-13 117v0zM335 499l-142 -26l-16 -2q-22 -1 -36 10.5t-14 28.5q0 8 3 18.5t7 21.5q4 9 9.5 18t10.5 17q5 7 13.5 11.5t18.5 5.5q2 1 4 1h4q12 0 22.5 -4.5
t20.5 -12.5l95 -87v0zM383 499l95 88q9 7 20 11.5t23 4.5h2.5h3.5q10 -1 19 -6t15 -12t11.5 -17.5t9.5 -21.5q4 -10 6.5 -20t2.5 -17q0 -16 -15 -27.5t-35 -11.5l-16 3l-142 26v0zM360 513l-75 99q-4 4 -6 7.5t-3 7.5q0 2 -0.5 4.5t-0.5 5.5q0 20 20 31t58 11q47 0 68.5 -10
t21.5 -32q0 -3 -0.5 -5.5t-0.5 -4.5q-1 -4 -3 -7.5t-6 -8.5l-73 -98v0z" />
    <glyph glyph-name="plus" unicode="+" horiz-adv-x="717" 
d="M428 283v-177q0 -12 -5.5 -16.5t-19.5 -4.5l-90 1q-13 -1 -19 3.5t-6 15.5v178h-217q-14 -1 -19.5 3.5t-5.5 15.5v64q0 10 5.5 14.5t19.5 4.5l217 1v176q0 10 6 14.5t19 4.5l90 1q14 -1 19.5 -5.5t5.5 -15.5v-175h217q15 -1 20 -5.5t5 -15.5v-62q0 -12 -5 -16.5t-20 -4.5
l-217 1v0z" />
    <glyph glyph-name="comma" unicode="," horiz-adv-x="417" 
d="M335 64q0 -7 -0.5 -13t-1.5 -12q-9 -41 -45 -81.5t-92 -70.5q-27 -14 -48.5 -21t-36.5 -7q-12 0 -20 6t-8 16q0 7 6 13t17 11q18 7 32 14t25 14q6 4 11 7t9 7q2 1 3.5 2.5l2.5 2.5q11 9 17 16.5t6 12.5t-4 7.5t-15 3.5l-7 1l-9 1q-39 4 -64 28.5t-25 58.5q0 39 34 66
t83 27q53 0 91.5 -32.5t38.5 -78.5v1z" />
    <glyph glyph-name="hyphen" unicode="-" horiz-adv-x="312" 
d="M312 365v-68q0 -12 -5.5 -16.5t-19.5 -4.5l-262 1q-14 -1 -19.5 3.5t-5.5 15.5v69q0 10 5.5 14.5t19.5 4.5l262 1q14 -1 19.5 -5.5t5.5 -15.5v1z" />
    <glyph glyph-name="period" unicode="." horiz-adv-x="406" 
d="M203 -13q-49 0 -84.5 27t-35.5 66q0 40 35.5 67.5t84.5 27.5q50 0 85 -27.5t35 -67.5q0 -39 -35 -66t-85 -27v0z" />
    <glyph glyph-name="slash" unicode="/" horiz-adv-x="415" 
d="M298 717h150l-348 -794h-150l348 794v0z" />
    <glyph glyph-name="zero" unicode="0" horiz-adv-x="717" 
d="M335 -8q-136 13 -219.5 107.5t-83.5 233.5t83.5 233t219.5 108v-50q-29 -8 -40.5 -23t-11.5 -47v-442q0 -32 11.5 -47t40.5 -23v-50v0zM381 -8v51q29 7 40 22t11 46v444q0 31 -11 46t-40 22v52q136 -15 219 -109t83 -233t-83 -233.5t-219 -107.5v0z" />
    <glyph glyph-name="one" unicode="1" horiz-adv-x="717" 
d="M476 667v-574q0 -19 5.5 -26t27.5 -12q3 -1 6 -1.5t7 -1.5q14 -2 21.5 -8.5t7.5 -16.5q0 -14 -12.5 -20.5t-41.5 -6.5h-20h-235h-20q-28 0 -41.5 6.5t-13.5 20.5q0 10 8 16.5t22 8.5q4 1 8 1.5t7 1.5q21 5 26 12t5 25v458q0 25 -6.5 36.5t-20.5 12.5l-21 4q-13 1 -21 6.5
t-8 15.5q0 15 12.5 22t43.5 8l254 12v0z" />
    <glyph glyph-name="two" unicode="2" horiz-adv-x="717" 
d="M530 153q27 -1 38.5 7.5t17.5 31.5q4 12 11.5 18t18.5 6q15 0 23 -9.5t8 -26.5q0 -14 -5 -30.5t-13 -33.5q-9 -18 -21 -35t-26 -31q-18 -18 -46.5 -32.5t-59.5 -20.5q-12 -2 -23.5 -3.5t-22.5 -1.5h-9h-9q-24 1 -55 6.5t-99 21.5q-34 8 -55.5 11.5t-35.5 3.5
q-6 0 -11 -0.5t-10 -2.5q-7 -2 -15 -6t-18 -10q-9 -7 -15.5 -9.5t-12.5 -2.5q-13 0 -21 7.5t-8 19.5q0 59 58 102.5t138 43.5h26.5t3.5 0q19 -1 42.5 -3t60.5 -7q49 -7 69 -9.5t35 -3.5h0.5h1.5q11 -1 21.5 -1.5t17.5 -0.5v1zM322 622v53h16q124 -1 203.5 -54.5t79.5 -136.5
q0 -66 -48.5 -117t-137.5 -80l-80 -24q-18 -7 -42.5 -17t-56.5 -24l-18 -7q-8 -1 -14.5 -1.5t-13.5 -0.5q-16 -2 -35 -7.5t-49 -16.5q3 4 6.5 7.5l6.5 6.5q6 6 12 11t12 11q13 11 30.5 22.5t42.5 27.5q39 24 58 37t30 24q3 2 5.5 5t5.5 7q1 0 1.5 1t1.5 2q19 24 27 54.5
t8 76.5q0 68 -10.5 97t-40.5 42v1zM268 674v-52q-17 -4 -27 -9t-10 -12q0 -1 0.5 -2.5t1.5 -2.5q2 -2 5.5 -4t8.5 -5q23 -10 37 -30t14 -43q0 -39 -34 -66t-84 -27q-51 0 -85.5 29t-34.5 70q0 46 37 83.5t98 54.5l8 2l8 2q3 1 7 2l8 2q9 1 19 3t23 4v1z" />
    <glyph glyph-name="three" unicode="3" horiz-adv-x="717" 
d="M285 44v-52q-110 10 -171 49.5t-61 98.5q0 41 33 68.5t82 27.5q45 0 79.5 -25.5t34.5 -60.5q0 -20 -11.5 -39t-32.5 -31q-9 -7 -12.5 -10t-4.5 -6v-0.5v-0.5q0 -8 18 -14t46 -6v1zM338 623v52h15q127 -1 207 -49.5t80 -125.5q0 -34 -16.5 -63.5t-47.5 -52.5l-6 -4l-6 -4
q-12 -7 -25 -13t-31 -12q-9 -2 -19 -5t-22 -6q22 -5 38.5 -9.5t29.5 -8.5t23 -8.5t19 -10.5q1 0 2 -0.5t2 -1.5q34 -19 52.5 -52.5t18.5 -72.5q0 -82 -79.5 -133t-209.5 -51h-25v52q36 7 50.5 22.5t14.5 44.5v141q0 33 -16.5 49.5t-51.5 17.5q-25 1 -35 7t-10 19t9.5 18.5
t35.5 7.5q39 2 53.5 18t14.5 56v111q0 30 -14 44.5t-51 21.5v1zM285 673v-50q-24 -5 -34.5 -11.5t-10.5 -15.5q0 -3 2.5 -6.5t8.5 -8.5q14 -9 22.5 -15.5t12.5 -12.5q6 -7 8 -15.5t2 -20.5q0 -36 -32 -61t-77 -25q-46 0 -76 26t-30 65q0 37 27 70t73 52q3 2 6.5 3t7.5 3
q19 8 40 13t50 9v1z" />
    <glyph glyph-name="four" unicode="4" horiz-adv-x="717" 
d="M335 542l96 105q3 3 6 5.5t6 5.5q7 5 16 6.5t27 1.5l54 1q20 -1 25 -6t5 -22v-435h76q16 -1 23.5 -7t7.5 -18q0 -13 -8.5 -19.5t-26.5 -6.5l-72 1v-61q0 -19 5.5 -26t27.5 -12q3 -1 6 -1.5t7 -1.5q14 -2 21.5 -8.5t7.5 -16.5q0 -14 -13 -20.5t-41 -6.5h-20h-238h-20
q-28 0 -40.5 6.5t-12.5 20.5q0 10 7.5 16.5t20.5 8.5q5 1 8.5 1.5t7.5 1.5q20 5 25.5 12t5.5 25v450v0zM286 488v-72l-191 -212h191v-50h-213q-26 -1 -35.5 5.5t-9.5 24.5q0 6 1 11.5t4 10.5q2 5 6.5 10.5t10.5 11.5l8 11l228 249v0z" />
    <glyph glyph-name="five" unicode="5" horiz-adv-x="717" 
d="M342 356v71q61 -1 105 -9t81 -26q62 -28 93 -73.5t31 -105.5q0 -52 -23.5 -96.5t-67.5 -72.5q-30 -19 -70.5 -32t-82.5 -17q-11 -2 -22.5 -2.5t-22.5 -0.5h-21v55q33 8 46.5 29.5t13.5 62.5v126q0 42 -12 61t-48 29v1zM291 47v-53q-96 4 -161 46t-65 99q0 42 33.5 70.5
t82.5 28.5q45 0 77.5 -24.5t32.5 -59.5v-4.5t-1 -4.5q-2 -19 -13.5 -36.5t-28.5 -26.5q-6 -3 -8.5 -5t-3.5 -4q-1 -1 -1 -2.5v-2.5q0 -7 15 -13.5t41 -8.5v1zM118 477l57 -5l-10 -102q20 12 37 21.5t34 16.5q13 5 26.5 9t28.5 7v-68q-4 -2 -8 -2.5t-8 -1.5
q-25 -5 -44.5 -10.5t-37.5 -13.5q-3 -2 -6 -3t-6 -3q-16 -8 -25 -11.5t-17 -3.5h-0.5h-1.5q-15 0 -24.5 7.5t-9.5 18.5v15l15 129v0zM123 514l18 161l22 -2l124 -11q33 -4 73 -5.5t83 -1.5q45 0 76.5 2t59.5 7q11 2 21.5 4.5t21.5 5.5q-15 -38 -35.5 -64t-55.5 -49
q-48 -32 -102.5 -45t-141.5 -13q-38 0 -70 1.5t-63 4.5q-8 1 -15.5 2t-15.5 2v1z" />
    <glyph glyph-name="six" unicode="6" horiz-adv-x="717" 
d="M360 675v-49q-34 -9 -48.5 -25.5t-14.5 -46.5v-446q0 -36 8 -47.5t38 -17.5q1 -1 1.5 -1h1.5v-50q-136 11 -216 104.5t-80 240.5q0 83 30.5 150t89.5 115q43 35 89 53t101 19v1zM346 306v56q27 11 51 17.5t48 9.5q7 0 13.5 0.5t13.5 0.5q90 0 151.5 -49.5t61.5 -123.5
q0 -8 -0.5 -15.5t-2.5 -15.5q-7 -37 -28.5 -72t-51.5 -60q-29 -22 -69 -38t-82 -21q-11 -1 -23 -2t-23 -1h-14v51q23 4 33.5 15t10.5 31v184q0 22 -11 34t-31 12h-1.5h-1.5q-8 0 -17.5 -3.5t-26.5 -10.5v1zM406 626v49q98 -3 166 -45t68 -101q0 -40 -34.5 -67.5t-84.5 -27.5
q-46 0 -77.5 23.5t-31.5 57.5q0 7 1 13t4 13q3 6 8 12t12 13q10 10 14 16t5 11v1.5v1.5q0 12 -12 19t-38 10v1z" />
    <glyph glyph-name="seven" unicode="7" horiz-adv-x="717" 
d="M533 471q-15 -24 -25 -40.5t-18 -32.5l-4.5 -9t-4.5 -10q-5 -11 -9 -23t-8 -25q-6 -22 -9.5 -43t-3.5 -37l4 -38l12 -55q4 -14 5 -26.5t1 -24.5q0 -50 -37 -82.5t-95 -32.5q-59 0 -96.5 36t-37.5 94q0 32 14 66t40 68q12 15 31.5 34.5t59.5 55.5q49 44 71 67.5t32 39.5
q7 1 13 1.5t11 1.5q12 2 25 5.5t29 8.5v1zM82 454l39 208h45l-9 -57q24 18 46 31t44 22q21 8 43 12t46 4h14.5t12.5 -1q12 -1 26 -3.5t36 -7.5q5 -1 11 -3t13 -3q13 -4 25.5 -7t16.5 -4q19 -5 34.5 -8t25.5 -3q8 0 14.5 2.5t12.5 8.5l7 7q5 3 10 5t10 2q9 0 15.5 -6t6.5 -14
t-5 -22t-13 -29q-6 -11 -13 -21.5t-14 -18.5q-24 -28 -59.5 -42.5t-82.5 -14.5q-15 0 -29.5 1.5t-28.5 3.5q-5 1 -14.5 3t-34.5 6q-6 1 -11.5 2t-10.5 2q-3 0 -5.5 1t-5.5 1q-39 8 -67 11.5t-45 3.5q-31 0 -44 -14t-14 -48v-10h-48v0z" />
    <glyph glyph-name="eight" unicode="8" horiz-adv-x="717" 
d="M337 628q-2 -2 -4 -3l-4 -2q-20 -9 -26 -22t-6 -42v-134q0 -22 10.5 -36t29.5 -20v-51q-22 -8 -31 -19.5t-9 -34.5v-166q0 -25 10 -38t30 -18v-50h-12q-73 2 -124.5 13t-84.5 33q-34 22 -52 54t-18 71q0 50 27.5 88.5t79.5 62.5l3 1.5l3 1.5q9 4 18 7.5t20 6.5
q10 3 22.5 6t27.5 7q-11 3 -21 5.5t-19 4.5q-23 7 -40 14t-32 17q-32 21 -48.5 50.5t-16.5 64.5q0 53 36 94t97 60q8 2 15 4t15 4q23 5 47.5 8t56.5 4v-46v0zM380 628v47q34 -2 59 -5t48 -9q7 -1 13 -3t13 -4q62 -19 98 -60t36 -94q0 -40 -22 -72.5t-64 -53.5
q-11 -6 -23.5 -11t-29.5 -9q-8 -3 -17.5 -5t-20.5 -5q14 -3 26 -6.5t23 -6.5q19 -6 34.5 -12.5t29.5 -14.5l1.5 -1.5t1.5 -0.5q41 -23 63 -59t22 -80q0 -45 -24 -80t-69 -58q-31 -15 -78.5 -23.5t-107.5 -9.5h-12v51q20 4 30 17t10 37v168q0 22 -9.5 33.5t-30.5 18.5v53
q20 5 30 19t10 35v136q0 28 -6 41t-26 22l-4 2l-4 2v1z" />
    <glyph glyph-name="nine" unicode="9" horiz-adv-x="717" 
d="M312 41v-49q-98 2 -166.5 44t-68.5 100q0 41 35 68t85 27q45 0 77 -23.5t32 -57.5q0 -11 -3.5 -21t-11.5 -18l-20 -22q-2 -3 -4 -5t-3 -4q-1 -3 -1.5 -5t-0.5 -4q0 -12 14 -20.5t36 -10.5v1zM358 -8v49q32 7 47 24.5t15 45.5v452q0 33 -7 44t-35 18q-2 0 -3 0.5t-3 0.5
v49q136 -13 216 -106.5t80 -240.5q0 -82 -30.5 -149.5t-90.5 -115.5q-42 -35 -88 -52.5t-101 -18.5v0zM372 362v-57q-24 -11 -46 -17.5t-43 -9.5q-9 -2 -18.5 -2.5t-19.5 -0.5q-90 0 -151 50t-61 123q0 60 37 113t97 81q37 17 75.5 24.5t83.5 7.5v-47q-22 -5 -32.5 -16
t-10.5 -31v-186q0 -23 10.5 -35t29.5 -12h4h4q8 1 17 4t24 10v1z" />
    <glyph glyph-name="colon" unicode=":" horiz-adv-x="406" 
d="M203 -13q-49 0 -84.5 27t-35.5 66q0 40 35.5 67.5t84.5 27.5q50 0 85 -27.5t35 -67.5q0 -39 -35 -66t-85 -27v0zM203 306q-49 -1 -84.5 27t-35.5 67t35.5 66.5t84.5 27.5q50 0 85 -27.5t35 -66.5t-35 -67t-85 -28v1z" />
    <glyph glyph-name="semicolon" unicode=";" horiz-adv-x="417" 
d="M335 64q0 -7 -0.5 -13t-1.5 -12q-9 -41 -45 -81.5t-92 -70.5q-27 -14 -48.5 -21t-36.5 -7q-12 0 -20 6t-8 16q0 7 6 13t17 11q18 7 32 14t25 14q6 4 11 7t9 7q2 1 3.5 2.5l2.5 2.5q11 9 17 16.5t6 12.5t-4 7.5t-15 3.5l-7 1l-9 1q-39 4 -64 28.5t-25 58.5q0 39 34 66
t83 27q53 0 91.5 -32.5t38.5 -78.5v1zM213 306q-49 -1 -84.5 26.5t-35.5 66.5q0 40 35.5 67.5t84.5 27.5q50 0 85 -27.5t35 -67.5q0 -39 -35 -66.5t-85 -27.5v1z" />
    <glyph glyph-name="less" unicode="&#x3c;" horiz-adv-x="625" 
d="M576 639v-69l-296 -149l296 -162v-183l-529 291v9l529 263v0z" />
    <glyph glyph-name="equal" unicode="=" horiz-adv-x="717" 
d="M670 265v-64q0 -12 -5 -16.5t-20 -4.5l-574 1q-14 -1 -19.5 3.5t-5.5 15.5v65q0 10 5.5 14.5t19.5 4.5l574 1q15 -1 20 -5.5t5 -15.5v1zM670 467v-64q0 -12 -5 -16.5t-20 -4.5l-574 1q-14 -1 -19.5 3.5t-5.5 15.5v65q0 11 5.5 15t19.5 4l574 1q15 -1 20 -5t5 -16v1z" />
    <glyph glyph-name="greater" unicode="&#x3e;" horiz-adv-x="625" 
d="M47 76v69l298 149l-298 162v183l529 -291v-9l-529 -263v0z" />
    <glyph glyph-name="question" unicode="?" horiz-adv-x="675" 
d="M270 -13q-50 0 -85 27t-35 66q0 40 35 67.5t85 27.5t84 -27.5t34 -67.5q0 -39 -34 -66t-84 -27v0zM368 624v54q99 -11 161.5 -65.5t62.5 -130.5q0 -84 -72 -142.5t-190 -69.5q-30 -2 -37 -7t-8 -25q0 -16 -7 -23t-22 -7q-17 0 -25.5 7.5t-8.5 21.5v172q0 14 6.5 17
t32.5 4q65 2 105 34.5t40 84.5q0 26 -9 43.5t-29 30.5v1zM315 680v-54q-18 -2 -24 -6t-6 -14l3 -13l5 -12q3 -6 4 -11.5t1 -12.5q0 -33 -30.5 -55.5t-74.5 -22.5q-46 0 -78 24.5t-32 58.5q0 50 63.5 83.5t154.5 33.5l14 1v0z" />
    <glyph glyph-name="at" unicode="@" horiz-adv-x="883" 
d="M655 227q6 1 11 2t10 3q10 3 18.5 6t16.5 8q1 0 2 0.5t2 1.5q31 18 51 56t21 80v2.5v2.5q0 100 -90.5 165.5t-228.5 65.5q-158 0 -265 -85t-107 -211q0 -58 28 -111t79 -93q52 -40 115.5 -58t156.5 -18q33 0 63.5 2t60.5 6q24 3 48 8t50 11l24 -52q-9 -4 -16 -6l-14 -4
t-14 -3.5t-15 -2.5q-4 -1 -9.5 -1.5t-11.5 -1.5q-24 -3 -52 -5.5t-56 -4.5q-19 -1 -38 -1.5t-37 -0.5q-91 0 -167 22t-135 66q-62 47 -96.5 113t-34.5 137q0 148 127.5 249.5t313.5 101.5q167 0 279.5 -83t112.5 -206q0 -59 -29.5 -109t-82.5 -79q-3 -2 -6.5 -3.5t-6.5 -3.5
q-16 -7 -34 -12.5t-42 -10.5q-4 -1 -8 -1.5t-8 -1.5l14 60v0zM416 382l-25 -87q-4 -15 -6 -26.5t-2 -19.5q0 -16 5.5 -24t18.5 -9q11 -1 15 -5t4 -15q0 -16 -22.5 -26.5t-58.5 -10.5q-48 0 -80 29t-32 73q0 14 2 28.5t6 28.5q9 32 27 63t42 55q31 32 68.5 47.5t83.5 15.5
q14 0 21.5 -3t7.5 -10l-1 -7l-5 -15q-1 -2 -1.5 -2.5t-0.5 -1.5q-1 -2 -2.5 -3.5t-3.5 -2.5q-2 -2 -5.5 -4t-9.5 -5q-19 -10 -29 -24.5t-17 -39.5v1zM660 500l-63 -227l-5 -26q0 -13 6.5 -18t21.5 -4l-15 -59q-14 -3 -24.5 -4.5t-20.5 -1.5q-6 -1 -11.5 -1h-11.5
q-42 0 -67 16t-25 43l6 32l62 225q4 13 9.5 18.5t14.5 5.5l41 1h82v0z" />
    <glyph glyph-name="A" unicode="A" horiz-adv-x="773" 
d="M252 542l31 -101l-108 -315q-1 -4 -2 -7.5t-1 -6.5q-1 -3 -1 -6.5v-6.5q0 -14 9 -25.5t27 -17.5l20 -7q10 -5 15.5 -11.5t5.5 -14.5q0 -11 -11.5 -17t-33.5 -6h-155q-21 0 -34.5 7t-13.5 19q0 8 6 14t21 11q38 14 56.5 32t31.5 56l137 403v0zM295 667h246l169 -574
q0 -2 0.5 -3.5t1.5 -2.5q5 -18 12 -25.5t22 -11.5q2 -1 3.5 -1.5t2.5 -0.5q12 -5 16.5 -10.5t4.5 -14.5q0 -11 -12 -17t-35 -6h-305q-18 0 -29 6.5t-11 18.5q0 6 1.5 10t6.5 7q3 2 7.5 4.5t11.5 5.5q1 1 2.5 1.5t2.5 0.5q10 5 13.5 10.5t3.5 14.5l-2 14l-20 71h-170l17 60
h137l-112 395l15 48v0z" />
    <glyph glyph-name="B" unicode="B" horiz-adv-x="837" 
d="M385 667v-667h-273h-16q-23 0 -34.5 6.5t-11.5 19.5q0 9 6 15.5t19 9.5q5 1 9.5 2.5l7.5 2.5q13 5 16.5 11t3.5 21v490q0 14 -3.5 20t-16.5 11l-7.5 2.5t-9.5 2.5q-13 3 -19 9.5t-6 15.5q0 14 12 20.5t34 6.5l16 1h273v0zM435 613v54h67q134 -1 207.5 -43.5t73.5 -118.5
q0 -39 -22 -72.5t-61 -52.5l-8 -4t-8 -3q-13 -5 -26 -9.5t-30 -8.5q-11 -3 -24.5 -5.5t-30.5 -5.5q19 -3 33.5 -5.5t25.5 -5.5q11 -2 20.5 -4.5t18.5 -5.5q5 -2 10 -3.5t10 -3.5q50 -20 77 -57t27 -85q0 -46 -23.5 -81.5t-68.5 -58.5q-3 -2 -6 -3t-6 -3q-37 -16 -78.5 -22
t-107.5 -6h-70v51q44 1 63 19t19 56v112q0 38 -19.5 57.5t-62.5 23.5v52q47 1 64.5 19.5t17.5 62.5v85q0 33 -21 52t-61 22v1z" />
    <glyph glyph-name="C" unicode="C" horiz-adv-x="730" 
d="M386 680v-59q-36 -5 -53 -26.5t-17 -59.5v-403v-21q2 -29 20 -46t50 -19v-59q-169 3 -265 92t-96 243q0 69 20 128t60 105q32 36 77.5 64.5t93.5 43.5q24 8 47 12t45 4l18 1v0zM436 -13v60q62 2 112.5 35t69.5 82q7 16 15 22.5t22 6.5t23.5 -8.5t9.5 -21.5
q0 -14 -8 -31.5t-22 -35.5q-12 -15 -26 -29t-31 -26q-4 -3 -8.5 -6t-8.5 -5q-34 -22 -69.5 -32t-78.5 -11v0zM436 621v58q3 -1 5.5 -1.5t5.5 -0.5q6 -1 11.5 -1.5t10.5 -1.5q14 -3 31 -7.5t51 -14.5q17 -5 25.5 -7t15.5 -2h2h2q7 1 13 4.5t9 8.5l8 13q4 4 11.5 7t15.5 3
q17 0 25.5 -8t8.5 -23v-202q0 -18 -9 -28t-26 -10q-14 0 -23 8t-14 24q-26 80 -72.5 126.5t-106.5 53.5v1z" />
    <glyph glyph-name="D" unicode="D" horiz-adv-x="810" 
d="M385 667v-667h-273h-16q-23 0 -34.5 6.5t-11.5 19.5q0 9 6 15.5t19 9.5q5 1 9.5 2.5l7.5 2.5q13 5 16.5 11t3.5 21v490q0 14 -3.5 20t-16.5 11l-7.5 2.5t-9.5 2.5q-13 3 -19 9.5t-6 15.5q0 14 12 20.5t34 6.5l16 1h273v0zM435 612v55q37 -1 63 -4t50 -10q10 -3 20.5 -6.5
t21.5 -8.5q95 -40 145.5 -118t50.5 -185q0 -108 -54 -189.5t-152 -122.5q-9 -4 -17.5 -7t-17.5 -6q-22 -6 -47 -8t-63 -2v53q43 7 56.5 23.5t13.5 61.5v387q0 41 -16 61t-54 25v1z" />
    <glyph glyph-name="E" unicode="E" horiz-adv-x="733" 
d="M385 667v-667h-273h-16q-23 0 -34.5 6.5t-11.5 19.5q0 9 6 15.5t19 9.5q5 1 9.5 2.5l7.5 2.5q13 5 16.5 11t3.5 21v490q0 14 -3.5 20t-16.5 11l-7.5 2.5t-9.5 2.5q-13 3 -19 9.5t-6 15.5q0 14 12 20.5t34 6.5l16 1h273v0zM436 0v53q73 7 118.5 38t71.5 89q2 3 3.5 6
t3.5 6q5 8 11 11.5t16 3.5q19 0 25.5 -7.5t6.5 -28.5v-171h-256v0zM436 311v57q35 13 52 28.5t24 42.5q0 1 0.5 2.5t1.5 2.5q5 16 12 22t22 6q18 0 24 -8.5t6 -32.5v-185q0 -24 -6.5 -32.5t-23.5 -8.5q-13 0 -21 6.5t-14 22.5q-10 34 -28.5 52t-48.5 24v1zM436 667h247v-174
q0 -16 -6.5 -23t-23.5 -7q-13 0 -20 4.5t-12 17.5q-23 58 -68.5 87.5t-116.5 35.5v59v0z" />
    <glyph glyph-name="F" unicode="F" horiz-adv-x="707" 
d="M385 667v-574q0 -19 5.5 -26t27.5 -12q3 -1 6 -1.5t7 -1.5q14 -2 21.5 -8.5t7.5 -16.5q0 -14 -13 -20.5t-41 -6.5h-20h-274h-16q-23 0 -34.5 6.5t-11.5 19.5q0 9 6 15.5t19 9.5q5 1 9.5 2.5l7.5 2.5q13 5 16.5 11t3.5 21v490q0 14 -3.5 20t-16.5 11l-7.5 2.5t-9.5 2.5
q-13 3 -19 9.5t-6 15.5q0 14 12 20.5t34 6.5l16 1h273v0zM435 311v57q35 13 52 28.5t24 42.5q5 19 13 26t23 7q18 0 24 -8.5t6 -32.5v-185q0 -24 -6 -32.5t-24 -8.5q-13 0 -21 6.5t-13 22.5q-10 34 -28.5 52t-49.5 24v1zM435 667h247v-172q0 -17 -7 -24.5t-24 -7.5
q-12 0 -19 5t-12 17q-22 56 -67.5 86.5t-117.5 36.5v59v0z" />
    <glyph glyph-name="G" unicode="G" horiz-adv-x="775" 
d="M368 680v-54q-27 -5 -40 -22.5t-13 -46.5v-454q0 -28 9 -41t33 -21v-54h-6q-14 0 -33.5 3.5t-40.5 9.5q-12 2 -23.5 6t-22.5 9q-100 41 -153 121.5t-53 187.5q0 113 53 197t150 127q28 12 52.5 19t48.5 10q10 1 19.5 1.5t19.5 0.5v1zM407 -13v55q29 5 40 19t11 41v144
q0 16 -5 23t-25 12q-3 0 -7 1t-9 2q-14 2 -21.5 9t-7.5 17q0 14 13 20.5t41 6.5l21 1h224q29 -1 40 -7t11 -22q0 -6 -2.5 -11t-7.5 -10q-2 -1 -5 -3l-6 -4q-2 -1 -3.5 -2t-3.5 -2q-7 -4 -9.5 -10.5t-2.5 -19.5v-165q-7 -6 -15 -11.5t-17 -10.5q-13 -8 -28.5 -16t-31.5 -16
q-9 -4 -18 -7.5t-18 -6.5q-37 -13 -77 -19.5t-81 -7.5v0zM418 627v53q50 -5 89.5 -11t73.5 -17l29 -5q4 -1 6.5 -1t4.5 1q5 1 10 6l15 15q2 2 4 3.5t5 2.5q4 3 8.5 4t9.5 1q18 0 25 -7t7 -25v-190q0 -19 -8.5 -28.5t-25.5 -9.5q-15 0 -23 5.5t-15 21.5q0 2 -1 4.5t-2 4.5
q-4 12 -10.5 25t-14.5 26q-8 15 -18.5 29.5t-21.5 26.5q-6 7 -11.5 13t-11.5 11q-22 19 -52.5 29t-71.5 11v1z" />
    <glyph glyph-name="H" unicode="H" horiz-adv-x="943" 
d="M397 0h-272h-17q-23 0 -34.5 6.5t-11.5 19.5q0 9 6.5 15.5t18.5 9.5q5 1 9.5 2.5t8.5 2.5q13 5 16.5 11t3.5 21v490q0 14 -3.5 20t-16.5 11q-4 1 -8.5 2.5t-9.5 2.5q-12 3 -18.5 9.5t-6.5 15.5q0 14 12 20.5t34 6.5l17 1h272h16q23 -2 33.5 -8t10.5 -19q0 -10 -5.5 -16.5
t-18.5 -9.5l-18 -4q-9 -3 -13.5 -11t-4.5 -22v-488q0 -14 4.5 -22.5t13.5 -10.5l18 -4q13 -4 18.5 -10.5t5.5 -16.5q0 -13 -10.5 -19t-33.5 -6h-16v0zM447 365h99v213q0 13 -4.5 21t-13.5 10l-20 6q-11 2 -16.5 8t-5.5 16q0 14 10.5 20.5t31.5 6.5l17 1h273h17
q23 -2 34.5 -8t11.5 -20q0 -9 -6.5 -15.5t-18.5 -9.5q-5 -1 -9.5 -2.5t-8.5 -2.5q-13 -5 -16.5 -11t-3.5 -21v-488q0 -16 3 -22t17 -11l7.5 -2.5t10.5 -2.5q12 -3 18.5 -9.5t6.5 -15.5q0 -13 -11.5 -19.5t-34.5 -6.5h-17h-273h-17q-21 0 -31.5 6t-10.5 19q0 9 6 16t16 10
l20 6q9 1 13.5 9.5t4.5 21.5v223h-99v54v0z" />
    <glyph glyph-name="I" unicode="I" horiz-adv-x="497" 
d="M385 0h-273h-16q-23 0 -34.5 6.5t-11.5 19.5q0 9 6 15.5t19 9.5q5 1 9.5 2.5l7.5 2.5q13 5 16.5 11t3.5 21v490q0 14 -3.5 20t-16.5 11l-7.5 2.5t-9.5 2.5q-13 3 -19 9.5t-6 15.5q0 14 12 20.5t34 6.5l16 1h273h16q23 -2 34.5 -8t11.5 -20q0 -9 -6.5 -15.5t-18.5 -9.5
q-5 -1 -9.5 -2.5t-8.5 -2.5q-13 -5 -16 -11t-3 -21v-488q0 -16 3 -22t16 -11q4 -1 8.5 -2.5t9.5 -2.5q12 -3 18.5 -9.5t6.5 -15.5q0 -13 -11.5 -19.5t-34.5 -6.5h-16v0z" />
    <glyph glyph-name="J" unicode="J" horiz-adv-x="672" 
d="M261 -13v57q24 7 33 22t9 44v463q0 15 -5 23.5t-16 10.5l-24 5q-15 2 -22.5 8.5t-7.5 16.5q0 14 13.5 20.5t41.5 7.5l20 1h274h16q23 -1 34 -7.5t11 -19.5q0 -10 -5.5 -16t-17.5 -10q-4 -1 -7.5 -2t-7.5 -2q-16 -4 -20 -10.5t-4 -22.5v-407q0 -87 -72.5 -135t-203.5 -48
h-6h-6h-11t-16 1v0zM208 44v-54q-40 5 -66.5 11.5t-50.5 19.5q-1 0 -2 0.5t-2 1.5q-41 21 -64 53t-23 68q0 46 37.5 77.5t92.5 31.5q50 0 85.5 -28.5t35.5 -68.5q0 -29 -19 -51t-57 -37q-6 -2 -9 -4t-3 -4q0 -1 1 -2t2 -3q5 -3 16 -6.5t26 -5.5v1z" />
    <glyph glyph-name="K" unicode="K" horiz-adv-x="917" 
d="M397 0h-272h-17q-23 0 -34.5 6.5t-11.5 19.5q0 9 6.5 15.5t18.5 9.5q5 1 9.5 2.5t8.5 2.5q13 5 16.5 11t3.5 21v490q0 14 -3.5 20t-16.5 11q-4 1 -8.5 2.5t-9.5 2.5q-12 3 -18.5 9.5t-6.5 15.5q0 14 12 20.5t34 6.5l17 1h272h16q24 -2 35.5 -8t11.5 -20q0 -9 -6.5 -15.5
t-18.5 -9.5q-5 -1 -9.5 -2.5t-8.5 -2.5q-13 -5 -16.5 -11t-3.5 -21v-488q0 -14 4.5 -22.5t13.5 -10.5l18 -4q13 -4 18.5 -10.5t5.5 -16.5q0 -13 -10.5 -19t-33.5 -6h-16v0zM638 473l184 -386l1.5 -4.5t1.5 -3.5q7 -12 14.5 -18.5t18.5 -10.5q3 -1 5.5 -2t4.5 -2
q9 -4 12 -8.5t3 -12.5q0 -13 -11.5 -19t-34.5 -6h-306q-22 0 -34 7t-12 20q0 8 5 14t17 11q6 2 10.5 4t7.5 4t4.5 5t1.5 6q0 2 -1 5.5t-4 9.5l-78 188q-4 11 -7.5 22.5t-3.5 20.5q0 4 0.5 8t2.5 8q2 5 6 10t10 11l145 165q5 4 8.5 9.5t6.5 11.5q3 7 4.5 13.5t1.5 12.5
q0 14 -9.5 26t-24.5 16l-22 9q-10 3 -15 8.5t-5 13.5q0 14 10.5 20.5t29.5 6.5l217 1q22 -1 33.5 -8.5t11.5 -21.5q0 -10 -7 -17.5t-20 -11.5l-33 -10q-6 -3 -15 -7t-19 -10q-5 -3 -10 -5.5t-9 -5.5q-1 -1 -2.5 -2t-2.5 -2q-10 -7 -21.5 -18t-28.5 -30l-42 -45v0z" />
    <glyph glyph-name="L" unicode="L" horiz-adv-x="665" 
d="M385 0h-273h-16q-23 0 -34.5 6.5t-11.5 19.5q0 9 6 15.5t19 9.5q5 1 9.5 2.5l7.5 2.5q13 5 16.5 11t3.5 21v490q0 14 -3.5 20t-16.5 11l-7.5 2.5t-9.5 2.5q-13 3 -19 9.5t-6 15.5q0 14 12 20.5t34 6.5l16 1h274h20q28 -2 41 -8.5t13 -20.5q0 -10 -7.5 -16.5t-21.5 -9.5
q-5 -1 -9 -2t-7 -1q-20 -5 -25 -12t-5 -24v-573v0zM430 0v55q25 2 39.5 6t27.5 10q31 15 56 45.5t40 70.5q3 8 6 14.5t6 11.5q6 10 13 13.5t18 3.5q16 0 22.5 -7.5t6.5 -24.5v-198h-235v0z" />
    <glyph glyph-name="M" unicode="M" horiz-adv-x="978" 
d="M371 667l120 -274l52 148v-162l-141 -379h-31l-238 562l-2.5 5t-2.5 6q-8 18 -18 25.5t-29 10.5q-21 3 -30.5 10.5t-9.5 19.5q0 13 11.5 20t32.5 7l286 1v0zM133 442l64 -148v-147q0 -34 11.5 -54t36.5 -33l22 -10q12 -7 18 -13t6 -14q0 -12 -11.5 -17.5t-34.5 -5.5h-153
q-22 0 -34 5.5t-12 18.5q0 5 2 8.5t6 6.5l5 2.5l7 3.5q35 15 51 40t16 61v296v0zM593 667h274h16q23 -2 34 -8t11 -20q0 -9 -5.5 -15.5t-17.5 -9.5q-6 -1 -10.5 -2.5l-7.5 -2.5q-14 -5 -17.5 -11t-3.5 -21v-488q0 -16 3.5 -22t17.5 -11l7.5 -2.5t10.5 -2.5q12 -3 17.5 -9.5
t5.5 -15.5q0 -13 -11 -19.5t-34 -6.5h-16h-274h-21q-27 0 -40.5 6.5t-13.5 20.5q0 10 7.5 16.5t21.5 8.5q4 1 8 1.5t7 1.5q21 5 26 12t5 25v575v0z" />
    <glyph glyph-name="N" unicode="N" horiz-adv-x="838" 
d="M140 496l63 -87v-262q0 -35 14.5 -57t45.5 -36l18 -7q8 -5 12 -10.5t4 -12.5q0 -13 -12 -18.5t-40 -5.5h-140q-28 0 -41.5 6t-13.5 19q0 4 1 7t4 5q3 3 9.5 6.5t16.5 8.5q30 14 44.5 37t14.5 57v350v0zM395 667l325 -451v-216h-167l-413 571q-8 9 -14 16t-11 11
q-5 3 -9.5 5t-10.5 4l-23 8q-9 1 -14.5 7.5t-5.5 14.5q0 9 6.5 16.5t16.5 9.5q6 2 18 2.5t34 0.5l268 1v0zM720 294l-64 87v135q0 40 -15 62t-53 37q-2 1 -3.5 1.5t-2.5 1.5q-9 4 -12.5 9t-3.5 14q0 13 11 19t34 6l152 1q26 -1 38 -7.5t12 -20.5q0 -5 -1 -8.5t-5 -7.5
q-4 -3 -10 -6t-17 -7q-30 -13 -45 -36t-15 -59v-221v0z" />
    <glyph glyph-name="O" unicode="O" horiz-adv-x="792" 
d="M371 627q-31 -9 -43.5 -24.5t-12.5 -44.5v-436q0 -41 12 -58t44 -24v-53q-160 10 -253 103.5t-93 241.5q0 149 96 245t250 102v-52v0zM421 627v53q155 -7 250.5 -103t95.5 -245q0 -148 -93.5 -241.5t-252.5 -103.5v54q31 5 43.5 24t12.5 56v438q0 28 -12.5 43.5
t-43.5 23.5v1z" />
    <glyph glyph-name="P" unicode="P" horiz-adv-x="795" 
d="M385 667v-574q0 -19 5.5 -26t27.5 -12q3 -1 6 -1.5t7 -1.5q14 -2 21.5 -8.5t7.5 -16.5q0 -14 -13 -20.5t-41 -6.5h-20h-274h-16q-23 0 -34.5 6.5t-11.5 19.5q0 9 6 15.5t19 9.5q5 1 9.5 2.5l7.5 2.5q13 5 16.5 11t3.5 21v490q0 14 -3.5 20t-16.5 11l-7.5 2.5t-9.5 2.5
q-13 3 -19 9.5t-6 15.5q0 14 12 20.5t34 6.5l16 1h273v0zM435 614v53h10q6 -1 12.5 -1h13.5q27 -1 54 -3.5t48 -5.5q92 -13 144.5 -65.5t52.5 -129.5q0 -79 -55 -132.5t-152 -67.5q-28 -4 -60 -6t-68 -2v54q40 7 54 23t14 54v157q0 34 -15 50.5t-53 20.5v1z" />
    <glyph glyph-name="Q" unicode="Q" horiz-adv-x="800" 
d="M635 56q12 -10 26 -14t34 -4h4.5h5.5q7 1 14.5 2.5t13.5 3.5l22 6q8 -1 14 -7t6 -14q0 -2 -0.5 -4.5t-1.5 -5.5q-9 -17 -42.5 -32t-72.5 -20q-6 0 -11.5 -0.5t-11.5 -0.5q-36 0 -64 9t-51 26q-6 -1 -11.5 -2.5t-11.5 -2.5q-15 -3 -32 -5t-40 -4v54q9 1 15 2.5t11 5.5
q1 1 3 2t4 3l-5 5q-8 8 -14.5 13t-12.5 9q-5 3 -11 4.5t-13 2.5q-23 4 -31 9t-8 16q0 14 15 21.5t39 7.5q16 0 27.5 -1.5t22.5 -5.5q3 -1 6.5 -2.5t7.5 -3.5v430q0 28 -12.5 43.5t-43.5 23.5v54q155 -7 250.5 -103t95.5 -245q0 -90 -34 -159t-102 -118v1zM375 627
q-31 -10 -44 -25t-13 -44v-436q0 -41 12.5 -58t44.5 -24v-53q-160 10 -253.5 103.5t-93.5 241.5q0 149 96 245t251 102v-52v0z" />
    <glyph glyph-name="R" unicode="R" horiz-adv-x="873" 
d="M432 613v54h15q84 -1 127.5 -6t79.5 -19q4 -2 8.5 -4t8.5 -4q49 -22 73 -57.5t24 -80.5q0 -37 -17.5 -70t-49.5 -53q-1 0 -1.5 -0.5l-0.5 -0.5q-13 -9 -26.5 -15t-32.5 -12q-13 -5 -30.5 -9.5t-39.5 -9.5q5 -1 10 -1.5t9 -0.5q37 -5 59 -10.5t41 -14.5q2 -1 4.5 -2
t4.5 -2q32 -15 49.5 -38t17.5 -49v-100q0 -8 2.5 -12t9.5 -4h3t3 1t5 3.5t7 6.5l8 6t8 5q3 2 7 3t8 1h3.5t2.5 -1q8 -2 15 -8t9 -12q1 -2 1 -3v-2q0 -8 -6 -19t-15 -22q-11 -12 -25 -23t-30 -20q-22 -10 -48.5 -15.5t-60.5 -5.5q-82 0 -127 36.5t-45 102.5v83q0 41 -16 61
t-52 23v54q38 3 53 18t15 48v130q0 30 -14 44.5t-54 24.5v1zM385 667v-574q0 -18 5 -25t25 -12q3 0 7 -1t9 -2q14 -3 21.5 -9.5t7.5 -16.5q0 -14 -13 -20.5t-41 -6.5h-20h-274h-16q-23 0 -34.5 6.5t-11.5 19.5q0 9 6 15.5t19 9.5q5 1 9 2.5t8 2.5q13 5 16.5 11.5t3.5 20.5
v490q0 14 -3.5 20t-16.5 11l-7.5 2.5t-9.5 2.5q-13 4 -19 10t-6 16q0 13 12 19.5t34 6.5l16 1h273v0z" />
    <glyph glyph-name="S" unicode="S" horiz-adv-x="703" 
d="M332 680v-56q-38 -9 -59 -26t-21 -43q0 -23 14.5 -40.5t45.5 -32.5q11 -4 26.5 -10.5t51.5 -18.5l52 -18q24 -9 41.5 -16t31.5 -13q12 -5 21.5 -10.5t18.5 -12.5q4 -2 8 -5l8 -6q44 -32 65 -70t21 -85q0 -97 -85.5 -161.5t-221.5 -68.5v56q51 9 74.5 27t23.5 48
q0 19 -8.5 33.5t-30.5 27.5q-16 9 -38.5 18.5t-54.5 20.5q-59 20 -95.5 35t-60.5 28q-56 33 -85 77t-29 99q0 97 77 157t209 65v1zM300 43v-56q-17 0 -33.5 2.5t-32.5 6.5q-11 2 -22 5.5t-22 7.5q-19 7 -28 10t-16 4h-2.5h-3.5q-4 0 -7.5 -0.5t-6.5 -1.5q-5 -2 -10 -6
t-13 -12l-2 -2t-2 -1q-4 -4 -8.5 -5.5t-10.5 -1.5q-16 0 -25 11t-9 31v178q0 13 10 22.5t25 9.5q13 0 20.5 -6.5t13.5 -22.5q13 -40 36 -73t57 -61q3 -2 6 -4.5t6 -4.5q18 -13 37 -20t43 -11v1zM382 624v54q13 -2 24 -3t21 -3q19 -3 39.5 -9t53.5 -17l20 -3q5 -1 9.5 1
t7.5 5l14 15q5 5 11 7.5t13 2.5q16 0 23.5 -9.5t7.5 -29.5v-160q0 -15 -10 -24.5t-26 -9.5q-15 0 -24 8t-14 27q-14 55 -60.5 95t-109.5 52v1z" />
    <glyph glyph-name="T" unicode="T" horiz-adv-x="742" 
d="M507 667v-574q0 -19 5.5 -26t27.5 -12q3 -1 6 -1.5t7 -1.5q14 -2 22 -8.5t8 -16.5q0 -14 -13 -20.5t-42 -6.5h-20h-273h-22q-27 0 -40 6.5t-13 20.5q0 10 7.5 16.5t20.5 8.5q5 1 8.5 1.5t7.5 1.5q20 5 25.5 12t5.5 25v575h272v0zM25 667h160v-60q-31 -15 -51 -43.5
t-29 -70.5l-7 -29q-2 -16 -12 -24t-25 -8q-16 0 -26 9t-10 23v203v0zM717 667v-202q0 -15 -10 -24t-26 -9q-15 0 -25 8.5t-14 22.5l-6 31q-8 41 -28 69.5t-51 42.5v61h160v0z" />
    <glyph glyph-name="U" unicode="U" horiz-adv-x="846" 
d="M448 51v-64h-18q-53 0 -91.5 4.5t-73.5 13.5q-8 3 -16 5.5t-16 5.5q-73 28 -102 67.5t-29 110.5v384q0 14 -3.5 20t-16.5 11l-7.5 2.5t-9.5 2.5q-13 3 -19 9.5t-6 15.5q0 13 11.5 20t33.5 7l17 1h273h16q23 -1 34.5 -7.5t11.5 -20.5q0 -9 -6.5 -15.5t-18.5 -9.5
q-5 -1 -9.5 -2.5t-8.5 -2.5q-13 -5 -16 -11t-3 -21v-409q0 -38 2 -54t8 -28l0.5 -0.5l0.5 -0.5q8 -16 21 -23t41 -12v1zM497 -13v64q70 7 108 46.5t38 103.5v319q0 33 -15.5 56t-46.5 36q-7 3 -12.5 6t-8.5 5q-5 4 -7 8.5t-2 10.5q0 13 11 18.5t36 5.5l153 1
q17 -1 23.5 -1.5t11.5 -2.5q1 0 1.5 -0.5l0.5 -0.5q8 -4 12.5 -9t4.5 -11q0 -5 -1 -8.5t-4 -6.5q-4 -3 -11.5 -7t-20.5 -10q-27 -12 -42 -36t-15 -55v-317q0 -89 -56.5 -145.5t-157.5 -69.5v0z" />
    <glyph glyph-name="V" unicode="V" horiz-adv-x="753" 
d="M506 171l-58 -171h-161l-216 584q-2 3 -3.5 6.5t-3.5 5.5q-3 5 -6.5 7.5t-10.5 4.5q-6 2 -10.5 4t-8.5 4q-7 4 -9.5 8.5t-2.5 11.5q0 15 14.5 22.5t44.5 7.5l271 1q24 -1 33 -2t14 -3q8 -3 13 -9.5t5 -14.5t-5 -14.5t-16 -10.5q-16 -6 -22 -13t-6 -19l3 -12l141 -398v0z
M530 241l-33 92l70 205l4 23q0 17 -9.5 29.5t-25.5 17.5l-19 6q-11 2 -17.5 9t-6.5 15q0 14 13.5 21t38.5 7l148 1q29 -1 40.5 -7t11.5 -20q0 -9 -4.5 -14t-17.5 -10l-31 -11q-1 -2 -2.5 -2.5t-3.5 -0.5q-17 -9 -33 -30t-26 -47l-97 -284v0z" />
    <glyph glyph-name="W" unicode="W" horiz-adv-x="1026" 
d="M475 237l-74 -237h-133l-195 574q-1 1 -1.5 2.5t-0.5 3.5q-6 15 -12 21t-18 9q-13 5 -19 11t-6 16q0 14 15 21.5t42 7.5l287 1q26 -1 37 -7t11 -20q0 -7 -4.5 -13.5t-15.5 -11.5q-8 -4 -13 -7t-8 -5q-5 -4 -6 -8t-1 -11l1 -10l114 -337v0zM532 667h126l148 -445l-71 -222
h-133l-142 429l72 238v0zM828 301l-32 99l45 144l5 27q0 13 -10 23.5t-33 19.5q-5 2 -8.5 4t-6.5 4q-7 4 -9.5 8.5t-2.5 11.5q0 13 10.5 18.5t31.5 5.5l145 1q26 -1 35.5 -6.5t9.5 -19.5q0 -7 -4.5 -12t-17.5 -10q-34 -13 -52 -32t-31 -54l-75 -232v0z" />
    <glyph glyph-name="X" unicode="X" horiz-adv-x="760" 
d="M382 581l308 -499l1.5 -3t1.5 -2q4 -8 9.5 -12t13.5 -7q1 -1 2 -1.5t2 -0.5q6 -3 10 -5.5t7 -4.5q6 -4 8 -8.5t2 -10.5q0 -15 -12.5 -21t-43.5 -6h-286q-21 0 -30 0.5t-16 2.5q-1 1 -2.5 1.5t-3.5 1.5q-5 4 -8.5 9.5t-3.5 11.5q0 3 1 6t4 6q2 2 6 5t10 6q5 3 8.5 5.5
t6.5 5.5q2 3 3.5 5.5t1.5 5.5q0 2 -2 7l-4 10q-1 2 -2.5 4t-2.5 4l-300 484q-7 12 -16 19t-23 12q-11 5 -16 11t-5 15q0 16 13 22t47 6l284 1q32 -1 45 -7.5t13 -20.5q0 -6 -2.5 -10.5t-8.5 -8.5q-1 -2 -3.5 -3t-5.5 -3q-4 -2 -6.5 -4t-4.5 -4t-3 -5t-1 -6q0 -4 1.5 -7.5
t2.5 -7.5v1zM232 238l33 -55l-38 -50q-12 -17 -16.5 -26t-4.5 -17q0 -13 8 -21.5t26 -13.5q3 -1 5 -2t5 -1q13 -5 17.5 -11t4.5 -14q0 -15 -12.5 -21t-41.5 -6h-156q-20 0 -31 6t-11 18q0 10 7 16t24 11q23 7 40.5 18.5t30.5 27.5l110 141v0zM520 446l-34 54l34 47
q5 4 6.5 10.5t1.5 13.5q0 13 -7.5 23t-20.5 15l-20 9q-5 1 -9 6t-5 10q-1 2 -1 3.5v2.5q0 12 10.5 19t26.5 7l178 1q17 -1 27.5 -7.5t10.5 -16.5q0 -6 -1.5 -10t-5.5 -7t-11 -6.5t-18 -8.5q-22 -10 -39.5 -23.5t-32.5 -31.5l-90 -110v0z" />
    <glyph glyph-name="Y" unicode="Y" horiz-adv-x="746" 
d="M502 306v-213q0 -19 5.5 -26t27.5 -12q3 -1 6 -1.5t7 -1.5q14 -2 21.5 -8.5t7.5 -17.5q0 -14 -12.5 -20t-41.5 -6h-20h-275h-20q-28 0 -40.5 6.5t-12.5 20.5q0 10 7.5 16.5t20.5 8.5q5 1 8.5 1.5t7.5 1.5q20 5 25.5 12t5.5 25v166l-173 329q-5 10 -11.5 16t-15.5 11
q-7 3 -11.5 5.5t-7.5 4.5q-5 4 -6.5 7.5t-1.5 9.5q0 13 11.5 19t35.5 6l300 1q25 -1 36.5 -7t11.5 -20q0 -7 -4.5 -13t-12.5 -11l-18 -8q-5 -3 -8 -7.5t-3 -9.5q0 -2 0.5 -5.5t1.5 -6.5q1 -1 1 -2t1 -2q0 -3 1 -4.5t1 -3.5l144 -261v0zM525 352l-35 64l63 115q3 4 5 9.5
t3 10.5t1.5 9t0.5 8q0 15 -9.5 25.5t-30.5 17.5q-7 2 -12.5 4t-9.5 4q-7 4 -10 8t-3 11q0 16 13 22t46 6l151 1q22 -1 32.5 -8t10.5 -21q0 -7 -2.5 -11.5t-10.5 -8.5q-3 -1 -6.5 -2.5t-8.5 -3.5q-27 -10 -44 -23.5t-29 -33.5l-14 -24l-101 -179v0z" />
    <glyph glyph-name="Z" unicode="Z" horiz-adv-x="653" 
d="M628 667v-56l-337 -611h-266v49l338 618h265v0zM628 0h-285l28 49q81 14 118 36.5t66 77.5q2 4 4 8.5t4 8.5q2 3 3 6t3 5q6 9 12 12.5t16 3.5q15 0 23 -8.5t8 -25.5v-173v0zM46 667h265l-31 -56q-63 -8 -108 -39.5t-62 -81.5q-5 -15 -12.5 -21t-21.5 -6q-15 0 -22.5 8
t-7.5 21v175v0z" />
    <glyph glyph-name="bracketleft" unicode="[" horiz-adv-x="490" 
d="M352 -144h-235q-14 0 -17.5 3t-3.5 14v777q0 10 3.5 13t17.5 3l235 1q48 -1 65.5 -7.5t17.5 -26.5q0 -13 -8.5 -20t-30.5 -11q-55 -9 -71.5 -24.5t-16.5 -59.5v-514q0 -44 16.5 -59.5t71.5 -24.5q22 -4 30.5 -10.5t8.5 -19.5q0 -20 -17.5 -27t-65.5 -7v0z" />
    <glyph glyph-name="backslash" unicode="\" horiz-adv-x="625" 
d="M190 750l381 -833h-156l-382 833h157v0z" />
    <glyph glyph-name="bracketright" unicode="]" horiz-adv-x="490" 
d="M137 667h236q14 -1 17 -4t3 -14v-776q0 -11 -3 -14t-17 -3h-236q-48 0 -65 7t-17 26q0 13 9 20t29 11q56 9 72 24.5t16 58.5v516q0 43 -16 58.5t-72 24.5q-20 4 -29 11t-9 20q0 20 17 26.5t65 6.5v1z" />
    <glyph glyph-name="asciicircum" unicode="^" horiz-adv-x="625" 
d="M663 277h-86l-186 238l-203 -238h-228l363 423h12l328 -423v0z" />
    <glyph glyph-name="underscore" unicode="_" horiz-adv-x="625" 
d="M6 -93h611v-81h-611v81v0z" />
    <glyph glyph-name="grave" unicode="`" horiz-adv-x="625" 
d="M135 851h122q12 -1 18.5 -2t12.5 -6l4.5 -4.5t5.5 -6.5l92 -112l2 -6q0 -5 -4.5 -7t-12.5 -2l-45 1q-2 -1 -3.5 -1t-3.5 1q-3 1 -5.5 2.5t-6.5 3.5l-11 8l-169 104q-7 4 -10.5 7t-4.5 5v1.5v0.5q0 5 6 8.5t13 3.5v1z" />
    <glyph glyph-name="a" unicode="a" horiz-adv-x="773" 
d="M252 542l31 -101l-108 -315q-1 -4 -2 -7.5t-1 -6.5q-1 -3 -1 -6.5v-6.5q0 -14 9 -25.5t27 -17.5l20 -7q10 -5 15.5 -11.5t5.5 -14.5q0 -11 -11.5 -17t-33.5 -6h-155q-21 0 -34.5 7t-13.5 19q0 8 6 14t21 11q38 14 56.5 32t31.5 56l137 403v0zM295 667h246l169 -574
q0 -2 0.5 -3.5t1.5 -2.5q5 -18 12 -25.5t22 -11.5q2 -1 3.5 -1.5t2.5 -0.5q12 -5 16.5 -10.5t4.5 -14.5q0 -11 -12 -17t-35 -6h-305q-18 0 -29 6.5t-11 18.5q0 6 1.5 10t6.5 7q3 2 7.5 4.5t11.5 5.5q1 1 2.5 1.5t2.5 0.5q10 5 13.5 10.5t3.5 14.5l-2 14l-20 71h-170l17 60
h137l-112 395l15 48v0z" />
    <glyph glyph-name="b" unicode="b" horiz-adv-x="837" 
d="M385 667v-667h-273h-16q-23 0 -34.5 6.5t-11.5 19.5q0 9 6 15.5t19 9.5q5 1 9.5 2.5l7.5 2.5q13 5 16.5 11t3.5 21v490q0 14 -3.5 20t-16.5 11l-7.5 2.5t-9.5 2.5q-13 3 -19 9.5t-6 15.5q0 14 12 20.5t34 6.5l16 1h273v0zM435 613v54h67q134 -1 207.5 -43.5t73.5 -118.5
q0 -39 -22 -72.5t-61 -52.5l-8 -4t-8 -3q-13 -5 -26 -9.5t-30 -8.5q-11 -3 -24.5 -5.5t-30.5 -5.5q19 -3 33.5 -5.5t25.5 -5.5q11 -2 20.5 -4.5t18.5 -5.5q5 -2 10 -3.5t10 -3.5q50 -20 77 -57t27 -85q0 -46 -23.5 -81.5t-68.5 -58.5q-3 -2 -6 -3t-6 -3q-37 -16 -78.5 -22
t-107.5 -6h-70v51q44 1 63 19t19 56v112q0 38 -19.5 57.5t-62.5 23.5v52q47 1 64.5 19.5t17.5 62.5v85q0 33 -21 52t-61 22v1z" />
    <glyph glyph-name="c" unicode="c" horiz-adv-x="730" 
d="M386 680v-59q-36 -5 -53 -26.5t-17 -59.5v-403v-21q2 -29 20 -46t50 -19v-59q-169 3 -265 92t-96 243q0 69 20 128t60 105q32 36 77.5 64.5t93.5 43.5q24 8 47 12t45 4l18 1v0zM436 -13v60q62 2 112.5 35t69.5 82q7 16 15 22.5t22 6.5t23.5 -8.5t9.5 -21.5
q0 -14 -8 -31.5t-22 -35.5q-12 -15 -26 -29t-31 -26q-4 -3 -8.5 -6t-8.5 -5q-34 -22 -69.5 -32t-78.5 -11v0zM436 621v58q3 -1 5.5 -1.5t5.5 -0.5q6 -1 11.5 -1.5t10.5 -1.5q14 -3 31 -7.5t51 -14.5q17 -5 25.5 -7t15.5 -2h2h2q7 1 13 4.5t9 8.5l8 13q4 4 11.5 7t15.5 3
q17 0 25.5 -8t8.5 -23v-202q0 -18 -9 -28t-26 -10q-14 0 -23 8t-14 24q-26 80 -72.5 126.5t-106.5 53.5v1z" />
    <glyph glyph-name="d" unicode="d" horiz-adv-x="810" 
d="M385 667v-667h-273h-16q-23 0 -34.5 6.5t-11.5 19.5q0 9 6 15.5t19 9.5q5 1 9.5 2.5l7.5 2.5q13 5 16.5 11t3.5 21v490q0 14 -3.5 20t-16.5 11l-7.5 2.5t-9.5 2.5q-13 3 -19 9.5t-6 15.5q0 14 12 20.5t34 6.5l16 1h273v0zM435 612v55q37 -1 63 -4t50 -10q10 -3 20.5 -6.5
t21.5 -8.5q95 -40 145.5 -118t50.5 -185q0 -108 -54 -189.5t-152 -122.5q-9 -4 -17.5 -7t-17.5 -6q-22 -6 -47 -8t-63 -2v53q43 7 56.5 23.5t13.5 61.5v387q0 41 -16 61t-54 25v1z" />
    <glyph glyph-name="e" unicode="e" horiz-adv-x="733" 
d="M385 667v-667h-273h-16q-23 0 -34.5 6.5t-11.5 19.5q0 9 6 15.5t19 9.5q5 1 9.5 2.5l7.5 2.5q13 5 16.5 11t3.5 21v490q0 14 -3.5 20t-16.5 11l-7.5 2.5t-9.5 2.5q-13 3 -19 9.5t-6 15.5q0 14 12 20.5t34 6.5l16 1h273v0zM436 0v53q73 7 118.5 38t71.5 89q2 3 3.5 6
t3.5 6q5 8 11 11.5t16 3.5q19 0 25.5 -7.5t6.5 -28.5v-171h-256v0zM436 311v57q35 13 52 28.5t24 42.5q0 1 0.5 2.5t1.5 2.5q5 16 12 22t22 6q18 0 24 -8.5t6 -32.5v-185q0 -24 -6.5 -32.5t-23.5 -8.5q-13 0 -21 6.5t-14 22.5q-10 34 -28.5 52t-48.5 24v1zM436 667h247v-174
q0 -16 -6.5 -23t-23.5 -7q-13 0 -20 4.5t-12 17.5q-23 58 -68.5 87.5t-116.5 35.5v59v0z" />
    <glyph glyph-name="f" unicode="f" horiz-adv-x="707" 
d="M385 667v-574q0 -19 5.5 -26t27.5 -12q3 -1 6 -1.5t7 -1.5q14 -2 21.5 -8.5t7.5 -16.5q0 -14 -13 -20.5t-41 -6.5h-20h-274h-16q-23 0 -34.5 6.5t-11.5 19.5q0 9 6 15.5t19 9.5q5 1 9.5 2.5l7.5 2.5q13 5 16.5 11t3.5 21v490q0 14 -3.5 20t-16.5 11l-7.5 2.5t-9.5 2.5
q-13 3 -19 9.5t-6 15.5q0 14 12 20.5t34 6.5l16 1h273v0zM435 311v57q35 13 52 28.5t24 42.5q5 19 13 26t23 7q18 0 24 -8.5t6 -32.5v-185q0 -24 -6 -32.5t-24 -8.5q-13 0 -21 6.5t-13 22.5q-10 34 -28.5 52t-49.5 24v1zM435 667h247v-172q0 -17 -7 -24.5t-24 -7.5
q-12 0 -19 5t-12 17q-22 56 -67.5 86.5t-117.5 36.5v59v0z" />
    <glyph glyph-name="g" unicode="g" horiz-adv-x="775" 
d="M368 680v-54q-27 -5 -40 -22.5t-13 -46.5v-454q0 -28 9 -41t33 -21v-54h-6q-14 0 -33.5 3.5t-40.5 9.5q-12 2 -23.5 6t-22.5 9q-100 41 -153 121.5t-53 187.5q0 113 53 197t150 127q28 12 52.5 19t48.5 10q10 1 19.5 1.5t19.5 0.5v1zM407 -13v55q29 5 40 19t11 41v144
q0 16 -5 23t-25 12q-3 0 -7 1t-9 2q-14 2 -21.5 9t-7.5 17q0 14 13 20.5t41 6.5l21 1h224q29 -1 40 -7t11 -22q0 -6 -2.5 -11t-7.5 -10q-2 -1 -5 -3l-6 -4q-2 -1 -3.5 -2t-3.5 -2q-7 -4 -9.5 -10.5t-2.5 -19.5v-165q-7 -6 -15 -11.5t-17 -10.5q-13 -8 -28.5 -16t-31.5 -16
q-9 -4 -18 -7.5t-18 -6.5q-37 -13 -77 -19.5t-81 -7.5v0zM418 627v53q50 -5 89.5 -11t73.5 -17l29 -5q4 -1 6.5 -1t4.5 1q5 1 10 6l15 15q2 2 4 3.5t5 2.5q4 3 8.5 4t9.5 1q18 0 25 -7t7 -25v-190q0 -19 -8.5 -28.5t-25.5 -9.5q-15 0 -23 5.5t-15 21.5q0 2 -1 4.5t-2 4.5
q-4 12 -10.5 25t-14.5 26q-8 15 -18.5 29.5t-21.5 26.5q-6 7 -11.5 13t-11.5 11q-22 19 -52.5 29t-71.5 11v1z" />
    <glyph glyph-name="h" unicode="h" horiz-adv-x="943" 
d="M397 0h-272h-17q-23 0 -34.5 6.5t-11.5 19.5q0 9 6.5 15.5t18.5 9.5q5 1 9.5 2.5t8.5 2.5q13 5 16.5 11t3.5 21v490q0 14 -3.5 20t-16.5 11q-4 1 -8.5 2.5t-9.5 2.5q-12 3 -18.5 9.5t-6.5 15.5q0 14 12 20.5t34 6.5l17 1h272h16q23 -2 33.5 -8t10.5 -19q0 -10 -5.5 -16.5
t-18.5 -9.5l-18 -4q-9 -3 -13.5 -11t-4.5 -22v-488q0 -14 4.5 -22.5t13.5 -10.5l18 -4q13 -4 18.5 -10.5t5.5 -16.5q0 -13 -10.5 -19t-33.5 -6h-16v0zM447 365h99v213q0 13 -4.5 21t-13.5 10l-20 6q-11 2 -16.5 8t-5.5 16q0 14 10.5 20.5t31.5 6.5l17 1h273h17
q23 -2 34.5 -8t11.5 -20q0 -9 -6.5 -15.5t-18.5 -9.5q-5 -1 -9.5 -2.5t-8.5 -2.5q-13 -5 -16.5 -11t-3.5 -21v-488q0 -16 3 -22t17 -11l7.5 -2.5t10.5 -2.5q12 -3 18.5 -9.5t6.5 -15.5q0 -13 -11.5 -19.5t-34.5 -6.5h-17h-273h-17q-21 0 -31.5 6t-10.5 19q0 9 6 16t16 10
l20 6q9 1 13.5 9.5t4.5 21.5v223h-99v54v0z" />
    <glyph glyph-name="i" unicode="i" horiz-adv-x="497" 
d="M385 0h-273h-16q-23 0 -34.5 6.5t-11.5 19.5q0 9 6 15.5t19 9.5q5 1 9.5 2.5l7.5 2.5q13 5 16.5 11t3.5 21v490q0 14 -3.5 20t-16.5 11l-7.5 2.5t-9.5 2.5q-13 3 -19 9.5t-6 15.5q0 14 12 20.5t34 6.5l16 1h273h16q23 -2 34.5 -8t11.5 -20q0 -9 -6.5 -15.5t-18.5 -9.5
q-5 -1 -9.5 -2.5t-8.5 -2.5q-13 -5 -16 -11t-3 -21v-488q0 -16 3 -22t16 -11q4 -1 8.5 -2.5t9.5 -2.5q12 -3 18.5 -9.5t6.5 -15.5q0 -13 -11.5 -19.5t-34.5 -6.5h-16v0z" />
    <glyph glyph-name="j" unicode="j" horiz-adv-x="672" 
d="M261 -13v57q24 7 33 22t9 44v463q0 15 -5 23.5t-16 10.5l-24 5q-15 2 -22.5 8.5t-7.5 16.5q0 14 13.5 20.5t41.5 7.5l20 1h274h16q23 -1 34 -7.5t11 -19.5q0 -10 -5.5 -16t-17.5 -10q-4 -1 -7.5 -2t-7.5 -2q-16 -4 -20 -10.5t-4 -22.5v-407q0 -87 -72.5 -135t-203.5 -48
h-6h-6h-11t-16 1v0zM208 44v-54q-40 5 -66.5 11.5t-50.5 19.5q-1 0 -2 0.5t-2 1.5q-41 21 -64 53t-23 68q0 46 37.5 77.5t92.5 31.5q50 0 85.5 -28.5t35.5 -68.5q0 -29 -19 -51t-57 -37q-6 -2 -9 -4t-3 -4q0 -1 1 -2t2 -3q5 -3 16 -6.5t26 -5.5v1z" />
    <glyph glyph-name="k" unicode="k" horiz-adv-x="917" 
d="M397 0h-272h-17q-23 0 -34.5 6.5t-11.5 19.5q0 9 6.5 15.5t18.5 9.5q5 1 9.5 2.5t8.5 2.5q13 5 16.5 11t3.5 21v490q0 14 -3.5 20t-16.5 11q-4 1 -8.5 2.5t-9.5 2.5q-12 3 -18.5 9.5t-6.5 15.5q0 14 12 20.5t34 6.5l17 1h272h16q24 -2 35.5 -8t11.5 -20q0 -9 -6.5 -15.5
t-18.5 -9.5q-5 -1 -9.5 -2.5t-8.5 -2.5q-13 -5 -16.5 -11t-3.5 -21v-488q0 -14 4.5 -22.5t13.5 -10.5l18 -4q13 -4 18.5 -10.5t5.5 -16.5q0 -13 -10.5 -19t-33.5 -6h-16v0zM638 473l184 -386l1.5 -4.5t1.5 -3.5q7 -12 14.5 -18.5t18.5 -10.5q3 -1 5.5 -2t4.5 -2
q9 -4 12 -8.5t3 -12.5q0 -13 -11.5 -19t-34.5 -6h-306q-22 0 -34 7t-12 20q0 8 5 14t17 11q6 2 10.5 4t7.5 4t4.5 5t1.5 6q0 2 -1 5.5t-4 9.5l-78 188q-4 11 -7.5 22.5t-3.5 20.5q0 4 0.5 8t2.5 8q2 5 6 10t10 11l145 165q5 4 8.5 9.5t6.5 11.5q3 7 4.5 13.5t1.5 12.5
q0 14 -9.5 26t-24.5 16l-22 9q-10 3 -15 8.5t-5 13.5q0 14 10.5 20.5t29.5 6.5l217 1q22 -1 33.5 -8.5t11.5 -21.5q0 -10 -7 -17.5t-20 -11.5l-33 -10q-6 -3 -15 -7t-19 -10q-5 -3 -10 -5.5t-9 -5.5q-1 -1 -2.5 -2t-2.5 -2q-10 -7 -21.5 -18t-28.5 -30l-42 -45v0z" />
    <glyph glyph-name="l" unicode="l" horiz-adv-x="665" 
d="M385 0h-273h-16q-23 0 -34.5 6.5t-11.5 19.5q0 9 6 15.5t19 9.5q5 1 9.5 2.5l7.5 2.5q13 5 16.5 11t3.5 21v490q0 14 -3.5 20t-16.5 11l-7.5 2.5t-9.5 2.5q-13 3 -19 9.5t-6 15.5q0 14 12 20.5t34 6.5l16 1h274h20q28 -2 41 -8.5t13 -20.5q0 -10 -7.5 -16.5t-21.5 -9.5
q-5 -1 -9 -2t-7 -1q-20 -5 -25 -12t-5 -24v-573v0zM430 0v55q25 2 39.5 6t27.5 10q31 15 56 45.5t40 70.5q3 8 6 14.5t6 11.5q6 10 13 13.5t18 3.5q16 0 22.5 -7.5t6.5 -24.5v-198h-235v0z" />
    <glyph glyph-name="m" unicode="m" horiz-adv-x="978" 
d="M371 667l120 -274l52 148v-162l-141 -379h-31l-238 562l-2.5 5t-2.5 6q-8 18 -18 25.5t-29 10.5q-21 3 -30.5 10.5t-9.5 19.5q0 13 11.5 20t32.5 7l286 1v0zM133 442l64 -148v-147q0 -34 11.5 -54t36.5 -33l22 -10q12 -7 18 -13t6 -14q0 -12 -11.5 -17.5t-34.5 -5.5h-153
q-22 0 -34 5.5t-12 18.5q0 5 2 8.5t6 6.5l5 2.5l7 3.5q35 15 51 40t16 61v296v0zM593 667h274h16q23 -2 34 -8t11 -20q0 -9 -5.5 -15.5t-17.5 -9.5q-6 -1 -10.5 -2.5l-7.5 -2.5q-14 -5 -17.5 -11t-3.5 -21v-488q0 -16 3.5 -22t17.5 -11l7.5 -2.5t10.5 -2.5q12 -3 17.5 -9.5
t5.5 -15.5q0 -13 -11 -19.5t-34 -6.5h-16h-274h-21q-27 0 -40.5 6.5t-13.5 20.5q0 10 7.5 16.5t21.5 8.5q4 1 8 1.5t7 1.5q21 5 26 12t5 25v575v0z" />
    <glyph glyph-name="n" unicode="n" horiz-adv-x="838" 
d="M140 496l63 -87v-262q0 -35 14.5 -57t45.5 -36l18 -7q8 -5 12 -10.5t4 -12.5q0 -13 -12 -18.5t-40 -5.5h-140q-28 0 -41.5 6t-13.5 19q0 4 1 7t4 5q3 3 9.5 6.5t16.5 8.5q30 14 44.5 37t14.5 57v350v0zM395 667l325 -451v-216h-167l-413 571q-8 9 -14 16t-11 11
q-5 3 -9.5 5t-10.5 4l-23 8q-9 1 -14.5 7.5t-5.5 14.5q0 9 6.5 16.5t16.5 9.5q6 2 18 2.5t34 0.5l268 1v0zM720 294l-64 87v135q0 40 -15 62t-53 37q-2 1 -3.5 1.5t-2.5 1.5q-9 4 -12.5 9t-3.5 14q0 13 11 19t34 6l152 1q26 -1 38 -7.5t12 -20.5q0 -5 -1 -8.5t-5 -7.5
q-4 -3 -10 -6t-17 -7q-30 -13 -45 -36t-15 -59v-221v0z" />
    <glyph glyph-name="o" unicode="o" horiz-adv-x="792" 
d="M371 627q-31 -9 -43.5 -24.5t-12.5 -44.5v-436q0 -41 12 -58t44 -24v-53q-160 10 -253 103.5t-93 241.5q0 149 96 245t250 102v-52v0zM421 627v53q155 -7 250.5 -103t95.5 -245q0 -148 -93.5 -241.5t-252.5 -103.5v54q31 5 43.5 24t12.5 56v438q0 28 -12.5 43.5
t-43.5 23.5v1z" />
    <glyph glyph-name="p" unicode="p" horiz-adv-x="795" 
d="M385 667v-574q0 -19 5.5 -26t27.5 -12q3 -1 6 -1.5t7 -1.5q14 -2 21.5 -8.5t7.5 -16.5q0 -14 -13 -20.5t-41 -6.5h-20h-274h-16q-23 0 -34.5 6.5t-11.5 19.5q0 9 6 15.5t19 9.5q5 1 9.5 2.5l7.5 2.5q13 5 16.5 11t3.5 21v490q0 14 -3.5 20t-16.5 11l-7.5 2.5t-9.5 2.5
q-13 3 -19 9.5t-6 15.5q0 14 12 20.5t34 6.5l16 1h273v0zM435 614v53h10q6 -1 12.5 -1h13.5q27 -1 54 -3.5t48 -5.5q92 -13 144.5 -65.5t52.5 -129.5q0 -79 -55 -132.5t-152 -67.5q-28 -4 -60 -6t-68 -2v54q40 7 54 23t14 54v157q0 34 -15 50.5t-53 20.5v1z" />
    <glyph glyph-name="q" unicode="q" horiz-adv-x="800" 
d="M635 56q12 -10 26 -14t34 -4h4.5h5.5q7 1 14.5 2.5t13.5 3.5l22 6q8 -1 14 -7t6 -14q0 -2 -0.5 -4.5t-1.5 -5.5q-9 -17 -42.5 -32t-72.5 -20q-6 0 -11.5 -0.5t-11.5 -0.5q-36 0 -64 9t-51 26q-6 -1 -11.5 -2.5t-11.5 -2.5q-15 -3 -32 -5t-40 -4v54q9 1 15 2.5t11 5.5
q1 1 3 2t4 3l-5 5q-8 8 -14.5 13t-12.5 9q-5 3 -11 4.5t-13 2.5q-23 4 -31 9t-8 16q0 14 15 21.5t39 7.5q16 0 27.5 -1.5t22.5 -5.5q3 -1 6.5 -2.5t7.5 -3.5v430q0 28 -12.5 43.5t-43.5 23.5v54q155 -7 250.5 -103t95.5 -245q0 -90 -34 -159t-102 -118v1zM375 627
q-31 -10 -44 -25t-13 -44v-436q0 -41 12.5 -58t44.5 -24v-53q-160 10 -253.5 103.5t-93.5 241.5q0 149 96 245t251 102v-52v0z" />
    <glyph glyph-name="r" unicode="r" horiz-adv-x="873" 
d="M432 613v54h15q84 -1 127.5 -6t79.5 -19q4 -2 8.5 -4t8.5 -4q49 -22 73 -57.5t24 -80.5q0 -37 -17.5 -70t-49.5 -53q-1 0 -1.5 -0.5l-0.5 -0.5q-13 -9 -26.5 -15t-32.5 -12q-13 -5 -30.5 -9.5t-39.5 -9.5q5 -1 10 -1.5t9 -0.5q37 -5 59 -10.5t41 -14.5q2 -1 4.5 -2
t4.5 -2q32 -15 49.5 -38t17.5 -49v-100q0 -8 2.5 -12t9.5 -4h3t3 1t5 3.5t7 6.5l8 6t8 5q3 2 7 3t8 1h3.5t2.5 -1q8 -2 15 -8t9 -12q1 -2 1 -3v-2q0 -8 -6 -19t-15 -22q-11 -12 -25 -23t-30 -20q-22 -10 -48.5 -15.5t-60.5 -5.5q-82 0 -127 36.5t-45 102.5v83q0 41 -16 61
t-52 23v54q38 3 53 18t15 48v130q0 30 -14 44.5t-54 24.5v1zM385 667v-574q0 -18 5 -25t25 -12q3 0 7 -1t9 -2q14 -3 21.5 -9.5t7.5 -16.5q0 -14 -13 -20.5t-41 -6.5h-20h-274h-16q-23 0 -34.5 6.5t-11.5 19.5q0 9 6 15.5t19 9.5q5 1 9 2.5t8 2.5q13 5 16.5 11.5t3.5 20.5
v490q0 14 -3.5 20t-16.5 11l-7.5 2.5t-9.5 2.5q-13 4 -19 10t-6 16q0 13 12 19.5t34 6.5l16 1h273v0z" />
    <glyph glyph-name="s" unicode="s" horiz-adv-x="703" 
d="M332 680v-56q-38 -9 -59 -26t-21 -43q0 -23 14.5 -40.5t45.5 -32.5q11 -4 26.5 -10.5t51.5 -18.5l52 -18q24 -9 41.5 -16t31.5 -13q12 -5 21.5 -10.5t18.5 -12.5q4 -2 8 -5l8 -6q44 -32 65 -70t21 -85q0 -97 -85.5 -161.5t-221.5 -68.5v56q51 9 74.5 27t23.5 48
q0 19 -8.5 33.5t-30.5 27.5q-16 9 -38.5 18.5t-54.5 20.5q-59 20 -95.5 35t-60.5 28q-56 33 -85 77t-29 99q0 97 77 157t209 65v1zM300 43v-56q-17 0 -33.5 2.5t-32.5 6.5q-11 2 -22 5.5t-22 7.5q-19 7 -28 10t-16 4h-2.5h-3.5q-4 0 -7.5 -0.5t-6.5 -1.5q-5 -2 -10 -6
t-13 -12l-2 -2t-2 -1q-4 -4 -8.5 -5.5t-10.5 -1.5q-16 0 -25 11t-9 31v178q0 13 10 22.5t25 9.5q13 0 20.5 -6.5t13.5 -22.5q13 -40 36 -73t57 -61q3 -2 6 -4.5t6 -4.5q18 -13 37 -20t43 -11v1zM382 624v54q13 -2 24 -3t21 -3q19 -3 39.5 -9t53.5 -17l20 -3q5 -1 9.5 1
t7.5 5l14 15q5 5 11 7.5t13 2.5q16 0 23.5 -9.5t7.5 -29.5v-160q0 -15 -10 -24.5t-26 -9.5q-15 0 -24 8t-14 27q-14 55 -60.5 95t-109.5 52v1z" />
    <glyph glyph-name="t" unicode="t" horiz-adv-x="742" 
d="M507 667v-574q0 -19 5.5 -26t27.5 -12q3 -1 6 -1.5t7 -1.5q14 -2 22 -8.5t8 -16.5q0 -14 -13 -20.5t-42 -6.5h-20h-273h-22q-27 0 -40 6.5t-13 20.5q0 10 7.5 16.5t20.5 8.5q5 1 8.5 1.5t7.5 1.5q20 5 25.5 12t5.5 25v575h272v0zM25 667h160v-60q-31 -15 -51 -43.5
t-29 -70.5l-7 -29q-2 -16 -12 -24t-25 -8q-16 0 -26 9t-10 23v203v0zM717 667v-202q0 -15 -10 -24t-26 -9q-15 0 -25 8.5t-14 22.5l-6 31q-8 41 -28 69.5t-51 42.5v61h160v0z" />
    <glyph glyph-name="u" unicode="u" horiz-adv-x="846" 
d="M448 51v-64h-18q-53 0 -91.5 4.5t-73.5 13.5q-8 3 -16 5.5t-16 5.5q-73 28 -102 67.5t-29 110.5v384q0 14 -3.5 20t-16.5 11l-7.5 2.5t-9.5 2.5q-13 3 -19 9.5t-6 15.5q0 13 11.5 20t33.5 7l17 1h273h16q23 -1 34.5 -7.5t11.5 -20.5q0 -9 -6.5 -15.5t-18.5 -9.5
q-5 -1 -9.5 -2.5t-8.5 -2.5q-13 -5 -16 -11t-3 -21v-409q0 -38 2 -54t8 -28l0.5 -0.5l0.5 -0.5q8 -16 21 -23t41 -12v1zM497 -13v64q70 7 108 46.5t38 103.5v319q0 33 -15.5 56t-46.5 36q-7 3 -12.5 6t-8.5 5q-5 4 -7 8.5t-2 10.5q0 13 11 18.5t36 5.5l153 1
q17 -1 23.5 -1.5t11.5 -2.5q1 0 1.5 -0.5l0.5 -0.5q8 -4 12.5 -9t4.5 -11q0 -5 -1 -8.5t-4 -6.5q-4 -3 -11.5 -7t-20.5 -10q-27 -12 -42 -36t-15 -55v-317q0 -89 -56.5 -145.5t-157.5 -69.5v0z" />
    <glyph glyph-name="v" unicode="v" horiz-adv-x="753" 
d="M506 171l-58 -171h-161l-216 584q-2 3 -3.5 6.5t-3.5 5.5q-3 5 -6.5 7.5t-10.5 4.5q-6 2 -10.5 4t-8.5 4q-7 4 -9.5 8.5t-2.5 11.5q0 15 14.5 22.5t44.5 7.5l271 1q24 -1 33 -2t14 -3q8 -3 13 -9.5t5 -14.5t-5 -14.5t-16 -10.5q-16 -6 -22 -13t-6 -19l3 -12l141 -398v0z
M530 241l-33 92l70 205l4 23q0 17 -9.5 29.5t-25.5 17.5l-19 6q-11 2 -17.5 9t-6.5 15q0 14 13.5 21t38.5 7l148 1q29 -1 40.5 -7t11.5 -20q0 -9 -4.5 -14t-17.5 -10l-31 -11q-1 -2 -2.5 -2.5t-3.5 -0.5q-17 -9 -33 -30t-26 -47l-97 -284v0z" />
    <glyph glyph-name="w" unicode="w" horiz-adv-x="1026" 
d="M475 237l-74 -237h-133l-195 574q-1 1 -1.5 2.5t-0.5 3.5q-6 15 -12 21t-18 9q-13 5 -19 11t-6 16q0 14 15 21.5t42 7.5l287 1q26 -1 37 -7t11 -20q0 -7 -4.5 -13.5t-15.5 -11.5q-8 -4 -13 -7t-8 -5q-5 -4 -6 -8t-1 -11l1 -10l114 -337v0zM532 667h126l148 -445l-71 -222
h-133l-142 429l72 238v0zM828 301l-32 99l45 144l5 27q0 13 -10 23.5t-33 19.5q-5 2 -8.5 4t-6.5 4q-7 4 -9.5 8.5t-2.5 11.5q0 13 10.5 18.5t31.5 5.5l145 1q26 -1 35.5 -6.5t9.5 -19.5q0 -7 -4.5 -12t-17.5 -10q-34 -13 -52 -32t-31 -54l-75 -232v0z" />
    <glyph glyph-name="x" unicode="x" horiz-adv-x="760" 
d="M382 581l308 -499l1.5 -3t1.5 -2q4 -8 9.5 -12t13.5 -7q1 -1 2 -1.5t2 -0.5q6 -3 10 -5.5t7 -4.5q6 -4 8 -8.5t2 -10.5q0 -15 -12.5 -21t-43.5 -6h-286q-21 0 -30 0.5t-16 2.5q-1 1 -2.5 1.5t-3.5 1.5q-5 4 -8.5 9.5t-3.5 11.5q0 3 1 6t4 6q2 2 6 5t10 6q5 3 8.5 5.5
t6.5 5.5q2 3 3.5 5.5t1.5 5.5q0 2 -2 7l-4 10q-1 2 -2.5 4t-2.5 4l-300 484q-7 12 -16 19t-23 12q-11 5 -16 11t-5 15q0 16 13 22t47 6l284 1q32 -1 45 -7.5t13 -20.5q0 -6 -2.5 -10.5t-8.5 -8.5q-1 -2 -3.5 -3t-5.5 -3q-4 -2 -6.5 -4t-4.5 -4t-3 -5t-1 -6q0 -4 1.5 -7.5
t2.5 -7.5v1zM232 238l33 -55l-38 -50q-12 -17 -16.5 -26t-4.5 -17q0 -13 8 -21.5t26 -13.5q3 -1 5 -2t5 -1q13 -5 17.5 -11t4.5 -14q0 -15 -12.5 -21t-41.5 -6h-156q-20 0 -31 6t-11 18q0 10 7 16t24 11q23 7 40.5 18.5t30.5 27.5l110 141v0zM520 446l-34 54l34 47
q5 4 6.5 10.5t1.5 13.5q0 13 -7.5 23t-20.5 15l-20 9q-5 1 -9 6t-5 10q-1 2 -1 3.5v2.5q0 12 10.5 19t26.5 7l178 1q17 -1 27.5 -7.5t10.5 -16.5q0 -6 -1.5 -10t-5.5 -7t-11 -6.5t-18 -8.5q-22 -10 -39.5 -23.5t-32.5 -31.5l-90 -110v0z" />
    <glyph glyph-name="y" unicode="y" horiz-adv-x="746" 
d="M502 306v-213q0 -19 5.5 -26t27.5 -12q3 -1 6 -1.5t7 -1.5q14 -2 21.5 -8.5t7.5 -17.5q0 -14 -12.5 -20t-41.5 -6h-20h-275h-20q-28 0 -40.5 6.5t-12.5 20.5q0 10 7.5 16.5t20.5 8.5q5 1 8.5 1.5t7.5 1.5q20 5 25.5 12t5.5 25v166l-173 329q-5 10 -11.5 16t-15.5 11
q-7 3 -11.5 5.5t-7.5 4.5q-5 4 -6.5 7.5t-1.5 9.5q0 13 11.5 19t35.5 6l300 1q25 -1 36.5 -7t11.5 -20q0 -7 -4.5 -13t-12.5 -11l-18 -8q-5 -3 -8 -7.5t-3 -9.5q0 -2 0.5 -5.5t1.5 -6.5q1 -1 1 -2t1 -2q0 -3 1 -4.5t1 -3.5l144 -261v0zM525 352l-35 64l63 115q3 4 5 9.5
t3 10.5t1.5 9t0.5 8q0 15 -9.5 25.5t-30.5 17.5q-7 2 -12.5 4t-9.5 4q-7 4 -10 8t-3 11q0 16 13 22t46 6l151 1q22 -1 32.5 -8t10.5 -21q0 -7 -2.5 -11.5t-10.5 -8.5q-3 -1 -6.5 -2.5t-8.5 -3.5q-27 -10 -44 -23.5t-29 -33.5l-14 -24l-101 -179v0z" />
    <glyph glyph-name="z" unicode="z" horiz-adv-x="653" 
d="M628 667v-56l-337 -611h-266v49l338 618h265v0zM628 0h-285l28 49q81 14 118 36.5t66 77.5q2 4 4 8.5t4 8.5q2 3 3 6t3 5q6 9 12 12.5t16 3.5q15 0 23 -8.5t8 -25.5v-173v0zM46 667h265l-31 -56q-63 -8 -108 -39.5t-62 -81.5q-5 -15 -12.5 -21t-21.5 -6q-15 0 -22.5 8
t-7.5 21v175v0z" />
    <glyph glyph-name="braceleft" unicode="{" horiz-adv-x="542" 
d="M237 262q56 -9 82 -19t41 -28q5 -7 8.5 -17t4.5 -24v-16.5v-32.5v-126q0 -40 17.5 -55t70.5 -24q22 -4 30.5 -10.5t8.5 -19.5q0 -20 -17.5 -27t-65.5 -7h-59q-58 0 -96.5 10t-58.5 30q-3 3 -5 5.5t-4 4.5q-14 19 -18 44.5t-4 87.5v75l-4 49q0 19 -2.5 29t-11.5 18
q-1 0 -2 1l-2 2t-2.5 2t-2.5 2q-11 8 -24.5 12t-35.5 5q-19 2 -28 8.5t-9 19.5q0 14 8.5 20.5t28.5 7.5q40 4 61 18t22 40v16l4 48v74q0 42 0.5 60.5t4.5 32.5q1 2 1.5 4.5t1.5 5.5q12 42 54 60t124 18l85 1q29 -1 43 -9t14 -25q0 -13 -8.5 -20t-30.5 -11q-11 -2 -18.5 -3
t-12.5 -2q-5 -2 -9 -3t-8 -3q-1 0 -2.5 -0.5t-2.5 -1.5q-13 -6 -21.5 -16t-9.5 -21l-2 -15l-2 -17v-121v-42.5t-2 -19.5v-1.5v-0.5q-6 -31 -34.5 -47t-99.5 -27v1z" />
    <glyph glyph-name="bar" unicode="|" horiz-adv-x="625" 
d="M245 666h136v-833h-136v833v0z" />
    <glyph glyph-name="braceright" unicode="}" horiz-adv-x="542" 
d="M305 261q-55 7 -81.5 17t-41.5 28q-5 8 -8.5 18t-5.5 23v17.5v31.5v128q0 39 -17 54.5t-70 23.5q-21 4 -30 11t-9 20q0 20 17.5 26.5t65.5 6.5l58 1q59 -1 97.5 -11t57.5 -30q3 -3 5 -5.5t4 -4.5q15 -19 19.5 -44.5t4.5 -88.5v-73l2 -49q1 -21 4 -31t11 -18q1 0 2 -1
l2 -2q1 0 1.5 -0.5t0.5 -1.5q12 -9 25.5 -13t37.5 -6q19 -1 27.5 -7.5t8.5 -20.5q0 -13 -8 -19.5t-28 -8.5q-40 -3 -61 -17.5t-23 -40.5v-13l-2 -49v-74q0 -43 -1 -61.5t-5 -32.5q0 -2 -1 -4.5t-2 -5.5q-12 -41 -54 -59.5t-125 -18.5h-85q-27 0 -41.5 8t-14.5 25q0 13 9 20
t30 11q10 2 17.5 3t12.5 2q7 2 11 3.5t8 3.5q1 0 1.5 0.5t1.5 0.5q14 6 22.5 16t9.5 21l2 16l1 17v121q0 29 0.5 40.5t2.5 19.5v1.5v0.5q5 32 34 47.5t100 26.5v1z" />
    <glyph glyph-name="asciitilde" unicode="~" horiz-adv-x="833" 
d="M628 734l32 -15q-14 -23 -31.5 -42.5t-38.5 -37.5q-3 -3 -6.5 -5.5t-6.5 -4.5q-19 -13 -39 -19t-46 -6q-16 0 -37 4t-53 13l-35 12q-7 1 -16 3l-18 4q-10 1 -19.5 2t-17.5 1q-14 0 -24.5 -2t-21.5 -7q-8 -4 -16.5 -10t-18.5 -15l-10 -8l-30 15q16 22 31 40t30 32
q24 21 48.5 31t52.5 10h2h2q17 0 37.5 -4t58.5 -15q37 -10 59.5 -15t38.5 -5q20 0 38 6.5t35 19.5l10 8t10 9v1z" />
    <glyph glyph-name="Adieresis" unicode="&#xc4;" horiz-adv-x="773" 
d="M252 542l31 -101l-108 -315q-1 -4 -2 -7.5t-1 -6.5q-1 -3 -1 -6.5v-6.5q0 -14 9 -25.5t27 -17.5l20 -7q10 -5 15.5 -11.5t5.5 -14.5q0 -11 -11.5 -17t-33.5 -6h-155q-21 0 -34.5 7t-13.5 19q0 8 6 14t21 11q38 14 56.5 32t31.5 56l137 403v0zM295 667h246l169 -574
q0 -2 0.5 -3.5t1.5 -2.5q5 -18 12 -25.5t22 -11.5q2 -1 3.5 -1.5t2.5 -0.5q12 -5 16.5 -10.5t4.5 -14.5q0 -11 -12 -17t-35 -6h-305q-18 0 -29 6.5t-11 18.5q0 6 1.5 10t6.5 7q3 2 7.5 4.5t11.5 5.5q1 1 2.5 1.5t2.5 0.5q10 5 13.5 10.5t3.5 14.5l-2 14l-20 71h-170l17 60
h137l-112 395l15 48v0zM295 850q38 -1 64.5 -21.5t26.5 -50.5q0 -29 -26.5 -50t-64.5 -21q-37 0 -64.5 21t-27.5 50q0 30 27.5 50.5t64.5 20.5v1zM527 850q38 -1 65.5 -21.5t27.5 -50.5q0 -29 -27.5 -50t-65.5 -21q-37 0 -64 21t-27 50q0 30 27 50.5t64 20.5v1z" />
    <glyph glyph-name="Aring" unicode="&#xc5;" horiz-adv-x="773" 
d="M252 542l31 -101l-108 -315q-1 -4 -2 -7.5t-1 -6.5q-1 -3 -1 -6.5v-6.5q0 -14 9 -25.5t27 -17.5l20 -7q10 -5 15.5 -11.5t5.5 -14.5q0 -11 -11.5 -17t-33.5 -6h-155q-21 0 -34.5 7t-13.5 19q0 8 6 14t21 11q38 14 56.5 32t31.5 56l137 403v0zM295 667h246l169 -574
q0 -2 0.5 -3.5t1.5 -2.5q5 -18 12 -25.5t22 -11.5q2 -1 3.5 -1.5t2.5 -0.5q12 -5 16.5 -10.5t4.5 -14.5q0 -11 -12 -17t-35 -6h-305q-18 0 -29 6.5t-11 18.5q0 6 1.5 10t6.5 7q3 2 7.5 4.5t11.5 5.5q1 1 2.5 1.5t2.5 0.5q10 5 13.5 10.5t3.5 14.5l-2 14l-20 71h-170l17 60
h137l-112 395l15 48v0zM390 697q-55 9 -85 37t-30 68q0 41 30 68.5t85 37.5v-63q-19 -8 -27 -18.5t-8 -24.5t8 -24t27 -18v-63v0zM435 909q54 -11 84.5 -38.5t30.5 -68.5q0 -40 -30.5 -68t-84.5 -38v65q19 7 27 17t8 24t-9 24t-26 18v65v0z" />
    <glyph glyph-name="Ccedilla" unicode="&#xc7;" horiz-adv-x="730" 
d="M367 -43q51 0 89.5 -36.5t38.5 -83.5q0 -45 -45 -77t-109 -32q-26 0 -40.5 7t-14.5 20q0 8 7 14t18 5h20q34 -1 55 11.5t21 32.5q0 16 -13 24.5t-42 11.5q-27 3 -41 16t-14 36q0 24 18.5 37.5t51.5 13.5v0zM386 680v-59q-36 -5 -53 -26.5t-17 -59.5v-403v-21
q2 -29 20 -46t50 -19v-59q-169 3 -265 92t-96 243q0 69 20 128t60 105q32 36 77.5 64.5t93.5 43.5q24 8 47 12t45 4l18 1v0zM436 -13v60q62 2 112.5 35t69.5 82q7 16 15 22.5t22 6.5t23.5 -8.5t9.5 -21.5q0 -14 -8 -31.5t-22 -35.5q-12 -15 -26 -29t-31 -26q-4 -3 -8.5 -6
t-8.5 -5q-34 -22 -69.5 -32t-78.5 -11v0zM436 621v58q3 -1 5.5 -1.5t5.5 -0.5q6 -1 11.5 -1.5t10.5 -1.5q14 -3 31 -7.5t51 -14.5q17 -5 25.5 -7t15.5 -2h2h2q7 1 13 4.5t9 8.5l8 13q4 4 11.5 7t15.5 3q17 0 25.5 -8t8.5 -23v-202q0 -18 -9 -28t-26 -10q-14 0 -23 8t-14 24
q-26 80 -72.5 126.5t-106.5 53.5v1z" />
    <glyph glyph-name="Eacute" unicode="&#xc9;" horiz-adv-x="733" 
d="M385 667v-667h-273h-16q-23 0 -34.5 6.5t-11.5 19.5q0 9 6 15.5t19 9.5q5 1 9.5 2.5l7.5 2.5q13 5 16.5 11t3.5 21v490q0 14 -3.5 20t-16.5 11l-7.5 2.5t-9.5 2.5q-13 3 -19 9.5t-6 15.5q0 14 12 20.5t34 6.5l16 1h273v0zM436 0v53q73 7 118.5 38t71.5 89q2 3 3.5 6
t3.5 6q5 8 11 11.5t16 3.5q19 0 25.5 -7.5t6.5 -28.5v-171h-256v0zM436 311v57q35 13 52 28.5t24 42.5q0 1 0.5 2.5t1.5 2.5q5 16 12 22t22 6q18 0 24 -8.5t6 -32.5v-185q0 -24 -6.5 -32.5t-23.5 -8.5q-13 0 -21 6.5t-14 22.5q-10 34 -28.5 52t-48.5 24v1zM436 667h247v-174
q0 -16 -6.5 -23t-23.5 -7q-13 0 -20 4.5t-12 17.5q-23 58 -68.5 87.5t-116.5 35.5v59v0zM547 825l-167 -104l-12 -7q-3 -3 -5.5 -4.5t-4.5 -1.5q-2 -1 -4.5 -1.5t-5.5 -0.5l-43 1q-7 -1 -12.5 1t-5.5 6l3 7l91 113q4 3 6.5 6t5.5 5q5 4 11 5t18 1l121 1q9 -1 14.5 -4t5.5 -8
v-2t-1 -2q-1 -2 -4.5 -5t-10.5 -7v1z" />
    <glyph glyph-name="Ntilde" unicode="&#xd1;" horiz-adv-x="838" 
d="M140 496l63 -87v-262q0 -35 14.5 -57t45.5 -36l18 -7q8 -5 12 -10.5t4 -12.5q0 -13 -12 -18.5t-40 -5.5h-140q-28 0 -41.5 6t-13.5 19q0 4 1 7t4 5q3 3 9.5 6.5t16.5 8.5q30 14 44.5 37t14.5 57v350v0zM395 667l325 -451v-216h-167l-413 571q-8 9 -14 16t-11 11
q-5 3 -9.5 5t-10.5 4l-23 8q-9 1 -14.5 7.5t-5.5 14.5q0 9 6.5 16.5t16.5 9.5q6 2 18 2.5t34 0.5l268 1v0zM720 294l-64 87v135q0 40 -15 62t-53 37q-2 1 -3.5 1.5t-2.5 1.5q-9 4 -12.5 9t-3.5 14q0 13 11 19t34 6l152 1q26 -1 38 -7.5t12 -20.5q0 -5 -1 -8.5t-5 -7.5
q-4 -3 -10 -6t-17 -7q-30 -13 -45 -36t-15 -59v-221v0zM346 851q2 -1 4 -1h5q17 -1 37.5 -7t53.5 -20q26 -11 49.5 -17t40.5 -6q12 0 20.5 6.5t13.5 21.5q4 11 8.5 15t11.5 4q15 0 21 -5.5t6 -19.5q0 -8 -2 -17t-5 -19q-4 -10 -9 -19t-11 -17q-17 -22 -42 -33t-55 -11h-6.5
h-6.5q-16 2 -33.5 6.5t-43.5 14.5l-41 17q-22 7 -35 10.5t-22 3.5q-13 0 -22 -6.5t-15 -20.5q-2 -4 -3.5 -7.5t-3.5 -5.5q-3 -4 -6 -5.5t-7 -1.5q-13 0 -20 6.5t-7 18.5q0 8 2.5 17.5t6.5 18.5q5 12 11.5 22.5t14.5 19.5q17 18 40 27t50 9v1z" />
    <glyph glyph-name="Odieresis" unicode="&#xd6;" horiz-adv-x="792" 
d="M371 627q-31 -9 -43.5 -24.5t-12.5 -44.5v-436q0 -41 12 -58t44 -24v-53q-160 10 -253 103.5t-93 241.5q0 149 96 245t250 102v-52v0zM421 627v53q155 -7 250.5 -103t95.5 -245q0 -148 -93.5 -241.5t-252.5 -103.5v54q31 5 43.5 24t12.5 56v438q0 28 -12.5 43.5
t-43.5 23.5v1zM280 850q38 -1 64.5 -21.5t26.5 -50.5q0 -29 -26.5 -50t-64.5 -21q-37 0 -64.5 21t-27.5 50q0 30 27.5 50.5t64.5 20.5v1zM512 850q38 -1 65.5 -21.5t27.5 -50.5q0 -29 -27.5 -50t-65.5 -21q-37 0 -64 21t-27 50q0 30 27 50.5t64 20.5v1z" />
    <glyph glyph-name="Udieresis" unicode="&#xdc;" horiz-adv-x="846" 
d="M448 51v-64h-18q-53 0 -91.5 4.5t-73.5 13.5q-8 3 -16 5.5t-16 5.5q-73 28 -102 67.5t-29 110.5v384q0 14 -3.5 20t-16.5 11l-7.5 2.5t-9.5 2.5q-13 3 -19 9.5t-6 15.5q0 13 11.5 20t33.5 7l17 1h273h16q23 -1 34.5 -7.5t11.5 -20.5q0 -9 -6.5 -15.5t-18.5 -9.5
q-5 -1 -9.5 -2.5t-8.5 -2.5q-13 -5 -16 -11t-3 -21v-409q0 -38 2 -54t8 -28l0.5 -0.5l0.5 -0.5q8 -16 21 -23t41 -12v1zM497 -13v64q70 7 108 46.5t38 103.5v319q0 33 -15.5 56t-46.5 36q-7 3 -12.5 6t-8.5 5q-5 4 -7 8.5t-2 10.5q0 13 11 18.5t36 5.5l153 1
q17 -1 23.5 -1.5t11.5 -2.5q1 0 1.5 -0.5l0.5 -0.5q8 -4 12.5 -9t4.5 -11q0 -5 -1 -8.5t-4 -6.5q-4 -3 -11.5 -7t-20.5 -10q-27 -12 -42 -36t-15 -55v-317q0 -89 -56.5 -145.5t-157.5 -69.5v0zM307 850q38 -1 64.5 -21.5t26.5 -50.5q0 -29 -26.5 -50t-64.5 -21q-37 0 -64 21
t-27 50q0 30 27 50.5t64 20.5v1zM540 850q38 -1 65 -21.5t27 -50.5q0 -29 -27 -50t-65 -21q-37 0 -64.5 21t-27.5 50q0 30 27.5 50.5t64.5 20.5v1z" />
    <glyph glyph-name="aacute" unicode="&#xe1;" horiz-adv-x="773" 
d="M252 542l31 -101l-108 -315q-1 -4 -2 -7.5t-1 -6.5q-1 -3 -1 -6.5v-6.5q0 -14 9 -25.5t27 -17.5l20 -7q10 -5 15.5 -11.5t5.5 -14.5q0 -11 -11.5 -17t-33.5 -6h-155q-21 0 -34.5 7t-13.5 19q0 8 6 14t21 11q38 14 56.5 32t31.5 56l137 403v0zM295 667h246l169 -574
q0 -2 0.5 -3.5t1.5 -2.5q5 -18 12 -25.5t22 -11.5q2 -1 3.5 -1.5t2.5 -0.5q12 -5 16.5 -10.5t4.5 -14.5q0 -11 -12 -17t-35 -6h-305q-18 0 -29 6.5t-11 18.5q0 6 1.5 10t6.5 7q3 2 7.5 4.5t11.5 5.5q1 1 2.5 1.5t2.5 0.5q10 5 13.5 10.5t3.5 14.5l-2 14l-20 71h-170l17 60
h137l-112 395l15 48v0zM567 825l-167 -104l-12 -7q-3 -3 -5.5 -4.5t-4.5 -1.5q-2 -1 -4.5 -1.5t-5.5 -0.5l-43 1q-7 -1 -12.5 1t-5.5 6l3 7l91 113q4 3 6.5 6t5.5 5q5 4 11 5t18 1l121 1q9 -1 14.5 -4t5.5 -8v-2t-1 -2q-1 -2 -4.5 -5t-10.5 -7v1z" />
    <glyph glyph-name="agrave" unicode="&#xe0;" horiz-adv-x="773" 
d="M252 542l31 -101l-108 -315q-1 -4 -2 -7.5t-1 -6.5q-1 -3 -1 -6.5v-6.5q0 -14 9 -25.5t27 -17.5l20 -7q10 -5 15.5 -11.5t5.5 -14.5q0 -11 -11.5 -17t-33.5 -6h-155q-21 0 -34.5 7t-13.5 19q0 8 6 14t21 11q38 14 56.5 32t31.5 56l137 403v0zM295 667h246l169 -574
q0 -2 0.5 -3.5t1.5 -2.5q5 -18 12 -25.5t22 -11.5q2 -1 3.5 -1.5t2.5 -0.5q12 -5 16.5 -10.5t4.5 -14.5q0 -11 -12 -17t-35 -6h-305q-18 0 -29 6.5t-11 18.5q0 6 1.5 10t6.5 7q3 2 7.5 4.5t11.5 5.5q1 1 2.5 1.5t2.5 0.5q10 5 13.5 10.5t3.5 14.5l-2 14l-20 71h-170l17 60
h137l-112 395l15 48v0zM230 852h122q12 -1 18.5 -2t12.5 -6l4.5 -4.5t5.5 -6.5l92 -112l2 -6q0 -5 -4.5 -7t-12.5 -2l-45 1q-2 -1 -3.5 -1t-3.5 1q-3 1 -5.5 2.5t-6.5 3.5l-11 8l-169 104q-7 4 -10.5 7t-4.5 5v1.5v0.5q0 5 6 8.5t13 3.5v1z" />
    <glyph glyph-name="acircumflex" unicode="&#xe2;" horiz-adv-x="773" 
d="M252 542l31 -101l-108 -315q-1 -4 -2 -7.5t-1 -6.5q-1 -3 -1 -6.5v-6.5q0 -14 9 -25.5t27 -17.5l20 -7q10 -5 15.5 -11.5t5.5 -14.5q0 -11 -11.5 -17t-33.5 -6h-155q-21 0 -34.5 7t-13.5 19q0 8 6 14t21 11q38 14 56.5 32t31.5 56l137 403v0zM295 667h246l169 -574
q0 -2 0.5 -3.5t1.5 -2.5q5 -18 12 -25.5t22 -11.5q2 -1 3.5 -1.5t2.5 -0.5q12 -5 16.5 -10.5t4.5 -14.5q0 -11 -12 -17t-35 -6h-305q-18 0 -29 6.5t-11 18.5q0 6 1.5 10t6.5 7q3 2 7.5 4.5t11.5 5.5q1 1 2.5 1.5t2.5 0.5q10 5 13.5 10.5t3.5 14.5l-2 14l-20 71h-170l17 60
h137l-112 395l15 48v0zM405 760l-30 -38l-7 -9q0 -1 -0.5 -1.5l-0.5 -0.5q-4 -3 -10 -4t-20 -1l-86 1q-15 -1 -22 1.5t-7 8.5q0 1 0.5 2t0.5 3q1 2 3.5 4.5l5.5 5.5l119 100q9 7 16 11t13 6q3 0 5.5 0.5t5.5 0.5l31 1q5 -1 10.5 -2.5t11.5 -3.5t11.5 -5.5t10.5 -8.5l121 -98
l9 -8l4 -8q0 -7 -4.5 -9t-17.5 -2l-100 1q-19 -1 -29 2.5t-16 11.5l-28 39v0z" />
    <glyph glyph-name="adieresis" unicode="&#xe4;" horiz-adv-x="773" 
d="M252 542l31 -101l-108 -315q-1 -4 -2 -7.5t-1 -6.5q-1 -3 -1 -6.5v-6.5q0 -14 9 -25.5t27 -17.5l20 -7q10 -5 15.5 -11.5t5.5 -14.5q0 -11 -11.5 -17t-33.5 -6h-155q-21 0 -34.5 7t-13.5 19q0 8 6 14t21 11q38 14 56.5 32t31.5 56l137 403v0zM295 667h246l169 -574
q0 -2 0.5 -3.5t1.5 -2.5q5 -18 12 -25.5t22 -11.5q2 -1 3.5 -1.5t2.5 -0.5q12 -5 16.5 -10.5t4.5 -14.5q0 -11 -12 -17t-35 -6h-305q-18 0 -29 6.5t-11 18.5q0 6 1.5 10t6.5 7q3 2 7.5 4.5t11.5 5.5q1 1 2.5 1.5t2.5 0.5q10 5 13.5 10.5t3.5 14.5l-2 14l-20 71h-170l17 60
h137l-112 395l15 48v0zM295 850q38 -1 64.5 -21.5t26.5 -50.5q0 -29 -26.5 -50t-64.5 -21q-37 0 -64.5 21t-27.5 50q0 30 27.5 50.5t64.5 20.5v1zM527 850q38 -1 65.5 -21.5t27.5 -50.5q0 -29 -27.5 -50t-65.5 -21q-37 0 -64 21t-27 50q0 30 27 50.5t64 20.5v1z" />
    <glyph glyph-name="atilde" unicode="&#xe3;" horiz-adv-x="773" 
d="M252 542l31 -101l-108 -315q-1 -4 -2 -7.5t-1 -6.5q-1 -3 -1 -6.5v-6.5q0 -14 9 -25.5t27 -17.5l20 -7q10 -5 15.5 -11.5t5.5 -14.5q0 -11 -11.5 -17t-33.5 -6h-155q-21 0 -34.5 7t-13.5 19q0 8 6 14t21 11q38 14 56.5 32t31.5 56l137 403v0zM295 667h246l169 -574
q0 -2 0.5 -3.5t1.5 -2.5q5 -18 12 -25.5t22 -11.5q2 -1 3.5 -1.5t2.5 -0.5q12 -5 16.5 -10.5t4.5 -14.5q0 -11 -12 -17t-35 -6h-305q-18 0 -29 6.5t-11 18.5q0 6 1.5 10t6.5 7q3 2 7.5 4.5t11.5 5.5q1 1 2.5 1.5t2.5 0.5q10 5 13.5 10.5t3.5 14.5l-2 14l-20 71h-170l17 60
h137l-112 395l15 48v0zM335 851q2 -1 4 -1h5q17 -1 37.5 -7t53.5 -20q26 -11 49.5 -17t40.5 -6q12 0 20.5 6.5t12.5 21.5q4 11 8.5 15t11.5 4q15 0 21.5 -5.5t6.5 -19.5q0 -8 -2 -17t-6 -19q-3 -10 -8.5 -19t-11.5 -17q-16 -22 -41 -33t-55 -11h-5.5h-5.5q-16 1 -34.5 6
t-44.5 15l-41 17q-22 7 -35 10.5t-23 3.5q-12 0 -21 -6.5t-15 -20.5q-2 -4 -3.5 -7.5t-3.5 -5.5q-3 -4 -6 -5.5t-7 -1.5q-13 0 -20 6.5t-7 18.5q0 8 2.5 17.5t6.5 18.5q5 12 11.5 22.5t14.5 19.5q17 18 39.5 27t50.5 9v1z" />
    <glyph glyph-name="aring" unicode="&#xe5;" horiz-adv-x="773" 
d="M252 542l31 -101l-108 -315q-1 -4 -2 -7.5t-1 -6.5q-1 -3 -1 -6.5v-6.5q0 -14 9 -25.5t27 -17.5l20 -7q10 -5 15.5 -11.5t5.5 -14.5q0 -11 -11.5 -17t-33.5 -6h-155q-21 0 -34.5 7t-13.5 19q0 8 6 14t21 11q38 14 56.5 32t31.5 56l137 403v0zM295 667h246l169 -574
q0 -2 0.5 -3.5t1.5 -2.5q5 -18 12 -25.5t22 -11.5q2 -1 3.5 -1.5t2.5 -0.5q12 -5 16.5 -10.5t4.5 -14.5q0 -11 -12 -17t-35 -6h-305q-18 0 -29 6.5t-11 18.5q0 6 1.5 10t6.5 7q3 2 7.5 4.5t11.5 5.5q1 1 2.5 1.5t2.5 0.5q10 5 13.5 10.5t3.5 14.5l-2 14l-20 71h-170l17 60
h137l-112 395l15 48v0zM390 697q-55 9 -85 37t-30 68q0 41 30 68.5t85 37.5v-63q-19 -8 -27 -18.5t-8 -24.5t8 -24t27 -18v-63v0zM435 909q54 -11 84.5 -38.5t30.5 -68.5q0 -40 -30.5 -68t-84.5 -38v65q19 7 27 17t8 24t-9 24t-26 18v65v0z" />
    <glyph glyph-name="ccedilla" unicode="&#xe7;" horiz-adv-x="730" 
d="M367 -43q51 0 89.5 -36.5t38.5 -83.5q0 -45 -45 -77t-109 -32q-26 0 -40.5 7t-14.5 20q0 8 7 14t18 5h20q34 -1 55 11.5t21 32.5q0 16 -13 24.5t-42 11.5q-27 3 -41 16t-14 36q0 24 18.5 37.5t51.5 13.5v0zM386 680v-59q-36 -5 -53 -26.5t-17 -59.5v-403v-21
q2 -29 20 -46t50 -19v-59q-169 3 -265 92t-96 243q0 69 20 128t60 105q32 36 77.5 64.5t93.5 43.5q24 8 47 12t45 4l18 1v0zM436 -13v60q62 2 112.5 35t69.5 82q7 16 15 22.5t22 6.5t23.5 -8.5t9.5 -21.5q0 -14 -8 -31.5t-22 -35.5q-12 -15 -26 -29t-31 -26q-4 -3 -8.5 -6
t-8.5 -5q-34 -22 -69.5 -32t-78.5 -11v0zM436 621v58q3 -1 5.5 -1.5t5.5 -0.5q6 -1 11.5 -1.5t10.5 -1.5q14 -3 31 -7.5t51 -14.5q17 -5 25.5 -7t15.5 -2h2h2q7 1 13 4.5t9 8.5l8 13q4 4 11.5 7t15.5 3q17 0 25.5 -8t8.5 -23v-202q0 -18 -9 -28t-26 -10q-14 0 -23 8t-14 24
q-26 80 -72.5 126.5t-106.5 53.5v1z" />
    <glyph glyph-name="eacute" unicode="&#xe9;" horiz-adv-x="733" 
d="M385 667v-667h-273h-16q-23 0 -34.5 6.5t-11.5 19.5q0 9 6 15.5t19 9.5q5 1 9.5 2.5l7.5 2.5q13 5 16.5 11t3.5 21v490q0 14 -3.5 20t-16.5 11l-7.5 2.5t-9.5 2.5q-13 3 -19 9.5t-6 15.5q0 14 12 20.5t34 6.5l16 1h273v0zM436 0v53q73 7 118.5 38t71.5 89q2 3 3.5 6
t3.5 6q5 8 11 11.5t16 3.5q19 0 25.5 -7.5t6.5 -28.5v-171h-256v0zM436 311v57q35 13 52 28.5t24 42.5q0 1 0.5 2.5t1.5 2.5q5 16 12 22t22 6q18 0 24 -8.5t6 -32.5v-185q0 -24 -6.5 -32.5t-23.5 -8.5q-13 0 -21 6.5t-14 22.5q-10 34 -28.5 52t-48.5 24v1zM436 667h247v-174
q0 -16 -6.5 -23t-23.5 -7q-13 0 -20 4.5t-12 17.5q-23 58 -68.5 87.5t-116.5 35.5v59v0zM547 825l-167 -104l-12 -7q-3 -3 -5.5 -4.5t-4.5 -1.5q-2 -1 -4.5 -1.5t-5.5 -0.5l-43 1q-7 -1 -12.5 1t-5.5 6l3 7l91 113q4 3 6.5 6t5.5 5q5 4 11 5t18 1l121 1q9 -1 14.5 -4t5.5 -8
v-2t-1 -2q-1 -2 -4.5 -5t-10.5 -7v1z" />
    <glyph glyph-name="egrave" unicode="&#xe8;" horiz-adv-x="733" 
d="M385 667v-667h-273h-16q-23 0 -34.5 6.5t-11.5 19.5q0 9 6 15.5t19 9.5q5 1 9.5 2.5l7.5 2.5q13 5 16.5 11t3.5 21v490q0 14 -3.5 20t-16.5 11l-7.5 2.5t-9.5 2.5q-13 3 -19 9.5t-6 15.5q0 14 12 20.5t34 6.5l16 1h273v0zM436 0v53q73 7 118.5 38t71.5 89q2 3 3.5 6
t3.5 6q5 8 11 11.5t16 3.5q19 0 25.5 -7.5t6.5 -28.5v-171h-256v0zM436 311v57q35 13 52 28.5t24 42.5q0 1 0.5 2.5t1.5 2.5q5 16 12 22t22 6q18 0 24 -8.5t6 -32.5v-185q0 -24 -6.5 -32.5t-23.5 -8.5q-13 0 -21 6.5t-14 22.5q-10 34 -28.5 52t-48.5 24v1zM436 667h247v-174
q0 -16 -6.5 -23t-23.5 -7q-13 0 -20 4.5t-12 17.5q-23 58 -68.5 87.5t-116.5 35.5v59v0zM210 852h122q12 -1 18.5 -2t12.5 -6l4.5 -4.5t5.5 -6.5l92 -112l2 -6q0 -5 -4.5 -7t-12.5 -2l-45 1q-2 -1 -3.5 -1t-3.5 1q-3 1 -5.5 2.5t-6.5 3.5l-11 8l-169 104q-7 4 -10.5 7
t-4.5 5v1.5v0.5q0 5 6 8.5t13 3.5v1z" />
    <glyph glyph-name="ecircumflex" unicode="&#xea;" horiz-adv-x="733" 
d="M385 667v-667h-273h-16q-23 0 -34.5 6.5t-11.5 19.5q0 9 6 15.5t19 9.5q5 1 9.5 2.5l7.5 2.5q13 5 16.5 11t3.5 21v490q0 14 -3.5 20t-16.5 11l-7.5 2.5t-9.5 2.5q-13 3 -19 9.5t-6 15.5q0 14 12 20.5t34 6.5l16 1h273v0zM436 0v53q73 7 118.5 38t71.5 89q2 3 3.5 6
t3.5 6q5 8 11 11.5t16 3.5q19 0 25.5 -7.5t6.5 -28.5v-171h-256v0zM436 311v57q35 13 52 28.5t24 42.5q0 1 0.5 2.5t1.5 2.5q5 16 12 22t22 6q18 0 24 -8.5t6 -32.5v-185q0 -24 -6.5 -32.5t-23.5 -8.5q-13 0 -21 6.5t-14 22.5q-10 34 -28.5 52t-48.5 24v1zM436 667h247v-174
q0 -16 -6.5 -23t-23.5 -7q-13 0 -20 4.5t-12 17.5q-23 58 -68.5 87.5t-116.5 35.5v59v0zM360 760l-30 -38l-7 -9q0 -1 -0.5 -1.5l-0.5 -0.5q-4 -3 -10 -4t-20 -1l-86 1q-15 -1 -22 1.5t-7 8.5q0 1 0.5 2t0.5 3q1 2 3.5 4.5l5.5 5.5l119 100q9 7 16 11t13 6q3 0 5.5 0.5
t5.5 0.5l31 1q5 -1 10.5 -2.5t11.5 -3.5t11.5 -5.5t10.5 -8.5l121 -98l9 -8l4 -8q0 -7 -4.5 -9t-17.5 -2l-100 1q-19 -1 -29 2.5t-16 11.5l-28 39v0z" />
    <glyph glyph-name="edieresis" unicode="&#xeb;" horiz-adv-x="733" 
d="M385 667v-667h-273h-16q-23 0 -34.5 6.5t-11.5 19.5q0 9 6 15.5t19 9.5q5 1 9.5 2.5l7.5 2.5q13 5 16.5 11t3.5 21v490q0 14 -3.5 20t-16.5 11l-7.5 2.5t-9.5 2.5q-13 3 -19 9.5t-6 15.5q0 14 12 20.5t34 6.5l16 1h273v0zM436 0v53q73 7 118.5 38t71.5 89q2 3 3.5 6
t3.5 6q5 8 11 11.5t16 3.5q19 0 25.5 -7.5t6.5 -28.5v-171h-256v0zM436 311v57q35 13 52 28.5t24 42.5q0 1 0.5 2.5t1.5 2.5q5 16 12 22t22 6q18 0 24 -8.5t6 -32.5v-185q0 -24 -6.5 -32.5t-23.5 -8.5q-13 0 -21 6.5t-14 22.5q-10 34 -28.5 52t-48.5 24v1zM436 667h247v-174
q0 -16 -6.5 -23t-23.5 -7q-13 0 -20 4.5t-12 17.5q-23 58 -68.5 87.5t-116.5 35.5v59v0zM250 850q38 -1 64.5 -21.5t26.5 -50.5q0 -29 -26.5 -50t-64.5 -21q-37 0 -64.5 21t-27.5 50q0 30 27.5 50.5t64.5 20.5v1zM482 850q38 -1 65.5 -21.5t27.5 -50.5q0 -29 -27.5 -50
t-65.5 -21q-37 0 -64 21t-27 50q0 30 27 50.5t64 20.5v1z" />
    <glyph glyph-name="iacute" unicode="&#xed;" horiz-adv-x="497" 
d="M385 0h-273h-16q-23 0 -34.5 6.5t-11.5 19.5q0 9 6 15.5t19 9.5q5 1 9.5 2.5l7.5 2.5q13 5 16.5 11t3.5 21v490q0 14 -3.5 20t-16.5 11l-7.5 2.5t-9.5 2.5q-13 3 -19 9.5t-6 15.5q0 14 12 20.5t34 6.5l16 1h273h16q23 -2 34.5 -8t11.5 -20q0 -9 -6.5 -15.5t-18.5 -9.5
q-5 -1 -9.5 -2.5t-8.5 -2.5q-13 -5 -16 -11t-3 -21v-488q0 -16 3 -22t16 -11q4 -1 8.5 -2.5t9.5 -2.5q12 -3 18.5 -9.5t6.5 -15.5q0 -13 -11.5 -19.5t-34.5 -6.5h-16v0zM428 825l-167 -104l-11 -7q-4 -3 -7 -4.5t-6 -2.5q-2 -1 -3.5 -1h-3.5l-44 1q-7 -1 -12.5 1t-5.5 6l3 7
l91 113q4 3 6.5 6t5.5 5q5 4 11.5 5t17.5 1l122 1q8 -1 14 -4t6 -8q0 -1 -0.5 -2t-0.5 -2q-2 -2 -5.5 -5t-10.5 -7v1z" />
    <glyph glyph-name="igrave" unicode="&#xec;" horiz-adv-x="497" 
d="M385 0h-273h-16q-23 0 -34.5 6.5t-11.5 19.5q0 9 6 15.5t19 9.5q5 1 9.5 2.5l7.5 2.5q13 5 16.5 11t3.5 21v490q0 14 -3.5 20t-16.5 11l-7.5 2.5t-9.5 2.5q-13 3 -19 9.5t-6 15.5q0 14 12 20.5t34 6.5l16 1h273h16q23 -2 34.5 -8t11.5 -20q0 -9 -6.5 -15.5t-18.5 -9.5
q-5 -1 -9.5 -2.5t-8.5 -2.5q-13 -5 -16 -11t-3 -21v-488q0 -16 3 -22t16 -11q4 -1 8.5 -2.5t9.5 -2.5q12 -3 18.5 -9.5t6.5 -15.5q0 -13 -11.5 -19.5t-34.5 -6.5h-16v0zM71 852h122q12 -1 18.5 -2t11.5 -5q3 -2 6 -5t6 -7l91 -112l2 -6q0 -5 -4.5 -7t-12.5 -2l-45 1
q-1 -1 -2.5 -1t-2.5 1q-3 0 -6 1.5t-8 4.5l-11 8l-169 104q-7 4 -10.5 7t-4.5 5v1.5v0.5q0 5 6 8.5t13 3.5v1z" />
    <glyph glyph-name="icircumflex" unicode="&#xee;" horiz-adv-x="497" 
d="M385 0h-273h-16q-23 0 -34.5 6.5t-11.5 19.5q0 9 6 15.5t19 9.5q5 1 9.5 2.5l7.5 2.5q13 5 16.5 11t3.5 21v490q0 14 -3.5 20t-16.5 11l-7.5 2.5t-9.5 2.5q-13 3 -19 9.5t-6 15.5q0 14 12 20.5t34 6.5l16 1h273h16q23 -2 34.5 -8t11.5 -20q0 -9 -6.5 -15.5t-18.5 -9.5
q-5 -1 -9.5 -2.5t-8.5 -2.5q-13 -5 -16 -11t-3 -21v-488q0 -16 3 -22t16 -11q4 -1 8.5 -2.5t9.5 -2.5q12 -3 18.5 -9.5t6.5 -15.5q0 -13 -11.5 -19.5t-34.5 -6.5h-16v0zM242 760l-30 -38l-6 -9q0 -1 -0.5 -1.5l-0.5 -0.5q-4 -3 -10 -4t-20 -1l-87 1q-15 -1 -21.5 1.5
t-6.5 8.5v2t1 3t3 4.5t6 5.5l118 100q11 8 19 12.5t16 5.5h2.5h2.5l32 1q5 -1 10.5 -2.5t11.5 -3.5q5 -2 10.5 -5.5t10.5 -8.5l122 -98l8 -8l4 -8q0 -7 -4.5 -9t-16.5 -2l-100 1q-19 -1 -29.5 2.5t-15.5 11.5l-29 39v0z" />
    <glyph glyph-name="idieresis" unicode="&#xef;" horiz-adv-x="497" 
d="M385 0h-273h-16q-23 0 -34.5 6.5t-11.5 19.5q0 9 6 15.5t19 9.5q5 1 9.5 2.5l7.5 2.5q13 5 16.5 11t3.5 21v490q0 14 -3.5 20t-16.5 11l-7.5 2.5t-9.5 2.5q-13 3 -19 9.5t-6 15.5q0 14 12 20.5t34 6.5l16 1h273h16q23 -2 34.5 -8t11.5 -20q0 -9 -6.5 -15.5t-18.5 -9.5
q-5 -1 -9.5 -2.5t-8.5 -2.5q-13 -5 -16 -11t-3 -21v-488q0 -16 3 -22t16 -11q4 -1 8.5 -2.5t9.5 -2.5q12 -3 18.5 -9.5t6.5 -15.5q0 -13 -11.5 -19.5t-34.5 -6.5h-16v0zM132 850q38 -1 64.5 -21.5t26.5 -50.5q0 -29 -26.5 -50t-64.5 -21q-37 0 -64 21t-27 50q0 30 27 50.5
t64 20.5v1zM365 850q38 -1 65 -21.5t27 -50.5q0 -29 -27 -50t-65 -21q-37 0 -64.5 21t-27.5 50q0 30 27.5 50.5t64.5 20.5v1z" />
    <glyph glyph-name="ntilde" unicode="&#xf1;" horiz-adv-x="838" 
d="M140 496l63 -87v-262q0 -35 14.5 -57t45.5 -36l18 -7q8 -5 12 -10.5t4 -12.5q0 -13 -12 -18.5t-40 -5.5h-140q-28 0 -41.5 6t-13.5 19q0 4 1 7t4 5q3 3 9.5 6.5t16.5 8.5q30 14 44.5 37t14.5 57v350v0zM395 667l325 -451v-216h-167l-413 571q-8 9 -14 16t-11 11
q-5 3 -9.5 5t-10.5 4l-23 8q-9 1 -14.5 7.5t-5.5 14.5q0 9 6.5 16.5t16.5 9.5q6 2 18 2.5t34 0.5l268 1v0zM720 294l-64 87v135q0 40 -15 62t-53 37q-2 1 -3.5 1.5t-2.5 1.5q-9 4 -12.5 9t-3.5 14q0 13 11 19t34 6l152 1q26 -1 38 -7.5t12 -20.5q0 -5 -1 -8.5t-5 -7.5
q-4 -3 -10 -6t-17 -7q-30 -13 -45 -36t-15 -59v-221v0zM346 851q2 -1 4 -1h5q17 -1 37.5 -7t53.5 -20q26 -11 49.5 -17t40.5 -6q12 0 20.5 6.5t13.5 21.5q4 11 8.5 15t11.5 4q15 0 21 -5.5t6 -19.5q0 -8 -2 -17t-5 -19q-4 -10 -9 -19t-11 -17q-17 -22 -42 -33t-55 -11h-6.5
h-6.5q-16 2 -33.5 6.5t-43.5 14.5l-41 17q-22 7 -35 10.5t-22 3.5q-13 0 -22 -6.5t-15 -20.5q-2 -4 -3.5 -7.5t-3.5 -5.5q-3 -4 -6 -5.5t-7 -1.5q-13 0 -20 6.5t-7 18.5q0 8 2.5 17.5t6.5 18.5q5 12 11.5 22.5t14.5 19.5q17 18 40 27t50 9v1z" />
    <glyph glyph-name="oacute" unicode="&#xf3;" horiz-adv-x="792" 
d="M371 627q-31 -9 -43.5 -24.5t-12.5 -44.5v-436q0 -41 12 -58t44 -24v-53q-160 10 -253 103.5t-93 241.5q0 149 96 245t250 102v-52v0zM421 627v53q155 -7 250.5 -103t95.5 -245q0 -148 -93.5 -241.5t-252.5 -103.5v54q31 5 43.5 24t12.5 56v438q0 28 -12.5 43.5
t-43.5 23.5v1zM576 825l-168 -104l-11 -7q-4 -3 -6.5 -4.5t-4.5 -2.5q-2 0 -4 -0.5t-5 -0.5l-44 1q-7 -1 -12 1t-5 6l2 7l92 113l5.5 5.5l4.5 4.5q6 5 12.5 6t18.5 1l121 1q8 -1 14 -4t6 -8q0 -1 -0.5 -2t-0.5 -2q-1 -2 -5 -5t-10 -7v1z" />
    <glyph glyph-name="ograve" unicode="&#xf2;" horiz-adv-x="792" 
d="M371 627q-31 -9 -43.5 -24.5t-12.5 -44.5v-436q0 -41 12 -58t44 -24v-53q-160 10 -253 103.5t-93 241.5q0 149 96 245t250 102v-52v0zM421 627v53q155 -7 250.5 -103t95.5 -245q0 -148 -93.5 -241.5t-252.5 -103.5v54q31 5 43.5 24t12.5 56v438q0 28 -12.5 43.5
t-43.5 23.5v1zM218 852h123q12 -1 18 -2t11 -5q3 -2 5.5 -5t6.5 -7l91 -112l3 -6q0 -5 -5 -7t-13 -2l-45 1q-1 -1 -2.5 -1t-3.5 1q-2 0 -5 2t-7 4l-12 8l-168 104q-7 4 -10.5 7t-4.5 5v1.5v0.5q0 5 5.5 8.5t12.5 3.5v1z" />
    <glyph glyph-name="ocircumflex" unicode="&#xf4;" horiz-adv-x="792" 
d="M371 627q-31 -9 -43.5 -24.5t-12.5 -44.5v-436q0 -41 12 -58t44 -24v-53q-160 10 -253 103.5t-93 241.5q0 149 96 245t250 102v-52v0zM421 627v53q155 -7 250.5 -103t95.5 -245q0 -148 -93.5 -241.5t-252.5 -103.5v54q31 5 43.5 24t12.5 56v438q0 28 -12.5 43.5
t-43.5 23.5v1zM390 760l-30 -38l-7 -9q0 -1 -0.5 -1.5l-0.5 -0.5q-4 -3 -10 -4t-20 -1l-86 1q-15 -1 -22 1.5t-7 8.5q0 1 0.5 2t0.5 3q1 2 3.5 4.5l5.5 5.5l119 100q9 7 16 11t13 6q3 0 5.5 0.5t5.5 0.5l31 1q5 -1 10.5 -2.5t11.5 -3.5t11.5 -5.5t10.5 -8.5l121 -98l9 -8
l4 -8q0 -7 -4.5 -9t-17.5 -2l-100 1q-19 -1 -29 2.5t-16 11.5l-28 39v0z" />
    <glyph glyph-name="odieresis" unicode="&#xf6;" horiz-adv-x="792" 
d="M371 627q-31 -9 -43.5 -24.5t-12.5 -44.5v-436q0 -41 12 -58t44 -24v-53q-160 10 -253 103.5t-93 241.5q0 149 96 245t250 102v-52v0zM421 627v53q155 -7 250.5 -103t95.5 -245q0 -148 -93.5 -241.5t-252.5 -103.5v54q31 5 43.5 24t12.5 56v438q0 28 -12.5 43.5
t-43.5 23.5v1zM280 850q38 -1 64.5 -21.5t26.5 -50.5q0 -29 -26.5 -50t-64.5 -21q-37 0 -64.5 21t-27.5 50q0 30 27.5 50.5t64.5 20.5v1zM512 850q38 -1 65.5 -21.5t27.5 -50.5q0 -29 -27.5 -50t-65.5 -21q-37 0 -64 21t-27 50q0 30 27 50.5t64 20.5v1z" />
    <glyph glyph-name="otilde" unicode="&#xf5;" horiz-adv-x="792" 
d="M371 627q-31 -9 -43.5 -24.5t-12.5 -44.5v-436q0 -41 12 -58t44 -24v-53q-160 10 -253 103.5t-93 241.5q0 149 96 245t250 102v-52v0zM421 627v53q155 -7 250.5 -103t95.5 -245q0 -148 -93.5 -241.5t-252.5 -103.5v54q31 5 43.5 24t12.5 56v438q0 28 -12.5 43.5
t-43.5 23.5v1zM323 851q3 -1 6 -1h6q17 -2 37 -7.5t51 -19.5q26 -11 50 -17t40 -6q13 0 21.5 6.5t12.5 21.5q4 11 8.5 15t11.5 4q15 0 21.5 -5.5t6.5 -19.5q0 -8 -2 -17t-6 -19t-9 -19t-11 -17q-16 -22 -41 -33t-55 -11h-5.5h-5.5q-16 1 -34.5 6t-44.5 15l-41 17
q-22 7 -35 10.5t-23 3.5q-12 0 -21.5 -6.5t-14.5 -20.5q-3 -5 -5 -9t-4 -6q-2 -3 -4.5 -4t-6.5 -1q-13 0 -20.5 6.5t-7.5 18.5q0 8 2.5 17.5t6.5 18.5q5 12 12 22.5t14 19.5q17 18 40 27t50 9v1z" />
    <glyph glyph-name="uacute" unicode="&#xfa;" horiz-adv-x="846" 
d="M448 51v-64h-18q-53 0 -91.5 4.5t-73.5 13.5q-8 3 -16 5.5t-16 5.5q-73 28 -102 67.5t-29 110.5v384q0 14 -3.5 20t-16.5 11l-7.5 2.5t-9.5 2.5q-13 3 -19 9.5t-6 15.5q0 13 11.5 20t33.5 7l17 1h273h16q23 -1 34.5 -7.5t11.5 -20.5q0 -9 -6.5 -15.5t-18.5 -9.5
q-5 -1 -9.5 -2.5t-8.5 -2.5q-13 -5 -16 -11t-3 -21v-409q0 -38 2 -54t8 -28l0.5 -0.5l0.5 -0.5q8 -16 21 -23t41 -12v1zM497 -13v64q70 7 108 46.5t38 103.5v319q0 33 -15.5 56t-46.5 36q-7 3 -12.5 6t-8.5 5q-5 4 -7 8.5t-2 10.5q0 13 11 18.5t36 5.5l153 1
q17 -1 23.5 -1.5t11.5 -2.5q1 0 1.5 -0.5l0.5 -0.5q8 -4 12.5 -9t4.5 -11q0 -5 -1 -8.5t-4 -6.5q-4 -3 -11.5 -7t-20.5 -10q-27 -12 -42 -36t-15 -55v-317q0 -89 -56.5 -145.5t-157.5 -69.5v0zM603 825l-167 -104l-11 -7q-4 -3 -7 -4.5t-6 -2.5q-2 -1 -3.5 -1h-3.5l-44 1
q-7 -1 -12.5 1t-5.5 6l3 7l91 113q4 3 6.5 6t5.5 5q5 4 11.5 5t17.5 1l122 1q8 -1 14 -4t6 -8q0 -1 -0.5 -2t-0.5 -2q-2 -2 -5.5 -5t-10.5 -7v1z" />
    <glyph glyph-name="ugrave" unicode="&#xf9;" horiz-adv-x="846" 
d="M448 51v-64h-18q-53 0 -91.5 4.5t-73.5 13.5q-8 3 -16 5.5t-16 5.5q-73 28 -102 67.5t-29 110.5v384q0 14 -3.5 20t-16.5 11l-7.5 2.5t-9.5 2.5q-13 3 -19 9.5t-6 15.5q0 13 11.5 20t33.5 7l17 1h273h16q23 -1 34.5 -7.5t11.5 -20.5q0 -9 -6.5 -15.5t-18.5 -9.5
q-5 -1 -9.5 -2.5t-8.5 -2.5q-13 -5 -16 -11t-3 -21v-409q0 -38 2 -54t8 -28l0.5 -0.5l0.5 -0.5q8 -16 21 -23t41 -12v1zM497 -13v64q70 7 108 46.5t38 103.5v319q0 33 -15.5 56t-46.5 36q-7 3 -12.5 6t-8.5 5q-5 4 -7 8.5t-2 10.5q0 13 11 18.5t36 5.5l153 1
q17 -1 23.5 -1.5t11.5 -2.5q1 0 1.5 -0.5l0.5 -0.5q8 -4 12.5 -9t4.5 -11q0 -5 -1 -8.5t-4 -6.5q-4 -3 -11.5 -7t-20.5 -10q-27 -12 -42 -36t-15 -55v-317q0 -89 -56.5 -145.5t-157.5 -69.5v0zM271 852h122q12 -1 18.5 -2t11.5 -5q3 -2 6 -5t6 -7l91 -112l2 -6q0 -5 -4.5 -7
t-12.5 -2l-45 1q-1 -1 -2.5 -1t-2.5 1q-3 0 -6 1.5t-8 4.5l-11 8l-169 104q-7 4 -10.5 7t-4.5 5v1.5v0.5q0 5 6 8.5t13 3.5v1z" />
    <glyph glyph-name="ucircumflex" unicode="&#xfb;" horiz-adv-x="846" 
d="M448 51v-64h-18q-53 0 -91.5 4.5t-73.5 13.5q-8 3 -16 5.5t-16 5.5q-73 28 -102 67.5t-29 110.5v384q0 14 -3.5 20t-16.5 11l-7.5 2.5t-9.5 2.5q-13 3 -19 9.5t-6 15.5q0 13 11.5 20t33.5 7l17 1h273h16q23 -1 34.5 -7.5t11.5 -20.5q0 -9 -6.5 -15.5t-18.5 -9.5
q-5 -1 -9.5 -2.5t-8.5 -2.5q-13 -5 -16 -11t-3 -21v-409q0 -38 2 -54t8 -28l0.5 -0.5l0.5 -0.5q8 -16 21 -23t41 -12v1zM497 -13v64q70 7 108 46.5t38 103.5v319q0 33 -15.5 56t-46.5 36q-7 3 -12.5 6t-8.5 5q-5 4 -7 8.5t-2 10.5q0 13 11 18.5t36 5.5l153 1
q17 -1 23.5 -1.5t11.5 -2.5q1 0 1.5 -0.5l0.5 -0.5q8 -4 12.5 -9t4.5 -11q0 -5 -1 -8.5t-4 -6.5q-4 -3 -11.5 -7t-20.5 -10q-27 -12 -42 -36t-15 -55v-317q0 -89 -56.5 -145.5t-157.5 -69.5v0zM437 760l-30 -38l-6 -9q0 -1 -0.5 -1.5l-0.5 -0.5q-4 -3 -10 -4t-20 -1l-87 1
q-15 -1 -21.5 1.5t-6.5 8.5v2t1 3t3 4.5t6 5.5l118 100q11 8 19 12.5t16 5.5h2.5h2.5l32 1q5 -1 10.5 -2.5t11.5 -3.5q5 -2 10.5 -5.5t10.5 -8.5l122 -98l8 -8l4 -8q0 -7 -4.5 -9t-16.5 -2l-100 1q-19 -1 -29.5 2.5t-15.5 11.5l-29 39v0z" />
    <glyph glyph-name="udieresis" unicode="&#xfc;" horiz-adv-x="846" 
d="M448 51v-64h-18q-53 0 -91.5 4.5t-73.5 13.5q-8 3 -16 5.5t-16 5.5q-73 28 -102 67.5t-29 110.5v384q0 14 -3.5 20t-16.5 11l-7.5 2.5t-9.5 2.5q-13 3 -19 9.5t-6 15.5q0 13 11.5 20t33.5 7l17 1h273h16q23 -1 34.5 -7.5t11.5 -20.5q0 -9 -6.5 -15.5t-18.5 -9.5
q-5 -1 -9.5 -2.5t-8.5 -2.5q-13 -5 -16 -11t-3 -21v-409q0 -38 2 -54t8 -28l0.5 -0.5l0.5 -0.5q8 -16 21 -23t41 -12v1zM497 -13v64q70 7 108 46.5t38 103.5v319q0 33 -15.5 56t-46.5 36q-7 3 -12.5 6t-8.5 5q-5 4 -7 8.5t-2 10.5q0 13 11 18.5t36 5.5l153 1
q17 -1 23.5 -1.5t11.5 -2.5q1 0 1.5 -0.5l0.5 -0.5q8 -4 12.5 -9t4.5 -11q0 -5 -1 -8.5t-4 -6.5q-4 -3 -11.5 -7t-20.5 -10q-27 -12 -42 -36t-15 -55v-317q0 -89 -56.5 -145.5t-157.5 -69.5v0zM307 850q38 -1 64.5 -21.5t26.5 -50.5q0 -29 -26.5 -50t-64.5 -21q-37 0 -64 21
t-27 50q0 30 27 50.5t64 20.5v1zM540 850q38 -1 65 -21.5t27 -50.5q0 -29 -27 -50t-65 -21q-37 0 -64.5 21t-27.5 50q0 30 27.5 50.5t64.5 20.5v1z" />
    <glyph glyph-name="dagger" unicode="&#x2020;" horiz-adv-x="717" 
d="M446 569v-633q0 -12 4 -18t17 -11q2 0 4.5 -1t5.5 -2q12 -4 17.5 -9.5t5.5 -13.5q0 -14 -11.5 -19.5t-42.5 -5.5h-191q-22 0 -33 6.5t-11 18.5q0 8 6.5 14.5t17.5 8.5l17 5q8 2 12 9t4 18v646q0 13 -2.5 19t-13.5 11q-3 1 -6.5 2.5t-8.5 2.5q-12 3 -18.5 9.5t-6.5 14.5
q0 14 12.5 19.5t43.5 5.5l168 1q35 -1 50 -7t15 -21q0 -7 -5.5 -12.5t-13.5 -9.5l-21 -7q-10 -4 -12.5 -12t-2.5 -30v1zM230 353h-67q-16 -1 -23.5 -2.5t-12.5 -8.5q-2 -2 -3.5 -4.5t-3.5 -5.5q-6 -8 -13.5 -12t-18.5 -4q-16 0 -23.5 8t-7.5 28v113q0 22 8 31.5t26 9.5
q9 0 16 -3.5t11 -8.5l10 -13q4 -7 14 -8.5t38 -1.5l50 1v-119v0zM487 472h50q27 -1 37 0.5t14 7.5l10 15q5 4 11.5 7.5t16.5 3.5q18 0 26 -9.5t8 -32.5v-111q0 -21 -7.5 -29t-24.5 -8q-10 0 -18 4t-13 12q-2 3 -3.5 5.5t-3.5 4.5q-5 7 -12.5 8.5t-24.5 1.5l-66 1v119v0z" />
    <glyph glyph-name="cent" unicode="&#xa2;" horiz-adv-x="717" 
d="M406 650v-77q46 -3 76 -9t57 -19l4 -2l4 -2q36 -19 53.5 -41.5t17.5 -50.5q0 -37 -28.5 -62t-72.5 -25t-75 25t-31 59q0 4 0.5 8t1.5 8q2 5 5 10t7 11q5 8 6.5 11.5t1.5 6.5q0 8 -10.5 13t-29.5 5q-36 0 -49 -17t-13 -65v-192q0 -44 17 -63.5t53 -19.5h5.5h5.5
q35 3 68.5 19t59.5 42q8 9 14 13.5t11 7.5q4 1 7.5 1.5t7.5 0.5q14 0 23 -7t9 -18q0 -17 -17.5 -37t-51.5 -42q-2 -1 -3.5 -2t-3.5 -2q-29 -18 -59.5 -28t-70.5 -14v-96h-56v94q-34 3 -60 10t-51 19q-5 2 -10.5 5t-11.5 6q-60 34 -89.5 81t-29.5 108q0 100 69 168t183 79v80
h56v0z" />
    <glyph glyph-name="sterling" unicode="&#xa3;" horiz-adv-x="717" 
d="M258 35l-15 -6l-32 -19q-12 -8 -26 -11.5t-28 -5.5h-6h-6q-40 0 -63.5 18.5t-23.5 52.5q0 54 55.5 92t134.5 38q15 0 32 -1t35 -3q7 -1 13.5 -2t13.5 -2q16 -2 38 -5.5t47 -7.5q40 -7 63.5 -9.5t42.5 -2.5q25 0 38 5.5t19 16.5l12 27q3 4 10.5 7.5t15.5 3.5
q17 0 23.5 -9.5t6.5 -30.5q0 -34 -10 -64.5t-32 -59.5q-25 -33 -69 -51t-97 -18q-13 0 -27 1t-28 4q-26 3 -50.5 9.5t-43.5 15.5q-17 8 -28 12t-15 4v1zM386 678v-58q-28 -11 -41 -30.5t-13 -52.5q0 -15 2.5 -30.5t6.5 -31.5q3 -10 6.5 -19.5t7.5 -18.5l18 -43q2 -5 3.5 -9
t2.5 -8q3 -11 4.5 -21.5t2.5 -24.5l137 1v-56h-150q-4 -9 -6.5 -15t-5.5 -11q0 -1 -0.5 -1.5t-0.5 -1.5q-3 -6 -6.5 -12.5t-8.5 -15.5l-83 3l5 31l-1 23h-138v56h113q-3 2 -5.5 4t-4.5 3l-1.5 1.5t-1.5 0.5q-5 4 -11 7.5t-17 10.5q-55 32 -81 66t-26 73q0 83 71.5 131
t192.5 48l29 1v0zM421 677q53 -6 87 -17t63 -32q28 -19 44.5 -44t19.5 -51v-4.5v-4.5q0 -41 -38 -71t-91 -30q-46 0 -80 26t-34 61q0 10 2.5 19.5t8.5 18.5t15.5 18t22.5 19l8.5 8.5t3.5 5.5q0 6 -7 10t-25 7v61v0z" />
    <glyph glyph-name="section" unicode="&#xa7;" horiz-adv-x="625" 
d="M113 388l65 -36q-4 -9 -5 -13.5t-1 -8.5v-3.5t1 -2.5q4 -12 35 -28.5t130 -60.5q62 -28 95 -44.5t54 -30.5q2 -2 4.5 -4t5.5 -4q31 -23 48.5 -56.5t17.5 -68.5q0 -74 -62.5 -118.5t-168.5 -44.5q-28 0 -56.5 3t-60.5 11l-37 5l-21 -3l-17 -5l-17 -2q-13 0 -19 8t-6 27v92
q0 19 13 31.5t32 12.5q15 0 25 -7t18 -25q22 -45 49.5 -64t74.5 -19q35 0 57.5 13t22.5 35q0 13 -8.5 22t-28.5 18q-3 1 -5.5 2t-5.5 2l-86 34q-48 18 -84 34t-59 29q-35 22 -56.5 58t-21.5 75q0 17 3.5 31.5t10.5 29.5q9 17 24.5 35.5t39.5 39.5v1zM523 179l-67 35q4 5 5 9
t1 7t-1 6.5t-3 6.5q-6 10 -25.5 21.5t-59.5 28.5q-10 5 -22.5 10.5t-24.5 10.5q-19 8 -36.5 16t-29.5 14q-40 17 -64.5 30t-41.5 24l-8 6l-8 6q-28 23 -42 49t-14 59q0 69 62 112.5t161 43.5h14t14 -1q6 0 13 -1l14 -2l53 -8l24 -2l36 3l22 3q13 -1 18 -8t5 -24v-95
q0 -20 -9.5 -29.5t-27.5 -9.5q-14 0 -23 5.5t-16 17.5l-17 34q-16 28 -39 41t-58 13q-28 0 -46.5 -11t-18.5 -28q0 -11 7 -19.5t22 -16.5q5 -2 10 -4.5t11 -4.5q66 -24 113.5 -44.5t73.5 -35.5q40 -23 64.5 -60.5t26.5 -78.5v-2.5v-3.5q0 -19 -5 -36t-15 -34
q-8 -13 -20 -26.5t-28 -27.5v1z" />
    <glyph glyph-name="paragraph" unicode="&#xb6;" horiz-adv-x="1091" 
d="M617 -144h-212h-19q-26 0 -38.5 7t-12.5 21q0 10 7 16.5t20 8.5l23 5q10 2 15.5 11t5.5 24v718h211v-53q-19 -5 -25 -12.5t-6 -27.5v-625q0 -21 6 -28.5t25 -11.5v-53v0zM663 -144v53q18 4 24 12t6 28v626q0 19 -6 26.5t-24 11.5v54h212v-718q0 -15 5 -24t15 -11l22 -5
q14 -2 21.5 -9t7.5 -17q0 -14 -13.5 -20.5t-39.5 -6.5h-230v0zM360 614q-37 -5 -53 -21t-16 -51v-156q0 -38 14.5 -54.5t54.5 -24.5v-51h-10q-34 -1 -63.5 0.5t-55.5 5.5q-97 15 -151.5 68t-54.5 132q0 77 52 129.5t145 66.5q27 5 61 6.5t77 1.5v-52v0zM1066 667v-183
q0 -14 -9 -22.5t-24 -8.5q-13 0 -22.5 7.5t-12.5 20.5l-5 29q-8 37 -26 63t-46 39v55h145v0z" />
    <glyph glyph-name="germandbls" unicode="&#xdf;" 
 />
    <glyph glyph-name="registered" unicode="&#xae;" horiz-adv-x="911" 
d="M456 678q178 -1 304 -102t126 -244q0 -142 -126 -243t-304 -101t-304.5 101t-126.5 243q0 143 126 244t305 101v1zM456 622q-147 -1 -251.5 -85.5t-104.5 -204.5q0 -119 104.5 -203.5t251.5 -84.5t251 84.5t104 203.5t-104 204t-251 85v1zM460 498v31h10q53 -1 79.5 -4
t46.5 -11q3 -1 5.5 -2t5.5 -2q30 -13 45.5 -33t15.5 -46q0 -22 -11 -40.5t-31 -29.5q-1 -1 -2.5 -1.5t-2.5 -1.5l-14 -6t-15 -6q-9 -3 -20 -6t-26 -6q8 -1 14.5 -2t12.5 -1q12 -2 21.5 -4t18.5 -5q3 -1 6 -2.5t6 -2.5q19 -9 29.5 -22t10.5 -28v-57q0 -5 2 -7t6 -2h2t2 1
q1 0 2.5 1.5l3.5 3.5q5 5 10.5 7t9.5 2h1.5h0.5q5 -1 9.5 -4.5t6.5 -7.5q1 -1 1 -2v-2q0 -5 -3.5 -11t-10.5 -12q-6 -7 -14.5 -13t-18.5 -11q-13 -7 -29.5 -10t-37.5 -3q-50 0 -78 21.5t-28 58.5v48q0 23 -9.5 34.5t-32.5 13.5v30q23 2 32.5 10.5t9.5 27.5v74q0 16 -9 25
t-33 14v1zM431 529v-327q0 -11 3 -15t16 -7q1 0 3.5 -0.5t4.5 -0.5q10 -1 14.5 -5.5t4.5 -9.5q0 -8 -8 -12t-26 -4l-12 1h-169h-10q-14 -1 -21.5 3t-7.5 11q0 5 4 9t11 6q1 0 2.5 0.5t2.5 0.5q13 3 16 6.5t3 13.5v279q0 9 -3 12.5t-16 6.5q-1 0 -2.5 0.5t-2.5 0.5
q-7 2 -11 6t-4 9q0 8 7.5 11.5t21.5 3.5l10 1h169v0z" />
    <glyph glyph-name="copyright" unicode="&#xa9;" horiz-adv-x="911" 
d="M456 678q178 -1 304 -102t126 -244q0 -142 -126 -243t-304 -101t-304.5 101t-126.5 243q0 143 126 244t305 101v1zM456 622q-147 -1 -251.5 -85.5t-104.5 -204.5q0 -119 104.5 -203.5t251.5 -84.5t251 84.5t104 203.5t-104 204t-251 85v1zM466 538v-35q-22 -4 -33 -16
t-11 -35v-235v-12q1 -18 13 -27.5t31 -11.5v-34q-107 1 -168 53t-61 142q0 41 13 75.5t38 61.5q21 23 52 40t64 26q13 3 26.5 5t25.5 2l10 1v0zM498 132v35q40 1 71.5 20.5t43.5 47.5q1 2 2 3.5t1 2.5q5 6 9.5 8.5t11.5 2.5q8 0 14.5 -5t6.5 -13t-5.5 -18.5t-15.5 -21.5
q-7 -8 -16 -16t-19 -15q-3 -2 -6.5 -4t-7.5 -4q-20 -12 -41.5 -17.5t-48.5 -6.5v1zM498 503v34q14 -2 24.5 -4t19.5 -5l29 -6q11 -4 16.5 -5.5t9.5 -1.5h2.5t2.5 1q3 1 6.5 3t4.5 4l5 8q3 2 7.5 4t10.5 2q11 0 16.5 -5t5.5 -14v-117q0 -11 -6.5 -17t-16.5 -6q-9 0 -14.5 4.5
t-9.5 14.5q-16 47 -45 74t-68 31v1z" />
    <glyph glyph-name="trademark" unicode="&#x2122;" horiz-adv-x="1118" 
d="M330 667v-344q0 -11 3.5 -15.5t16.5 -7.5q3 -1 5 -1t5 -1q9 -1 13.5 -5.5t4.5 -9.5q0 -9 -8.5 -13t-26.5 -4l-13 1h-178h-14q-17 -1 -26 3t-9 13q0 5 5.5 9.5t13.5 5.5q4 1 6.5 1.5t5.5 0.5q12 3 15 7t3 15v345h178v0zM723 667l78 -164l35 89v-98l-91 -227h-22l-153 337
q-2 2 -3.5 5l-2.5 5q-6 9 -12 12.5t-17 5.5q-13 2 -20 6.5t-7 11.5q0 8 8 12t21 4l186 1v0zM570 532l41 -88v-89q0 -20 7 -32t23 -20l15 -6q3 -2 5 -3.5t4 -2.5q3 -2 4.5 -4.5t1.5 -5.5q0 -7 -7 -11t-23 -4l-99 1q-15 -1 -22.5 3t-7.5 11q0 3 2 5.5t6 4.5q1 1 2.5 1.5
t3.5 1.5q22 8 33 23t11 37v178v0zM868 667h178h10q15 -1 22.5 -5t7.5 -12q0 -5 -4 -9t-12 -6q-3 -1 -5 -1.5t-4 -0.5q-10 -3 -12.5 -7t-2.5 -13v-292q0 -11 2.5 -15t13.5 -7q2 0 4 -0.5t4 -1.5q8 -1 12 -5t4 -10q0 -8 -7.5 -12t-22.5 -4l-10 1h-178h-13q-18 -1 -26.5 3
t-8.5 13q0 5 4.5 9.5t13.5 5.5q3 1 6 1.5t6 0.5q12 3 15 7t3 15v345v0zM16 667h104v-36q-20 -9 -33 -26t-19 -43l-3 -17q-2 -9 -9 -14t-16 -5q-10 0 -17 5.5t-7 13.5v122v0zM466 667v-121q0 -9 -6.5 -14.5t-17.5 -5.5q-9 0 -16 5t-9 13l-4 19q-5 25 -18 42t-33 25v37h104v0z
" />
    <glyph glyph-name="acute" unicode="&#xb4;" horiz-adv-x="625" 
d="M492 824l-167 -104l-12 -7q-3 -3 -5.5 -4.5t-4.5 -1.5q-2 -1 -4.5 -1.5t-5.5 -0.5l-43 1q-7 -1 -12.5 1t-5.5 6l3 7l91 113q4 3 6.5 6t5.5 5q5 4 11 5t18 1l121 1q9 -1 14.5 -4t5.5 -8v-2t-1 -2q-1 -2 -4.5 -5t-10.5 -7v1z" />
    <glyph glyph-name="dieresis" unicode="&#xa8;" horiz-adv-x="625" 
d="M196 850q38 -1 64.5 -21.5t26.5 -50.5q0 -29 -26.5 -50t-64.5 -21q-37 0 -64 21t-27 50q0 30 27 50.5t64 20.5v1zM428 850q39 -1 66 -21.5t27 -50.5q0 -29 -27 -50t-66 -21q-37 0 -64 21t-27 50q0 30 27 50.5t64 20.5v1z" />
    <glyph glyph-name="AE" unicode="&#xc6;" horiz-adv-x="1100" 
d="M437 560v-91l-269 -350q-8 -11 -11.5 -18.5t-3.5 -14.5q0 -11 9.5 -19t28.5 -15l15 -5t11 -4q7 -4 10 -8.5t3 -11.5q0 -11 -9 -17t-25 -6h-180q-13 0 -22 6.5t-9 16.5t6 16t19 10q7 2 13 4t11 4q9 4 15 7.5t12 9.5q3 3 7 7.5t8 10.5l361 468v0zM751 667v-667h-273h-16
q-22 0 -34 6.5t-12 19.5q0 9 6.5 15.5t18.5 9.5q6 1 10.5 2.5l7.5 2.5q13 5 16 11t3 21v77h-230l40 58h190v355q0 14 -3 20t-16 11l-7.5 2.5t-10.5 2.5q-12 3 -18.5 9.5t-6.5 15.5q0 14 12 20.5t34 6.5l16 1h273v0zM801 0v53q73 7 120.5 39t71.5 88q1 2 1.5 3.5t1.5 2.5
q6 12 12.5 16.5t17.5 4.5q19 0 25.5 -8t6.5 -31v-168h-257v0zM801 311v57q35 13 52.5 28.5t24.5 42.5q0 1 0.5 2t0.5 2q6 17 13.5 23t22.5 6q17 0 23.5 -8.5t6.5 -32.5v-185q0 -24 -6.5 -32.5t-23.5 -8.5q-14 0 -22 6.5t-13 22.5q-10 34 -29 52t-50 24v1zM801 667h249v-174
q0 -15 -8.5 -22.5t-25.5 -7.5q-9 0 -14.5 3t-10.5 11l-2 4l-2 4q-24 58 -69 87.5t-117 35.5v59v0z" />
    <glyph glyph-name="Oslash" unicode="&#xd8;" horiz-adv-x="792" 
d="M371 277l-56 -61v-94q0 -41 12 -58t44 -24v-53q-66 4 -120 22.5t-100 53.5l-78 -76l-40 30l80 79q-42 42 -65 103.5t-23 132.5q0 149 96 245t250 102v-52q-31 -9 -43.5 -24.5t-12.5 -44.5v-270l56 61v-72v0zM672 577l3 -2q46 -48 69 -108.5t23 -134.5
q0 -148 -93.5 -241.5t-252.5 -103.5v54q31 5 43.5 24t12.5 56v271l-56 -60v71l56 60v96q0 28 -12.5 43.5t-43.5 23.5v54q63 -3 116.5 -21t97.5 -51l73 72l40 -27l-76 -76v0z" />
    <glyph glyph-name="plusminus" unicode="&#xb1;" horiz-adv-x="717" 
d="M670 41v-68q0 -11 -5 -15.5t-20 -4.5h-574q-14 0 -19.5 4.5t-5.5 15.5v68q0 10 5.5 14.5t19.5 4.5l574 1q15 -1 20 -5.5t5 -15.5v1zM428 282v-156q0 -13 -5.5 -17t-19.5 -4l-90 1q-13 -1 -19 3t-6 16v157h-217q-14 -1 -19.5 3.5t-5.5 15.5v64q0 10 5.5 14.5t19.5 4.5
l217 1v177q0 10 6 14.5t19 4.5l90 1q14 -1 19.5 -5.5t5.5 -15.5v-176h217q15 -1 20 -5.5t5 -15.5v-62q0 -12 -5 -16.5t-20 -4.5l-217 1v0z" />
    <glyph glyph-name="yen" unicode="&#xa5;" horiz-adv-x="717" 
d="M491 258v-165q0 -16 5 -25t15 -11l21 -4q14 -3 20 -10t6 -17q0 -14 -10.5 -20t-37.5 -6h-19h-248h-17q-25 0 -37 6.5t-12 20.5q0 10 6.5 16.5t19.5 8.5l22 6q9 1 14.5 10t5.5 24v166h-158v48h139l-51 99h-117v48h94l-57 114q-4 7 -7.5 12.5t-6.5 9.5q-6 8 -12.5 12
t-16.5 7q-2 1 -3.5 1.5t-3.5 0.5q-14 6 -19.5 12t-5.5 17q0 14 10.5 19.5t36.5 6.5l15 2h271q23 -1 33.5 -7.5t10.5 -20.5q0 -7 -4 -12.5t-12 -10.5l-16 -8q-5 -3 -7 -7.5t-2 -9.5q0 -2 0.5 -5.5t0.5 -6.5q1 -3 2 -6.5t2 -5.5l130 -261h147v-48h-147v0zM566 453h85v-48h-113
l-31 -55l-34 66l65 115q3 4 4.5 8.5t3.5 9.5q1 4 1.5 9t0.5 9q0 16 -10 26.5t-30 17.5q-4 1 -8 2.5t-7 2.5q-13 4 -17 9.5t-4 13.5q0 14 12.5 20.5t38.5 6.5l159 1q16 -1 25.5 -8t9.5 -19q0 -7 -3.5 -12.5t-13.5 -10.5l-4 -2t-5 -2q-5 -2 -9.5 -4t-8.5 -3q-10 -5 -17 -10.5
t-14 -13.5q-4 -5 -8 -11.5t-9 -15.5l-15 -24l-44 -78v0z" />
    <glyph glyph-name="mu" unicode="&#xb5;" horiz-adv-x="697" 
d="M611 457v-322q0 -52 10 -68.5t40 -16.5h2h2q5 0 12 0.5t19 2.5v-19l-173 -46l-7 -1q-3 0 -6.5 0.5t-7.5 1.5q-8 2 -16 6t-14 8l-0.5 0.5l-1.5 1.5q-3 3 -5.5 6t-4.5 7q-4 6 -8 14t-10 21q-12 -12 -20.5 -19.5t-15.5 -12.5q-2 -2 -4.5 -3.5t-5.5 -3.5q-22 -14 -48.5 -22
t-55.5 -8q-50 0 -79.5 18t-54.5 64l-1 -14q0 -8 0.5 -15t1.5 -13q2 -11 5 -22t9 -25q3 -7 6.5 -16t8.5 -19q0 -1 0.5 -2.5t1.5 -3.5q3 -6 5.5 -12.5t5.5 -11.5q8 -16 11.5 -30t3.5 -24q0 -23 -23.5 -39.5t-57.5 -16.5q-43 0 -67.5 16t-24.5 44q0 11 3.5 29t8.5 38
q10 37 18 82t14 92q4 34 6 67.5t2 63.5v223h181v-288q0 -62 15.5 -91.5t46.5 -29.5q11 0 20.5 2t18.5 6q13 6 26 16t28 25v360h180v0z" />
    <glyph glyph-name="ordfeminine" unicode="&#xaa;" horiz-adv-x="478" 
d="M427 329v-30q0 -6 -5.5 -8t-21.5 -2l-298 1q-16 -1 -21.5 1t-5.5 7v31q0 4 5.5 6t21.5 2l298 1q16 -1 21.5 -3t5.5 -7v1zM186 509v-45q0 -20 8 -30t24 -10q11 -1 17.5 -4.5t6.5 -9.5q0 -7 -17.5 -11.5t-44.5 -4.5q-55 0 -88.5 23.5t-33.5 61.5q0 42 38 65.5t105 23.5
q16 0 21 -2.5t5 -10.5q0 -3 -1 -5.5t-5 -4.5q-1 -2 -3.5 -3t-6.5 -2q-13 -4 -19 -11.5t-6 -20.5v1zM390 587v-100q0 -20 5.5 -29.5t16.5 -9.5q3 0 5 0.5t5 2.5q2 1 4 3l5 5q2 2 4 3.5t4 2.5t4 1.5t4 0.5q7 0 11 -3.5t4 -8.5q0 -24 -31.5 -42.5t-72.5 -18.5q-49 0 -75.5 19
t-26.5 55v186q0 11 4.5 15t17.5 4q52 0 82 -23t30 -64v1zM123 580q-22 -1 -35 8.5t-13 25.5q0 26 34 42.5t86 16.5q17 0 24 -2.5t7 -7.5q0 -3 -2.5 -5.5t-6.5 -3.5l-15 -2q-10 -3 -17.5 -9t-9.5 -13v-1v-2v-3l1 -4q0 -21 -13.5 -31t-39.5 -10v1z" />
    <glyph glyph-name="ordmasculine" unicode="&#xba;" horiz-adv-x="478" 
d="M418 329v-30q0 -6 -5.5 -8t-21.5 -2l-298 1q-16 -1 -21.5 1t-5.5 7v31q0 4 5.5 6t21.5 2l298 1q16 -1 21.5 -3t5.5 -7v1zM187 606v-141v-19q1 -10 5 -15t14 -9q5 -2 8 -3.5t5 -3.5q3 -2 3.5 -4t0.5 -5q0 -6 -3.5 -9t-11.5 -3q-13 0 -28.5 3t-30.5 10q-7 2 -13.5 5
t-13.5 7q-37 21 -54.5 48.5t-17.5 66.5q0 41 20 70t62 50q5 3 10.5 5t11.5 4q14 6 28.5 8.5t25.5 2.5q8 0 11.5 -2.5t3.5 -9.5q0 -3 -0.5 -5t-3.5 -4q-2 -2 -5 -3.5t-8 -3.5q-10 -4 -14.5 -9t-4.5 -14v-17v0zM290 465v141v18q-1 9 -4.5 13.5t-14.5 8.5q-5 2 -8 3.5t-5 3.5
q-3 2 -4 4t-1 5q0 6 4 9t11 3q12 0 25.5 -2.5t27.5 -7.5q8 -3 16 -7l16 -8q39 -21 56.5 -48.5t17.5 -66.5q0 -40 -20 -69.5t-64 -50.5q-6 -3 -12.5 -6t-13.5 -5q-13 -4 -25.5 -6.5t-23.5 -2.5q-8 0 -11.5 3t-3.5 9q0 3 1 5t4 4q2 2 5 3.5t8 3.5q11 4 15 9.5t4 13.5v20v0z
" />
    <glyph glyph-name="ae" unicode="&#xe6;" horiz-adv-x="1100" 
d="M437 560v-91l-269 -350q-8 -11 -11.5 -18.5t-3.5 -14.5q0 -11 9.5 -19t28.5 -15l15 -5t11 -4q7 -4 10 -8.5t3 -11.5q0 -11 -9 -17t-25 -6h-180q-13 0 -22 6.5t-9 16.5t6 16t19 10q7 2 13 4t11 4q9 4 15 7.5t12 9.5q3 3 7 7.5t8 10.5l361 468v0zM751 667v-667h-273h-16
q-22 0 -34 6.5t-12 19.5q0 9 6.5 15.5t18.5 9.5q6 1 10.5 2.5l7.5 2.5q13 5 16 11t3 21v77h-230l40 58h190v355q0 14 -3 20t-16 11l-7.5 2.5t-10.5 2.5q-12 3 -18.5 9.5t-6.5 15.5q0 14 12 20.5t34 6.5l16 1h273v0zM801 0v53q73 7 120.5 39t71.5 88q1 2 1.5 3.5t1.5 2.5
q6 12 12.5 16.5t17.5 4.5q19 0 25.5 -8t6.5 -31v-168h-257v0zM801 311v57q35 13 52.5 28.5t24.5 42.5q0 1 0.5 2t0.5 2q6 17 13.5 23t22.5 6q17 0 23.5 -8.5t6.5 -32.5v-185q0 -24 -6.5 -32.5t-23.5 -8.5q-14 0 -22 6.5t-13 22.5q-10 34 -29 52t-50 24v1zM801 667h249v-174
q0 -15 -8.5 -22.5t-25.5 -7.5q-9 0 -14.5 3t-10.5 11l-2 4l-2 4q-24 58 -69 87.5t-117 35.5v59v0z" />
    <glyph glyph-name="oslash" unicode="&#xf8;" horiz-adv-x="792" 
d="M371 277l-56 -61v-94q0 -41 12 -58t44 -24v-53q-66 4 -120 22.5t-100 53.5l-78 -76l-40 30l80 79q-42 42 -65 103.5t-23 132.5q0 149 96 245t250 102v-52q-31 -9 -43.5 -24.5t-12.5 -44.5v-270l56 61v-72v0zM672 577l3 -2q46 -48 69 -108.5t23 -134.5
q0 -148 -93.5 -241.5t-252.5 -103.5v54q31 5 43.5 24t12.5 56v271l-56 -60v71l56 60v96q0 28 -12.5 43.5t-43.5 23.5v54q63 -3 116.5 -21t97.5 -51l73 72l40 -27l-76 -76v0z" />
    <glyph glyph-name="questiondown" unicode="&#xbf;" horiz-adv-x="421" 
d="M83 107v3.5v5.5q1 20 8.5 44t24.5 65q26 63 38.5 106.5t15.5 82.5q1 20 9 28t26 8q16 0 24 -7t9 -23q1 -9 1.5 -15.5t1.5 -11.5q1 -6 1.5 -11t1.5 -10q1 -6 3 -12.5t5 -16.5q8 -26 18 -53t23 -57q9 -19 15 -34l10 -25q3 -7 5.5 -13.5t4.5 -13.5q3 -12 5 -24t2 -22
q0 -49 -35.5 -81.5t-91.5 -32.5q-55 0 -90 33.5t-35 85.5v1zM208 680q50 -1 85 -28.5t35 -66.5t-35 -66.5t-85 -27.5q-49 0 -83.5 27.5t-34.5 66.5t34.5 66.5t83.5 27.5v1z" />
    <glyph glyph-name="exclamdown" unicode="&#xa1;" horiz-adv-x="675" 
d="M360 -13v54q17 1 23.5 5t6.5 13l-4 16l-5 11q-3 4 -4 10t-1 12q0 33 30.5 55.5t74.5 22.5q46 0 78 -24t32 -59q0 -49 -63 -82.5t-155 -33.5h-13v0zM307 44v-55q-98 10 -161.5 64.5t-63.5 130.5q0 83 72.5 141.5t190.5 69.5h2.5h2.5q27 3 33.5 8.5t6.5 24.5q1 16 7.5 22.5
t22.5 6.5t24 -7.5t8 -21.5v-170q0 -15 -6.5 -18.5t-32.5 -4.5q-64 -1 -104.5 -34t-40.5 -85q0 -25 9.5 -42.5t29.5 -30.5v1zM405 680q50 -1 85 -28.5t35 -66.5t-35 -66.5t-85 -27.5t-84.5 27.5t-34.5 66.5t35 66.5t84 27.5v1z" />
    <glyph glyph-name="logicalnot" unicode="&#xac;" horiz-adv-x="625" 
d="M368 0v192h-333v75h553v-267h-220v0z" />
    <glyph glyph-name="florin" unicode="&#x192;" horiz-adv-x="717" 
d="M122 -99l-10 -46q-100 5 -150.5 32t-50.5 75q0 35 27 56t72 21q39 0 64.5 -18t25.5 -46v-3.5v-2.5q-1 -6 -4 -13.5t-10 -21.5l-4 -13q0 -6 4.5 -9.5t14.5 -6.5q2 0 4.5 -0.5t4.5 -1.5l12 -2v0zM577 733l-66 -302h116l-11 -50h-116l-42 -187l-11 -58q-22 -105 -58 -160
t-104 -84q-10 -4 -19 -8t-18 -7q-21 -7 -43.5 -12.5t-51.5 -9.5l117 526h-102l12 50h101l22 102q14 63 34 95.5t61 58.5q37 23 78 33.5t101 11.5v1zM610 686l10 46q101 -6 151 -33t50 -75q0 -35 -27 -56.5t-72 -21.5q-40 0 -65 18.5t-25 46.5v3.5v2.5q1 6 3.5 13.5t9.5 21.5
l3 14q0 5 -6 9t-21 8l-11 3v0z" />
    <glyph glyph-name="guillemotleft" unicode="&#xab;" horiz-adv-x="676" 
d="M273 524l52 -34q4 -4 7 -6.5t5 -4.5t3 -4.5t1 -5.5q0 -8 -9 -19t-32 -30q-25 -21 -43.5 -38t-29.5 -28q-7 -7 -9 -10.5t-2 -6.5q0 -1 1.5 -4t4.5 -6l1.5 -1.5l1.5 -1.5l31 -31l40 -39q30 -30 38 -39.5t9 -15.5v-1.5v-1.5q0 -2 -0.5 -3.5t-1.5 -3.5q-2 -3 -7.5 -7.5
t-17.5 -10.5l-46 -23q-2 -2 -4.5 -3t-5.5 -2q-4 -1 -7 -1.5t-6 -0.5q-5 0 -11.5 4t-14.5 14l-115 133q-10 10 -15 16.5t-7 12.5q0 3 -0.5 5.5t-0.5 5.5q0 8 2.5 14.5t6.5 10.5l16 20l113 135l14 16q2 1 4.5 2t5.5 1q1 1 2.5 1h2.5h2h2q4 -1 8.5 -3t10.5 -6v1zM523 524
l52 -34q4 -4 7 -6.5t5 -4.5t3 -4.5t1 -5.5q0 -8 -9 -19t-32 -30q-25 -21 -43.5 -38t-29.5 -28q-7 -7 -9 -10.5t-2 -6.5q0 -1 1.5 -4t4.5 -6l1.5 -1.5l1.5 -1.5l31 -31l40 -39q30 -30 38 -39.5t9 -15.5v-1.5v-1.5q0 -2 -0.5 -3.5t-1.5 -3.5q-2 -3 -7.5 -7.5t-17.5 -10.5
l-46 -23q-2 -2 -4.5 -3t-5.5 -2q-4 -1 -7 -1.5t-6 -0.5q-5 0 -11.5 4t-14.5 14l-115 133q-10 10 -15 16.5t-7 12.5q0 3 -0.5 5.5t-0.5 5.5q0 8 2.5 14.5t6.5 10.5l16 20l113 135l14 16q2 1 4.5 2t5.5 1q1 1 2.5 1h2.5h2h2q4 -1 8.5 -3t10.5 -6v1z" />
    <glyph glyph-name="guillemotright" unicode="&#xbb;" horiz-adv-x="676" 
d="M205 512l112 -135l18 -19q4 -7 5.5 -13t1.5 -13q0 -3 -0.5 -5.5t-0.5 -5.5q-2 -6 -6.5 -12.5t-13.5 -17.5l-116 -131q-6 -7 -10.5 -11t-8.5 -6q-2 -1 -4 -1.5t-4 -0.5t-5 0.5t-7 1.5q-3 1 -5.5 2t-4.5 2l-46 25q-12 5 -18 9.5t-8 7.5q-1 2 -1.5 3.5t-0.5 3.5v1.5v1.5
q1 6 10 15.5t38 38.5l40 40l31 32q5 4 7.5 7.5t2.5 4.5q0 3 -3 6.5t-10 10.5q-11 11 -29.5 28t-42.5 38q-22 19 -31.5 30t-9.5 18q0 4 1.5 7.5t5.5 6.5q2 2 4 3.5t5 3.5l51 35q5 2 9 4t7 3q2 1 4 1h4q5 0 9 -1.5t6 -3.5l14 -15v0zM455 512l112 -135l18 -19q4 -7 5.5 -13
t1.5 -13q0 -3 -0.5 -5.5t-0.5 -5.5q-2 -6 -6.5 -12.5t-13.5 -17.5l-116 -131q-6 -7 -10.5 -11t-8.5 -6q-2 -1 -4 -1.5t-4 -0.5t-5 0.5t-7 1.5q-3 1 -5.5 2t-4.5 2l-46 25q-12 5 -18 9.5t-8 7.5q-1 2 -1.5 3.5t-0.5 3.5v1.5v1.5q1 6 10 15.5t38 38.5l40 40l31 32q5 4 7.5 7.5
t2.5 4.5q0 3 -3 6.5t-10 10.5q-11 11 -29.5 28t-42.5 38q-22 19 -31.5 30t-9.5 18q0 4 1.5 7.5t5.5 6.5q2 2 4 3.5t5 3.5l51 35q5 2 9 4t7 3q2 1 4 1h4q5 0 9 -1.5t6 -3.5l14 -15v0z" />
    <glyph glyph-name="ellipsis" unicode="&#x2026;" horiz-adv-x="1217" 
d="M203 -13q-49 0 -84.5 27t-35.5 66q0 40 35.5 67.5t84.5 27.5q50 0 85 -27.5t35 -67.5q0 -39 -35 -66t-85 -27v0zM608 -13q-49 0 -83.5 27t-34.5 66q0 40 34.5 67.5t83.5 27.5q50 0 85 -27.5t35 -67.5q0 -39 -35 -66t-85 -27v0zM1015 -13q-50 0 -85 27t-35 66
q0 40 35 67.5t85 27.5t85 -27.5t35 -67.5q0 -39 -35 -66t-85 -27v0z" />
    <glyph glyph-name="Agrave" unicode="&#xc0;" horiz-adv-x="773" 
d="M252 542l31 -101l-108 -315q-1 -4 -2 -7.5t-1 -6.5q-1 -3 -1 -6.5v-6.5q0 -14 9 -25.5t27 -17.5l20 -7q10 -5 15.5 -11.5t5.5 -14.5q0 -11 -11.5 -17t-33.5 -6h-155q-21 0 -34.5 7t-13.5 19q0 8 6 14t21 11q38 14 56.5 32t31.5 56l137 403v0zM295 667h246l169 -574
q0 -2 0.5 -3.5t1.5 -2.5q5 -18 12 -25.5t22 -11.5q2 -1 3.5 -1.5t2.5 -0.5q12 -5 16.5 -10.5t4.5 -14.5q0 -11 -12 -17t-35 -6h-305q-18 0 -29 6.5t-11 18.5q0 6 1.5 10t6.5 7q3 2 7.5 4.5t11.5 5.5q1 1 2.5 1.5t2.5 0.5q10 5 13.5 10.5t3.5 14.5l-2 14l-20 71h-170l17 60
h137l-112 395l15 48v0zM230 852h122q12 -1 18.5 -2t12.5 -6l4.5 -4.5t5.5 -6.5l92 -112l2 -6q0 -5 -4.5 -7t-12.5 -2l-45 1q-2 -1 -3.5 -1t-3.5 1q-3 1 -5.5 2.5t-6.5 3.5l-11 8l-169 104q-7 4 -10.5 7t-4.5 5v1.5v0.5q0 5 6 8.5t13 3.5v1z" />
    <glyph glyph-name="Atilde" unicode="&#xc3;" horiz-adv-x="773" 
d="M252 542l31 -101l-108 -315q-1 -4 -2 -7.5t-1 -6.5q-1 -3 -1 -6.5v-6.5q0 -14 9 -25.5t27 -17.5l20 -7q10 -5 15.5 -11.5t5.5 -14.5q0 -11 -11.5 -17t-33.5 -6h-155q-21 0 -34.5 7t-13.5 19q0 8 6 14t21 11q38 14 56.5 32t31.5 56l137 403v0zM295 667h246l169 -574
q0 -2 0.5 -3.5t1.5 -2.5q5 -18 12 -25.5t22 -11.5q2 -1 3.5 -1.5t2.5 -0.5q12 -5 16.5 -10.5t4.5 -14.5q0 -11 -12 -17t-35 -6h-305q-18 0 -29 6.5t-11 18.5q0 6 1.5 10t6.5 7q3 2 7.5 4.5t11.5 5.5q1 1 2.5 1.5t2.5 0.5q10 5 13.5 10.5t3.5 14.5l-2 14l-20 71h-170l17 60
h137l-112 395l15 48v0zM335 851q2 -1 4 -1h5q17 -1 37.5 -7t53.5 -20q26 -11 49.5 -17t40.5 -6q12 0 20.5 6.5t12.5 21.5q4 11 8.5 15t11.5 4q15 0 21.5 -5.5t6.5 -19.5q0 -8 -2 -17t-6 -19q-3 -10 -8.5 -19t-11.5 -17q-16 -22 -41 -33t-55 -11h-5.5h-5.5q-16 1 -34.5 6
t-44.5 15l-41 17q-22 7 -35 10.5t-23 3.5q-12 0 -21 -6.5t-15 -20.5q-2 -4 -3.5 -7.5t-3.5 -5.5q-3 -4 -6 -5.5t-7 -1.5q-13 0 -20 6.5t-7 18.5q0 8 2.5 17.5t6.5 18.5q5 12 11.5 22.5t14.5 19.5q17 18 39.5 27t50.5 9v1z" />
    <glyph glyph-name="Otilde" unicode="&#xd5;" horiz-adv-x="792" 
d="M371 627q-31 -9 -43.5 -24.5t-12.5 -44.5v-436q0 -41 12 -58t44 -24v-53q-160 10 -253 103.5t-93 241.5q0 149 96 245t250 102v-52v0zM421 627v53q155 -7 250.5 -103t95.5 -245q0 -148 -93.5 -241.5t-252.5 -103.5v54q31 5 43.5 24t12.5 56v438q0 28 -12.5 43.5
t-43.5 23.5v1zM323 851q3 -1 6 -1h6q17 -2 37 -7.5t51 -19.5q26 -11 50 -17t40 -6q13 0 21.5 6.5t12.5 21.5q4 11 8.5 15t11.5 4q15 0 21.5 -5.5t6.5 -19.5q0 -8 -2 -17t-6 -19t-9 -19t-11 -17q-16 -22 -41 -33t-55 -11h-5.5h-5.5q-16 1 -34.5 6t-44.5 15l-41 17
q-22 7 -35 10.5t-23 3.5q-12 0 -21.5 -6.5t-14.5 -20.5q-3 -5 -5 -9t-4 -6q-2 -3 -4.5 -4t-6.5 -1q-13 0 -20.5 6.5t-7.5 18.5q0 8 2.5 17.5t6.5 18.5q5 12 12 22.5t14 19.5q17 18 40 27t50 9v1z" />
    <glyph glyph-name="OE" unicode="&#x152;" horiz-adv-x="1098" 
d="M371 627q-31 -9 -43.5 -24.5t-12.5 -44.5v-436q0 -41 12 -58t44 -24v-53q-160 10 -253 103.5t-93 241.5q0 149 96 245t250 102v-52v0zM513 667h237v-667h-242q-10 -3 -19 -4.5t-18 -3.5q-11 -2 -23 -3t-27 -2v54q31 5 43.5 24t12.5 56v438q0 28 -12.5 43.5t-43.5 23.5v54
q19 -1 32.5 -2.5t26.5 -3.5q8 -2 16 -3.5t17 -4.5v1zM801 0v53q73 8 119 38.5t72 88.5q7 16 14.5 22t18.5 6q19 0 25.5 -8t6.5 -29v-171h-256v0zM801 312v56q35 13 52 29t24 43q6 19 13.5 26t22.5 7q18 0 24 -8.5t6 -33.5v-185q0 -23 -6 -32t-24 -9q-13 0 -20.5 7t-12.5 23
q-10 34 -29.5 52t-49.5 24v1zM801 667h247v-174q0 -16 -6.5 -23t-23.5 -7q-13 0 -20 5t-12 18q-23 57 -68 87t-117 35v59v0z" />
    <glyph glyph-name="oe" unicode="&#x153;" horiz-adv-x="1098" 
d="M371 627q-31 -9 -43.5 -24.5t-12.5 -44.5v-436q0 -41 12 -58t44 -24v-53q-160 10 -253 103.5t-93 241.5q0 149 96 245t250 102v-52v0zM513 667h237v-667h-242q-10 -3 -19 -4.5t-18 -3.5q-11 -2 -23 -3t-27 -2v54q31 5 43.5 24t12.5 56v438q0 28 -12.5 43.5t-43.5 23.5v54
q19 -1 32.5 -2.5t26.5 -3.5q8 -2 16 -3.5t17 -4.5v1zM801 0v53q73 8 119 38.5t72 88.5q7 16 14.5 22t18.5 6q19 0 25.5 -8t6.5 -29v-171h-256v0zM801 312v56q35 13 52 29t24 43q6 19 13.5 26t22.5 7q18 0 24 -8.5t6 -33.5v-185q0 -23 -6 -32t-24 -9q-13 0 -20.5 7t-12.5 23
q-10 34 -29.5 52t-49.5 24v1zM801 667h247v-174q0 -16 -6.5 -23t-23.5 -7q-13 0 -20 5t-12 18q-23 57 -68 87t-117 35v59v0z" />
    <glyph glyph-name="emdash" unicode="&#x2014;" horiz-adv-x="936" 
d="M936 365v-68q0 -12 -5.5 -16.5t-19.5 -4.5l-886 1q-14 -1 -19.5 3.5t-5.5 15.5v69q0 10 5.5 14.5t19.5 4.5l886 1q14 -1 19.5 -5.5t5.5 -15.5v1z" />
    <glyph glyph-name="quotedblleft" unicode="&#x201c;" horiz-adv-x="708" 
d="M82 476q0 7 1.5 16t3.5 17q11 39 46.5 76.5t87.5 65.5q27 14 48.5 21t36.5 7q12 0 19.5 -6t7.5 -15q0 -7 -5.5 -13t-16.5 -11q-27 -11 -45.5 -21.5t-32.5 -20.5q-13 -10 -20.5 -20t-7.5 -15t4 -7t14 -4h8l9 -1q39 -5 63.5 -29t24.5 -59q0 -40 -33.5 -67t-82.5 -27
q-53 0 -91.5 33t-38.5 79v1zM373 476q0 7 1.5 16t3.5 17q11 39 46.5 76.5t87.5 65.5q27 14 48.5 21t36.5 7q12 0 20 -6t8 -15q0 -7 -6 -13t-17 -11q-27 -11 -45.5 -21.5t-31.5 -20.5t-20.5 -20t-7.5 -15t4 -7t14 -4h7l10 -1q40 -5 64.5 -29t24.5 -59q0 -40 -34 -67t-84 -27
q-53 0 -91.5 33t-38.5 79v1z" />
    <glyph glyph-name="quotedblright" unicode="&#x201d;" horiz-adv-x="708" 
d="M335 569q0 -7 -0.5 -13t-1.5 -12q-9 -42 -45 -82.5t-92 -70.5q-27 -13 -48.5 -20.5t-36.5 -7.5q-12 0 -20 6t-8 16q0 8 6 13.5t17 10.5q18 8 32 14.5t25 13.5q6 4 11 7.5t9 6.5q2 1 3.5 2.5l2.5 2.5q11 9 17 16.5t6 12.5t-4 7.5t-15 3.5l-7 2l-9 1q-39 4 -64 28.5
t-25 58.5q0 39 34 66t83 27q53 0 91.5 -32.5t38.5 -78.5v1zM626 569q0 -7 -0.5 -13t-1.5 -12q-9 -42 -45 -82.5t-92 -70.5q-26 -13 -47.5 -20.5t-37.5 -7.5q-11 0 -19 6t-8 16q0 8 5.5 13.5t17.5 10.5q18 8 32 14.5t25 13.5q6 4 11 7.5t9 6.5q2 1 3.5 2.5l2.5 2.5
q10 9 16 16.5t6 12.5t-4 7.5t-13 3.5l-9 2l-9 1q-39 4 -63.5 28.5t-24.5 58.5q0 39 33.5 66t82.5 27q53 0 91.5 -32.5t38.5 -78.5v1z" />
    <glyph glyph-name="quoteleft" unicode="&#x2018;" horiz-adv-x="717" 
d="M358 238q47 -1 78.5 -26.5t31.5 -61.5q0 -35 -31.5 -60.5t-78.5 -25.5q-46 0 -78.5 25.5t-32.5 60.5q0 36 32.5 61.5t78.5 25.5v1zM670 366v-64q0 -12 -5 -16.5t-20 -4.5l-574 1q-14 -1 -19.5 3.5t-5.5 15.5v65q0 10 5.5 14.5t19.5 4.5l574 1q15 -1 20 -5.5t5 -15.5v1z
M358 603q47 -1 78.5 -26t31.5 -61t-31.5 -61.5t-78.5 -25.5q-46 0 -78.5 25.5t-32.5 61.5t32.5 61t78.5 25v1z" />
    <glyph glyph-name="quoteright" unicode="&#x2019;" horiz-adv-x="417" 
d="M335 569q0 -7 -0.5 -13t-1.5 -12q-9 -42 -45 -82.5t-92 -70.5q-27 -13 -48.5 -20.5t-36.5 -7.5q-12 0 -20 6t-8 16q0 8 6 13.5t17 10.5q18 8 32 14.5t25 13.5q6 4 11 7.5t9 6.5q2 1 3.5 2.5l2.5 2.5q11 9 17 16.5t6 12.5t-4 7.5t-15 3.5l-7 2l-9 1q-39 4 -64 28.5
t-25 58.5q0 39 34 66t83 27q53 0 91.5 -32.5t38.5 -78.5v1z" />
    <glyph glyph-name="divide" unicode="&#xf7;" horiz-adv-x="833" 
d="M417 693l324 -360l-324 -359l-325 359l325 360v0zM417 604l-246 -271l246 -270l246 270l-246 271v0z" />
    <glyph glyph-name="ydieresis" unicode="&#xff;" horiz-adv-x="746" 
d="M502 306v-213q0 -19 5.5 -26t27.5 -12q3 -1 6 -1.5t7 -1.5q14 -2 21.5 -8.5t7.5 -17.5q0 -14 -12.5 -20t-41.5 -6h-20h-275h-20q-28 0 -40.5 6.5t-12.5 20.5q0 10 7.5 16.5t20.5 8.5q5 1 8.5 1.5t7.5 1.5q20 5 25.5 12t5.5 25v166l-173 329q-5 10 -11.5 16t-15.5 11
q-7 3 -11.5 5.5t-7.5 4.5q-5 4 -6.5 7.5t-1.5 9.5q0 13 11.5 19t35.5 6l300 1q25 -1 36.5 -7t11.5 -20q0 -7 -4.5 -13t-12.5 -11l-18 -8q-5 -3 -8 -7.5t-3 -9.5q0 -2 0.5 -5.5t1.5 -6.5q1 -1 1 -2t1 -2q0 -3 1 -4.5t1 -3.5l144 -261v0zM525 352l-35 64l63 115q3 4 5 9.5
t3 10.5t1.5 9t0.5 8q0 15 -9.5 25.5t-30.5 17.5q-7 2 -12.5 4t-9.5 4q-7 4 -10 8t-3 11q0 16 13 22t46 6l151 1q22 -1 32.5 -8t10.5 -21q0 -7 -2.5 -11.5t-10.5 -8.5q-3 -1 -6.5 -2.5t-8.5 -3.5q-27 -10 -44 -23.5t-29 -33.5l-14 -24l-101 -179v0zM256 850q38 -1 64.5 -21.5
t26.5 -50.5q0 -29 -26.5 -50t-64.5 -21q-37 0 -64 21t-27 50q0 30 27 50.5t64 20.5v1zM488 850q39 -1 66 -21.5t27 -50.5q0 -29 -27 -50t-66 -21q-37 0 -64 21t-27 50q0 30 27 50.5t64 20.5v1z" />
    <glyph glyph-name="Ydieresis" unicode="&#x178;" horiz-adv-x="746" 
d="M502 306v-213q0 -19 5.5 -26t27.5 -12q3 -1 6 -1.5t7 -1.5q14 -2 21.5 -8.5t7.5 -17.5q0 -14 -12.5 -20t-41.5 -6h-20h-275h-20q-28 0 -40.5 6.5t-12.5 20.5q0 10 7.5 16.5t20.5 8.5q5 1 8.5 1.5t7.5 1.5q20 5 25.5 12t5.5 25v166l-173 329q-5 10 -11.5 16t-15.5 11
q-7 3 -11.5 5.5t-7.5 4.5q-5 4 -6.5 7.5t-1.5 9.5q0 13 11.5 19t35.5 6l300 1q25 -1 36.5 -7t11.5 -20q0 -7 -4.5 -13t-12.5 -11l-18 -8q-5 -3 -8 -7.5t-3 -9.5q0 -2 0.5 -5.5t1.5 -6.5q1 -1 1 -2t1 -2q0 -3 1 -4.5t1 -3.5l144 -261v0zM525 352l-35 64l63 115q3 4 5 9.5
t3 10.5t1.5 9t0.5 8q0 15 -9.5 25.5t-30.5 17.5q-7 2 -12.5 4t-9.5 4q-7 4 -10 8t-3 11q0 16 13 22t46 6l151 1q22 -1 32.5 -8t10.5 -21q0 -7 -2.5 -11.5t-10.5 -8.5q-3 -1 -6.5 -2.5t-8.5 -3.5q-27 -10 -44 -23.5t-29 -33.5l-14 -24l-101 -179v0zM256 850q38 -1 64.5 -21.5
t26.5 -50.5q0 -29 -26.5 -50t-64.5 -21q-37 0 -64 21t-27 50q0 30 27 50.5t64 20.5v1zM488 850q39 -1 66 -21.5t27 -50.5q0 -29 -27 -50t-66 -21q-37 0 -64 21t-27 50q0 30 27 50.5t64 20.5v1z" />
    <glyph glyph-name="currency" unicode="&#xa4;" horiz-adv-x="833" 
d="M243 128l-105 -84q-7 -7 -11 -9.5t-7 -3.5q-2 -1 -3.5 -1h-3.5h-2h-3q-3 1 -7.5 4t-12.5 9l-37 31q-8 5 -11 8.5t-4 6.5q-1 1 -1 2v2v2t1 2q1 3 4 6.5t11 9.5l105 85q-9 9 -16 19t-13 20q-14 23 -20.5 46.5t-6.5 49.5q0 24 5.5 46t16.5 43q7 12 15.5 24t18.5 24l-56 46
l-49 39q-8 5 -11 8.5t-4 6.5q-1 1 -1 2v2v1.5v1.5q1 3 4.5 6t11.5 10l37 32q8 5 12.5 8t7.5 4h3h2h3.5t3.5 -1q3 -1 7 -3.5t11 -8.5l40 -31l65 -52q17 7 30.5 13.5t26.5 10.5q12 4 25 7t28 6q7 1 12 2t10 1q3 1 7.5 1.5t9.5 0.5v-115q-1 -1 -2 -1h-2q-2 -1 -4 -1.5t-6 -0.5
h-1.5t-0.5 -1h-1.5h-0.5q-1 0 -2.5 -0.5t-3.5 -0.5q-2 -1 -3.5 -1t-3.5 -1h-0.5h-0.5q-2 0 -4.5 -1t-5.5 -2q-4 -2 -7.5 -3t-7.5 -3q-2 -1 -3.5 -1.5t-3.5 -1.5q-5 -2 -10 -5t-12 -8q-29 -21 -44 -47t-15 -56q0 -29 15 -55t44 -48q7 -4 12 -7t10 -5q1 -1 2 -1.5t2 -0.5
q4 -2 8.5 -4t9.5 -4q3 -1 5 -1.5t4 -0.5l1 -1v0q2 0 4 -0.5t4 -1.5h8l2 -1q3 -1 5 -1.5t3 -0.5h1h1t2 -0.5t2 -0.5v-114q-1 -1 -2.5 -1t-2.5 1h-3h-3h-1.5h-0.5q-4 0 -8.5 0.5t-12.5 1.5q-3 1 -5 1t-5 1h-0.5h-0.5q-4 1 -8.5 2t-10.5 2q-7 2 -12.5 4t-10.5 3q-1 1 -2.5 1
t-2.5 1q-6 2 -12.5 4.5t-15.5 5.5q-2 1 -4.5 2t-4.5 2v0.5v0.5q-4 2 -8.5 4t-11.5 6v1zM591 541l105 84q7 5 11 7.5t7 3.5q2 1 3.5 1h3.5h2h3q3 -1 7.5 -4t12.5 -9l37 -30q8 -8 12 -11t5 -6v-1.5v-1.5v-2t-1 -2q-1 -3 -4.5 -6.5t-11.5 -9.5l-105 -83q10 -13 18.5 -25
t15.5 -24q12 -21 17.5 -43t5.5 -46q0 -26 -6.5 -49.5t-20.5 -46.5q-6 -10 -13.5 -20t-16.5 -20l105 -83q8 -7 11.5 -10.5t4.5 -6.5q1 -1 1 -2v-2v-2t-1 -2q-1 -3 -4.5 -6.5t-11.5 -9.5l-37 -29q-8 -7 -12.5 -10t-7.5 -4h-3h-2h-3.5t-3.5 1q-3 1 -7 3.5t-11 8.5l-105 85
q-17 -10 -32.5 -17t-30.5 -11q-20 -7 -40.5 -10.5t-45.5 -5.5v26v5v61v5v19q2 -1 3 -0.5t2 0.5v0h1t2.5 0.5t4.5 0.5q2 0 3 0.5t2 0.5q1 1 3 1h4q2 1 4 1.5t3 0.5q2 0 3.5 0.5t3.5 1.5q50 18 78.5 51.5t28.5 74.5q0 42 -28.5 75.5t-78.5 50.5q-2 1 -3.5 1.5t-3.5 0.5
q-1 1 -3 1.5t-4 0.5t-3.5 0.5t-2.5 0.5h-1v0q-1 0 -2 0.5t-3 0.5q-3 0 -5 0.5t-3 1.5h-2h-3v21v5v61v4v26q7 -1 11.5 -1.5t8.5 -1.5q3 0 6.5 -0.5t8.5 -1.5q2 0 4.5 -0.5t4.5 -0.5q3 -1 7 -2t10 -2q7 -2 13 -3.5t12 -3.5t11.5 -4t11.5 -4q9 -4 18.5 -8.5t21.5 -10.5v1z" />
    <glyph glyph-name="guilsinglleft" unicode="&#x2039;" horiz-adv-x="426" 
d="M273 524l52 -34q4 -4 7 -6.5t5 -4.5t3 -4.5t1 -5.5q0 -8 -9 -19t-32 -30q-25 -21 -43.5 -38t-29.5 -28q-7 -7 -9 -10.5t-2 -6.5q0 -1 1.5 -4t4.5 -6l1.5 -1.5l1.5 -1.5l31 -31l40 -39q30 -30 38 -39.5t9 -15.5v-1.5v-1.5q0 -2 -0.5 -3.5t-1.5 -3.5q-2 -3 -7.5 -7.5
t-17.5 -10.5l-46 -23q-2 -2 -4.5 -3t-5.5 -2q-4 -1 -7 -1.5t-6 -0.5q-5 0 -11.5 4t-14.5 14l-115 133q-10 10 -15 16.5t-7 12.5q0 3 -0.5 5.5t-0.5 5.5q0 8 2.5 14.5t6.5 10.5l16 20l113 135l14 16q2 1 4.5 2t5.5 1q1 1 2.5 1h2.5h2h2q4 -1 8.5 -3t10.5 -6v1z" />
    <glyph glyph-name="guilsinglright" unicode="&#x203a;" horiz-adv-x="426" 
d="M205 512l112 -135l18 -19q4 -7 5.5 -13t1.5 -13q0 -3 -0.5 -5.5t-0.5 -5.5q-2 -6 -6.5 -12.5t-13.5 -17.5l-116 -131q-6 -7 -10.5 -11t-8.5 -6q-2 -1 -4 -1.5t-4 -0.5t-5 0.5t-7 1.5q-3 1 -5.5 2t-4.5 2l-46 25q-12 5 -18 9.5t-8 7.5q-1 2 -1.5 3.5t-0.5 3.5v1.5v1.5
q1 6 10 15.5t38 38.5l40 40l31 32q5 4 7.5 7.5t2.5 4.5q0 3 -3 6.5t-10 10.5q-11 11 -29.5 28t-42.5 38q-22 19 -31.5 30t-9.5 18q0 4 1.5 7.5t5.5 6.5q2 2 4 3.5t5 3.5l51 35q5 2 9 4t7 3q2 1 4 1h4q5 0 9 -1.5t6 -3.5l14 -15v0z" />
    <glyph glyph-name="daggerdbl" unicode="&#x2021;" horiz-adv-x="717" 
d="M447 569v-633q0 -12 4 -18t17 -11q2 0 4.5 -1t5.5 -2q11 -4 17 -9.5t6 -13.5q0 -14 -12 -19.5t-42 -5.5h-192q-21 0 -32 6.5t-11 18.5q0 8 6 14.5t17 8.5l18 5q8 2 12.5 9t4.5 18v646q0 13 -3 19t-14 11q-3 1 -7 2.5t-8 2.5q-12 3 -18.5 9.5t-6.5 14.5q0 14 12.5 19.5
t44.5 5.5l167 1q35 -1 49.5 -7t14.5 -21q0 -7 -4.5 -12.5t-14.5 -9.5l-20 -7q-9 -4 -12 -12t-3 -30v1zM230 52h-67q-16 -1 -23.5 -2.5t-12.5 -8.5q-2 -2 -3.5 -4.5t-3.5 -5.5q-6 -8 -13.5 -12.5t-18.5 -4.5q-16 0 -23.5 8.5t-7.5 28.5v113q0 22 8 31t26 9q9 0 16 -3t11 -9
l10 -12q4 -7 14 -9t38 -2l50 1v-118v0zM487 170h50q27 -1 37 1t14 8l10 14q5 5 11.5 8t16.5 3q18 0 26 -9t8 -32v-111q0 -21 -7.5 -29.5t-24.5 -8.5q-10 0 -18 4.5t-13 12.5q-2 3 -3.5 5.5t-3.5 4.5q-5 7 -12.5 8.5t-24.5 1.5l-66 1v118v0zM230 353h-67q-16 -1 -23.5 -2.5
t-12.5 -8.5q-2 -2 -3.5 -4.5t-3.5 -5.5q-6 -8 -13.5 -12t-18.5 -4q-16 0 -23.5 8t-7.5 28v113q0 22 8 31.5t26 9.5q9 0 16 -3.5t11 -8.5l10 -13q4 -7 14 -8.5t38 -1.5l50 1v-119v0zM487 472h50q27 -1 37 0.5t14 7.5l10 15q5 4 11.5 7.5t16.5 3.5q18 0 26 -9.5t8 -32.5v-111
q0 -21 -7.5 -29t-24.5 -8q-10 0 -18 4t-13 12q-2 3 -3.5 5.5t-3.5 4.5q-5 7 -12.5 8.5t-24.5 1.5l-66 1v119v0z" />
    <glyph glyph-name="quotesinglbase" unicode="&#x201a;" horiz-adv-x="417" 
d="M335 64q0 -7 -0.5 -13t-1.5 -12q-9 -41 -45 -81.5t-92 -70.5q-27 -14 -48.5 -21t-36.5 -7q-12 0 -20 6t-8 16q0 7 6 13t17 11q18 7 32 14t25 14q6 4 11 7t9 7q2 1 3.5 2.5l2.5 2.5q11 9 17 16.5t6 12.5t-4 7.5t-15 3.5l-7 1l-9 1q-39 4 -64 28.5t-25 58.5q0 39 34 66
t83 27q53 0 91.5 -32.5t38.5 -78.5v1z" />
    <glyph glyph-name="quotedblbase" unicode="&#x201e;" horiz-adv-x="708" 
d="M335 64q0 -7 -0.5 -13t-1.5 -12q-9 -41 -45 -81.5t-92 -70.5q-27 -14 -48.5 -21t-36.5 -7q-12 0 -20 6t-8 16q0 7 6 13t17 11q18 7 32 14t25 14q6 4 11 7t9 7q2 1 3.5 2.5l2.5 2.5q11 9 17 16.5t6 12.5t-4 7.5t-15 3.5l-7 1l-9 1q-39 4 -64 28.5t-25 58.5q0 39 34 66
t83 27q53 0 91.5 -32.5t38.5 -78.5v1zM626 64q0 -7 -0.5 -13t-1.5 -12q-9 -41 -45 -81.5t-92 -70.5q-26 -14 -47.5 -21t-37.5 -7q-11 0 -19 6t-8 16q0 7 5.5 13t17.5 11q18 7 32 14t25 14q6 4 11 7t9 7q2 1 3.5 2.5l2.5 2.5q10 9 16 16.5t6 12.5t-4 7.5t-13 3.5l-9 1l-9 1
q-39 4 -63.5 28.5t-24.5 58.5q0 39 33.5 66t82.5 27q53 0 91.5 -32.5t38.5 -78.5v1z" />
    <glyph glyph-name="perthousand" unicode="&#x2030;" horiz-adv-x="1395" 
d="M665 283v-36q-22 -8 -32 -19.5t-10 -32.5v-107q0 -29 9 -42t33 -18v-35h-17q-84 0 -137 39t-53 103q0 65 54.5 106t139.5 41l13 1v0zM696 283h12q86 -1 140 -42.5t54 -106.5q0 -63 -52.5 -102t-137.5 -39h-16v36q23 4 32 17t9 41v109q0 20 -9 31.5t-32 18.5v37v0z
M1150 283v-36q-22 -8 -32 -19.5t-10 -32.5v-107q0 -29 9 -42t33 -18v-35h-17q-84 0 -137 39t-53 103q0 65 54.5 106t139.5 41l13 1v0zM1181 283h12q86 -1 140 -42.5t54 -106.5q0 -63 -52.5 -102t-137.5 -39h-16v36q23 4 32 17t9 41v109q0 20 -9 31.5t-32 18.5v37v0zM622 666
h71l-405 -666h-71l405 666v0zM215 673v-37q-22 -8 -32 -19.5t-10 -31.5v-107q0 -29 9 -42t33 -18v-35h-17q-84 -1 -137 38.5t-53 102.5q0 65 54.5 106.5t139.5 41.5l13 1v0zM246 673h12q86 -1 140 -42.5t54 -106.5q0 -63 -52.5 -102.5t-137.5 -39.5l-16 1v36q23 4 32 17
t9 41v109q0 19 -9 30.5t-32 18.5v38v0z" />
    <glyph glyph-name="Acircumflex" unicode="&#xc2;" horiz-adv-x="773" 
d="M252 542l31 -101l-108 -315q-1 -4 -2 -7.5t-1 -6.5q-1 -3 -1 -6.5v-6.5q0 -14 9 -25.5t27 -17.5l20 -7q10 -5 15.5 -11.5t5.5 -14.5q0 -11 -11.5 -17t-33.5 -6h-155q-21 0 -34.5 7t-13.5 19q0 8 6 14t21 11q38 14 56.5 32t31.5 56l137 403v0zM295 667h246l169 -574
q0 -2 0.5 -3.5t1.5 -2.5q5 -18 12 -25.5t22 -11.5q2 -1 3.5 -1.5t2.5 -0.5q12 -5 16.5 -10.5t4.5 -14.5q0 -11 -12 -17t-35 -6h-305q-18 0 -29 6.5t-11 18.5q0 6 1.5 10t6.5 7q3 2 7.5 4.5t11.5 5.5q1 1 2.5 1.5t2.5 0.5q10 5 13.5 10.5t3.5 14.5l-2 14l-20 71h-170l17 60
h137l-112 395l15 48v0zM405 760l-30 -38l-7 -9q0 -1 -0.5 -1.5l-0.5 -0.5q-4 -3 -10 -4t-20 -1l-86 1q-15 -1 -22 1.5t-7 8.5q0 1 0.5 2t0.5 3q1 2 3.5 4.5l5.5 5.5l119 100q9 7 16 11t13 6q3 0 5.5 0.5t5.5 0.5l31 1q5 -1 10.5 -2.5t11.5 -3.5t11.5 -5.5t10.5 -8.5l121 -98
l9 -8l4 -8q0 -7 -4.5 -9t-17.5 -2l-100 1q-19 -1 -29 2.5t-16 11.5l-28 39v0z" />
    <glyph glyph-name="Ecircumflex" unicode="&#xca;" horiz-adv-x="733" 
d="M385 667v-667h-273h-16q-23 0 -34.5 6.5t-11.5 19.5q0 9 6 15.5t19 9.5q5 1 9.5 2.5l7.5 2.5q13 5 16.5 11t3.5 21v490q0 14 -3.5 20t-16.5 11l-7.5 2.5t-9.5 2.5q-13 3 -19 9.5t-6 15.5q0 14 12 20.5t34 6.5l16 1h273v0zM436 0v53q73 7 118.5 38t71.5 89q2 3 3.5 6
t3.5 6q5 8 11 11.5t16 3.5q19 0 25.5 -7.5t6.5 -28.5v-171h-256v0zM436 311v57q35 13 52 28.5t24 42.5q0 1 0.5 2.5t1.5 2.5q5 16 12 22t22 6q18 0 24 -8.5t6 -32.5v-185q0 -24 -6.5 -32.5t-23.5 -8.5q-13 0 -21 6.5t-14 22.5q-10 34 -28.5 52t-48.5 24v1zM436 667h247v-174
q0 -16 -6.5 -23t-23.5 -7q-13 0 -20 4.5t-12 17.5q-23 58 -68.5 87.5t-116.5 35.5v59v0zM360 760l-30 -38l-7 -9q0 -1 -0.5 -1.5l-0.5 -0.5q-4 -3 -10 -4t-20 -1l-86 1q-15 -1 -22 1.5t-7 8.5q0 1 0.5 2t0.5 3q1 2 3.5 4.5l5.5 5.5l119 100q9 7 16 11t13 6q3 0 5.5 0.5
t5.5 0.5l31 1q5 -1 10.5 -2.5t11.5 -3.5t11.5 -5.5t10.5 -8.5l121 -98l9 -8l4 -8q0 -7 -4.5 -9t-17.5 -2l-100 1q-19 -1 -29 2.5t-16 11.5l-28 39v0z" />
    <glyph glyph-name="Aacute" unicode="&#xc1;" horiz-adv-x="773" 
d="M252 542l31 -101l-108 -315q-1 -4 -2 -7.5t-1 -6.5q-1 -3 -1 -6.5v-6.5q0 -14 9 -25.5t27 -17.5l20 -7q10 -5 15.5 -11.5t5.5 -14.5q0 -11 -11.5 -17t-33.5 -6h-155q-21 0 -34.5 7t-13.5 19q0 8 6 14t21 11q38 14 56.5 32t31.5 56l137 403v0zM295 667h246l169 -574
q0 -2 0.5 -3.5t1.5 -2.5q5 -18 12 -25.5t22 -11.5q2 -1 3.5 -1.5t2.5 -0.5q12 -5 16.5 -10.5t4.5 -14.5q0 -11 -12 -17t-35 -6h-305q-18 0 -29 6.5t-11 18.5q0 6 1.5 10t6.5 7q3 2 7.5 4.5t11.5 5.5q1 1 2.5 1.5t2.5 0.5q10 5 13.5 10.5t3.5 14.5l-2 14l-20 71h-170l17 60
h137l-112 395l15 48v0zM567 825l-167 -104l-12 -7q-3 -3 -5.5 -4.5t-4.5 -1.5q-2 -1 -4.5 -1.5t-5.5 -0.5l-43 1q-7 -1 -12.5 1t-5.5 6l3 7l91 113q4 3 6.5 6t5.5 5q5 4 11 5t18 1l121 1q9 -1 14.5 -4t5.5 -8v-2t-1 -2q-1 -2 -4.5 -5t-10.5 -7v1z" />
    <glyph glyph-name="Edieresis" unicode="&#xcb;" horiz-adv-x="733" 
d="M385 667v-667h-273h-16q-23 0 -34.5 6.5t-11.5 19.5q0 9 6 15.5t19 9.5q5 1 9.5 2.5l7.5 2.5q13 5 16.5 11t3.5 21v490q0 14 -3.5 20t-16.5 11l-7.5 2.5t-9.5 2.5q-13 3 -19 9.5t-6 15.5q0 14 12 20.5t34 6.5l16 1h273v0zM436 0v53q73 7 118.5 38t71.5 89q2 3 3.5 6
t3.5 6q5 8 11 11.5t16 3.5q19 0 25.5 -7.5t6.5 -28.5v-171h-256v0zM436 311v57q35 13 52 28.5t24 42.5q0 1 0.5 2.5t1.5 2.5q5 16 12 22t22 6q18 0 24 -8.5t6 -32.5v-185q0 -24 -6.5 -32.5t-23.5 -8.5q-13 0 -21 6.5t-14 22.5q-10 34 -28.5 52t-48.5 24v1zM436 667h247v-174
q0 -16 -6.5 -23t-23.5 -7q-13 0 -20 4.5t-12 17.5q-23 58 -68.5 87.5t-116.5 35.5v59v0zM250 850q38 -1 64.5 -21.5t26.5 -50.5q0 -29 -26.5 -50t-64.5 -21q-37 0 -64.5 21t-27.5 50q0 30 27.5 50.5t64.5 20.5v1zM482 850q38 -1 65.5 -21.5t27.5 -50.5q0 -29 -27.5 -50
t-65.5 -21q-37 0 -64 21t-27 50q0 30 27 50.5t64 20.5v1z" />
    <glyph glyph-name="Egrave" unicode="&#xc8;" horiz-adv-x="733" 
d="M385 667v-667h-273h-16q-23 0 -34.5 6.5t-11.5 19.5q0 9 6 15.5t19 9.5q5 1 9.5 2.5l7.5 2.5q13 5 16.5 11t3.5 21v490q0 14 -3.5 20t-16.5 11l-7.5 2.5t-9.5 2.5q-13 3 -19 9.5t-6 15.5q0 14 12 20.5t34 6.5l16 1h273v0zM436 0v53q73 7 118.5 38t71.5 89q2 3 3.5 6
t3.5 6q5 8 11 11.5t16 3.5q19 0 25.5 -7.5t6.5 -28.5v-171h-256v0zM436 311v57q35 13 52 28.5t24 42.5q0 1 0.5 2.5t1.5 2.5q5 16 12 22t22 6q18 0 24 -8.5t6 -32.5v-185q0 -24 -6.5 -32.5t-23.5 -8.5q-13 0 -21 6.5t-14 22.5q-10 34 -28.5 52t-48.5 24v1zM436 667h247v-174
q0 -16 -6.5 -23t-23.5 -7q-13 0 -20 4.5t-12 17.5q-23 58 -68.5 87.5t-116.5 35.5v59v0zM210 852h122q12 -1 18.5 -2t12.5 -6l4.5 -4.5t5.5 -6.5l92 -112l2 -6q0 -5 -4.5 -7t-12.5 -2l-45 1q-2 -1 -3.5 -1t-3.5 1q-3 1 -5.5 2.5t-6.5 3.5l-11 8l-169 104q-7 4 -10.5 7
t-4.5 5v1.5v0.5q0 5 6 8.5t13 3.5v1z" />
    <glyph glyph-name="Iacute" unicode="&#xcd;" horiz-adv-x="497" 
d="M385 0h-273h-16q-23 0 -34.5 6.5t-11.5 19.5q0 9 6 15.5t19 9.5q5 1 9.5 2.5l7.5 2.5q13 5 16.5 11t3.5 21v490q0 14 -3.5 20t-16.5 11l-7.5 2.5t-9.5 2.5q-13 3 -19 9.5t-6 15.5q0 14 12 20.5t34 6.5l16 1h273h16q23 -2 34.5 -8t11.5 -20q0 -9 -6.5 -15.5t-18.5 -9.5
q-5 -1 -9.5 -2.5t-8.5 -2.5q-13 -5 -16 -11t-3 -21v-488q0 -16 3 -22t16 -11q4 -1 8.5 -2.5t9.5 -2.5q12 -3 18.5 -9.5t6.5 -15.5q0 -13 -11.5 -19.5t-34.5 -6.5h-16v0zM428 825l-167 -104l-11 -7q-4 -3 -7 -4.5t-6 -2.5q-2 -1 -3.5 -1h-3.5l-44 1q-7 -1 -12.5 1t-5.5 6l3 7
l91 113q4 3 6.5 6t5.5 5q5 4 11.5 5t17.5 1l122 1q8 -1 14 -4t6 -8q0 -1 -0.5 -2t-0.5 -2q-2 -2 -5.5 -5t-10.5 -7v1z" />
    <glyph glyph-name="Icircumflex" unicode="&#xce;" horiz-adv-x="497" 
d="M385 0h-273h-16q-23 0 -34.5 6.5t-11.5 19.5q0 9 6 15.5t19 9.5q5 1 9.5 2.5l7.5 2.5q13 5 16.5 11t3.5 21v490q0 14 -3.5 20t-16.5 11l-7.5 2.5t-9.5 2.5q-13 3 -19 9.5t-6 15.5q0 14 12 20.5t34 6.5l16 1h273h16q23 -2 34.5 -8t11.5 -20q0 -9 -6.5 -15.5t-18.5 -9.5
q-5 -1 -9.5 -2.5t-8.5 -2.5q-13 -5 -16 -11t-3 -21v-488q0 -16 3 -22t16 -11q4 -1 8.5 -2.5t9.5 -2.5q12 -3 18.5 -9.5t6.5 -15.5q0 -13 -11.5 -19.5t-34.5 -6.5h-16v0zM242 760l-30 -38l-6 -9q0 -1 -0.5 -1.5l-0.5 -0.5q-4 -3 -10 -4t-20 -1l-87 1q-15 -1 -21.5 1.5
t-6.5 8.5v2t1 3t3 4.5t6 5.5l118 100q11 8 19 12.5t16 5.5h2.5h2.5l32 1q5 -1 10.5 -2.5t11.5 -3.5q5 -2 10.5 -5.5t10.5 -8.5l122 -98l8 -8l4 -8q0 -7 -4.5 -9t-16.5 -2l-100 1q-19 -1 -29.5 2.5t-15.5 11.5l-29 39v0z" />
    <glyph glyph-name="Idieresis" unicode="&#xcf;" horiz-adv-x="497" 
d="M385 0h-273h-16q-23 0 -34.5 6.5t-11.5 19.5q0 9 6 15.5t19 9.5q5 1 9.5 2.5l7.5 2.5q13 5 16.5 11t3.5 21v490q0 14 -3.5 20t-16.5 11l-7.5 2.5t-9.5 2.5q-13 3 -19 9.5t-6 15.5q0 14 12 20.5t34 6.5l16 1h273h16q23 -2 34.5 -8t11.5 -20q0 -9 -6.5 -15.5t-18.5 -9.5
q-5 -1 -9.5 -2.5t-8.5 -2.5q-13 -5 -16 -11t-3 -21v-488q0 -16 3 -22t16 -11q4 -1 8.5 -2.5t9.5 -2.5q12 -3 18.5 -9.5t6.5 -15.5q0 -13 -11.5 -19.5t-34.5 -6.5h-16v0zM132 850q38 -1 64.5 -21.5t26.5 -50.5q0 -29 -26.5 -50t-64.5 -21q-37 0 -64 21t-27 50q0 30 27 50.5
t64 20.5v1zM365 850q38 -1 65 -21.5t27 -50.5q0 -29 -27 -50t-65 -21q-37 0 -64.5 21t-27.5 50q0 30 27.5 50.5t64.5 20.5v1z" />
    <glyph glyph-name="Igrave" unicode="&#xcc;" horiz-adv-x="497" 
d="M385 0h-273h-16q-23 0 -34.5 6.5t-11.5 19.5q0 9 6 15.5t19 9.5q5 1 9.5 2.5l7.5 2.5q13 5 16.5 11t3.5 21v490q0 14 -3.5 20t-16.5 11l-7.5 2.5t-9.5 2.5q-13 3 -19 9.5t-6 15.5q0 14 12 20.5t34 6.5l16 1h273h16q23 -2 34.5 -8t11.5 -20q0 -9 -6.5 -15.5t-18.5 -9.5
q-5 -1 -9.5 -2.5t-8.5 -2.5q-13 -5 -16 -11t-3 -21v-488q0 -16 3 -22t16 -11q4 -1 8.5 -2.5t9.5 -2.5q12 -3 18.5 -9.5t6.5 -15.5q0 -13 -11.5 -19.5t-34.5 -6.5h-16v0zM71 852h122q12 -1 18.5 -2t11.5 -5q3 -2 6 -5t6 -7l91 -112l2 -6q0 -5 -4.5 -7t-12.5 -2l-45 1
q-1 -1 -2.5 -1t-2.5 1q-3 0 -6 1.5t-8 4.5l-11 8l-169 104q-7 4 -10.5 7t-4.5 5v1.5v0.5q0 5 6 8.5t13 3.5v1z" />
    <glyph glyph-name="Oacute" unicode="&#xd3;" horiz-adv-x="792" 
d="M371 627q-31 -9 -43.5 -24.5t-12.5 -44.5v-436q0 -41 12 -58t44 -24v-53q-160 10 -253 103.5t-93 241.5q0 149 96 245t250 102v-52v0zM421 627v53q155 -7 250.5 -103t95.5 -245q0 -148 -93.5 -241.5t-252.5 -103.5v54q31 5 43.5 24t12.5 56v438q0 28 -12.5 43.5
t-43.5 23.5v1zM576 825l-168 -104l-11 -7q-4 -3 -6.5 -4.5t-4.5 -2.5q-2 0 -4 -0.5t-5 -0.5l-44 1q-7 -1 -12 1t-5 6l2 7l92 113l5.5 5.5l4.5 4.5q6 5 12.5 6t18.5 1l121 1q8 -1 14 -4t6 -8q0 -1 -0.5 -2t-0.5 -2q-1 -2 -5 -5t-10 -7v1z" />
    <glyph glyph-name="Ocircumflex" unicode="&#xd4;" horiz-adv-x="792" 
d="M371 627q-31 -9 -43.5 -24.5t-12.5 -44.5v-436q0 -41 12 -58t44 -24v-53q-160 10 -253 103.5t-93 241.5q0 149 96 245t250 102v-52v0zM421 627v53q155 -7 250.5 -103t95.5 -245q0 -148 -93.5 -241.5t-252.5 -103.5v54q31 5 43.5 24t12.5 56v438q0 28 -12.5 43.5
t-43.5 23.5v1zM390 760l-30 -38l-7 -9q0 -1 -0.5 -1.5l-0.5 -0.5q-4 -3 -10 -4t-20 -1l-86 1q-15 -1 -22 1.5t-7 8.5q0 1 0.5 2t0.5 3q1 2 3.5 4.5l5.5 5.5l119 100q9 7 16 11t13 6q3 0 5.5 0.5t5.5 0.5l31 1q5 -1 10.5 -2.5t11.5 -3.5t11.5 -5.5t10.5 -8.5l121 -98l9 -8
l4 -8q0 -7 -4.5 -9t-17.5 -2l-100 1q-19 -1 -29 2.5t-16 11.5l-28 39v0z" />
    <glyph glyph-name="Ograve" unicode="&#xd2;" horiz-adv-x="792" 
d="M371 627q-31 -9 -43.5 -24.5t-12.5 -44.5v-436q0 -41 12 -58t44 -24v-53q-160 10 -253 103.5t-93 241.5q0 149 96 245t250 102v-52v0zM421 627v53q155 -7 250.5 -103t95.5 -245q0 -148 -93.5 -241.5t-252.5 -103.5v54q31 5 43.5 24t12.5 56v438q0 28 -12.5 43.5
t-43.5 23.5v1zM218 852h123q12 -1 18 -2t11 -5q3 -2 5.5 -5t6.5 -7l91 -112l3 -6q0 -5 -5 -7t-13 -2l-45 1q-1 -1 -2.5 -1t-3.5 1q-2 0 -5 2t-7 4l-12 8l-168 104q-7 4 -10.5 7t-4.5 5v1.5v0.5q0 5 5.5 8.5t12.5 3.5v1z" />
    <glyph glyph-name="Uacute" unicode="&#xda;" horiz-adv-x="846" 
d="M448 51v-64h-18q-53 0 -91.5 4.5t-73.5 13.5q-8 3 -16 5.5t-16 5.5q-73 28 -102 67.5t-29 110.5v384q0 14 -3.5 20t-16.5 11l-7.5 2.5t-9.5 2.5q-13 3 -19 9.5t-6 15.5q0 13 11.5 20t33.5 7l17 1h273h16q23 -1 34.5 -7.5t11.5 -20.5q0 -9 -6.5 -15.5t-18.5 -9.5
q-5 -1 -9.5 -2.5t-8.5 -2.5q-13 -5 -16 -11t-3 -21v-409q0 -38 2 -54t8 -28l0.5 -0.5l0.5 -0.5q8 -16 21 -23t41 -12v1zM497 -13v64q70 7 108 46.5t38 103.5v319q0 33 -15.5 56t-46.5 36q-7 3 -12.5 6t-8.5 5q-5 4 -7 8.5t-2 10.5q0 13 11 18.5t36 5.5l153 1
q17 -1 23.5 -1.5t11.5 -2.5q1 0 1.5 -0.5l0.5 -0.5q8 -4 12.5 -9t4.5 -11q0 -5 -1 -8.5t-4 -6.5q-4 -3 -11.5 -7t-20.5 -10q-27 -12 -42 -36t-15 -55v-317q0 -89 -56.5 -145.5t-157.5 -69.5v0zM603 825l-167 -104l-11 -7q-4 -3 -7 -4.5t-6 -2.5q-2 -1 -3.5 -1h-3.5l-44 1
q-7 -1 -12.5 1t-5.5 6l3 7l91 113q4 3 6.5 6t5.5 5q5 4 11.5 5t17.5 1l122 1q8 -1 14 -4t6 -8q0 -1 -0.5 -2t-0.5 -2q-2 -2 -5.5 -5t-10.5 -7v1z" />
    <glyph glyph-name="Ucircumflex" unicode="&#xdb;" horiz-adv-x="846" 
d="M448 51v-64h-18q-53 0 -91.5 4.5t-73.5 13.5q-8 3 -16 5.5t-16 5.5q-73 28 -102 67.5t-29 110.5v384q0 14 -3.5 20t-16.5 11l-7.5 2.5t-9.5 2.5q-13 3 -19 9.5t-6 15.5q0 13 11.5 20t33.5 7l17 1h273h16q23 -1 34.5 -7.5t11.5 -20.5q0 -9 -6.5 -15.5t-18.5 -9.5
q-5 -1 -9.5 -2.5t-8.5 -2.5q-13 -5 -16 -11t-3 -21v-409q0 -38 2 -54t8 -28l0.5 -0.5l0.5 -0.5q8 -16 21 -23t41 -12v1zM497 -13v64q70 7 108 46.5t38 103.5v319q0 33 -15.5 56t-46.5 36q-7 3 -12.5 6t-8.5 5q-5 4 -7 8.5t-2 10.5q0 13 11 18.5t36 5.5l153 1
q17 -1 23.5 -1.5t11.5 -2.5q1 0 1.5 -0.5l0.5 -0.5q8 -4 12.5 -9t4.5 -11q0 -5 -1 -8.5t-4 -6.5q-4 -3 -11.5 -7t-20.5 -10q-27 -12 -42 -36t-15 -55v-317q0 -89 -56.5 -145.5t-157.5 -69.5v0zM437 760l-30 -38l-6 -9q0 -1 -0.5 -1.5l-0.5 -0.5q-4 -3 -10 -4t-20 -1l-87 1
q-15 -1 -21.5 1.5t-6.5 8.5v2t1 3t3 4.5t6 5.5l118 100q11 8 19 12.5t16 5.5h2.5h2.5l32 1q5 -1 10.5 -2.5t11.5 -3.5q5 -2 10.5 -5.5t10.5 -8.5l122 -98l8 -8l4 -8q0 -7 -4.5 -9t-16.5 -2l-100 1q-19 -1 -29.5 2.5t-15.5 11.5l-29 39v0z" />
    <glyph glyph-name="Ugrave" unicode="&#xd9;" horiz-adv-x="846" 
d="M448 51v-64h-18q-53 0 -91.5 4.5t-73.5 13.5q-8 3 -16 5.5t-16 5.5q-73 28 -102 67.5t-29 110.5v384q0 14 -3.5 20t-16.5 11l-7.5 2.5t-9.5 2.5q-13 3 -19 9.5t-6 15.5q0 13 11.5 20t33.5 7l17 1h273h16q23 -1 34.5 -7.5t11.5 -20.5q0 -9 -6.5 -15.5t-18.5 -9.5
q-5 -1 -9.5 -2.5t-8.5 -2.5q-13 -5 -16 -11t-3 -21v-409q0 -38 2 -54t8 -28l0.5 -0.5l0.5 -0.5q8 -16 21 -23t41 -12v1zM497 -13v64q70 7 108 46.5t38 103.5v319q0 33 -15.5 56t-46.5 36q-7 3 -12.5 6t-8.5 5q-5 4 -7 8.5t-2 10.5q0 13 11 18.5t36 5.5l153 1
q17 -1 23.5 -1.5t11.5 -2.5q1 0 1.5 -0.5l0.5 -0.5q8 -4 12.5 -9t4.5 -11q0 -5 -1 -8.5t-4 -6.5q-4 -3 -11.5 -7t-20.5 -10q-27 -12 -42 -36t-15 -55v-317q0 -89 -56.5 -145.5t-157.5 -69.5v0zM271 852h122q12 -1 18.5 -2t11.5 -5q3 -2 6 -5t6 -7l91 -112l2 -6q0 -5 -4.5 -7
t-12.5 -2l-45 1q-1 -1 -2.5 -1t-2.5 1q-3 0 -6 1.5t-8 4.5l-11 8l-169 104q-7 4 -10.5 7t-4.5 5v1.5v0.5q0 5 6 8.5t13 3.5v1z" />
    <glyph glyph-name="circumflex" unicode="&#x2dc;" horiz-adv-x="625" 
d="M306 760l-30 -38l-6 -9l-1.5 -1.5t-0.5 -1.5q-5 -2 -11 -3t-19 -1l-86 1q-15 -1 -22 1.5t-7 8.5q0 1 0.5 2t0.5 3q1 2 3.5 4.5l5.5 5.5l119 100q12 10 21.5 14t18.5 4l31 1q5 -1 10.5 -2.5t11.5 -3.5t11.5 -5.5t10.5 -8.5l121 -98l9 -8l4 -8q0 -7 -4.5 -9t-16.5 -2
l-100 1q-19 -1 -29.5 2.5t-15.5 11.5l-29 39v0z" />
    <glyph glyph-name="tilde" unicode="&#x2c6;" horiz-adv-x="625" 
d="M240 851q2 -1 4 -1h5q17 -1 37.5 -7t53.5 -20q26 -11 49.5 -17t40.5 -6q12 0 20.5 6.5t12.5 21.5q4 11 8.5 15t11.5 4q15 0 21.5 -5.5t6.5 -19.5q0 -8 -2 -17t-6 -19q-3 -10 -8.5 -19t-11.5 -17q-16 -22 -41 -33t-55 -11h-5.5h-5.5q-16 1 -34.5 6t-44.5 15l-41 17
q-22 7 -35 10.5t-23 3.5q-12 0 -21 -6.5t-15 -20.5q-2 -4 -3.5 -7.5t-3.5 -5.5q-3 -4 -6 -5.5t-7 -1.5q-13 0 -20 6.5t-7 18.5q0 8 2.5 17.5t6.5 18.5q5 12 11.5 22.5t14.5 19.5q17 18 39.5 27t50.5 9v1z" />
    <glyph glyph-name="cedilla" unicode="&#xb8;" horiz-adv-x="625" 
d="M315 -43q50 0 88.5 -36.5t38.5 -83.5q0 -45 -45 -77t-109 -32q-26 0 -40.5 7t-14.5 20q0 8 7 14t20 5h18q34 -1 55.5 11.5t21.5 32.5q0 16 -12.5 24.5t-42.5 11.5q-28 3 -41.5 16t-13.5 36q0 24 18.5 37.5t51.5 13.5v0z" />
    <glyph glyph-name="Scaron" unicode="&#x160;" 
 />
    <glyph glyph-name="scaron" unicode="&#x161;" 
 />
    <glyph glyph-name="Zcaron" unicode="&#x17d;" 
 />
    <glyph glyph-name="zcaron" unicode="&#x17e;" 
 />
    <glyph glyph-name="brokenbar" unicode="&#xa6;" 
 />
    <glyph glyph-name="Eth" unicode="&#xd0;" 
 />
    <glyph glyph-name="eth" unicode="&#xf0;" 
 />
    <glyph glyph-name="Yacute" unicode="&#xdd;" horiz-adv-x="746" 
d="M502 306v-213q0 -19 5.5 -26t27.5 -12q3 -1 6 -1.5t7 -1.5q14 -2 21.5 -8.5t7.5 -17.5q0 -14 -12.5 -20t-41.5 -6h-20h-275h-20q-28 0 -40.5 6.5t-12.5 20.5q0 10 7.5 16.5t20.5 8.5q5 1 8.5 1.5t7.5 1.5q20 5 25.5 12t5.5 25v166l-173 329q-5 10 -11.5 16t-15.5 11
q-7 3 -11.5 5.5t-7.5 4.5q-5 4 -6.5 7.5t-1.5 9.5q0 13 11.5 19t35.5 6l300 1q25 -1 36.5 -7t11.5 -20q0 -7 -4.5 -13t-12.5 -11l-18 -8q-5 -3 -8 -7.5t-3 -9.5q0 -2 0.5 -5.5t1.5 -6.5q1 -1 1 -2t1 -2q0 -3 1 -4.5t1 -3.5l144 -261v0zM525 352l-35 64l63 115q3 4 5 9.5
t3 10.5t1.5 9t0.5 8q0 15 -9.5 25.5t-30.5 17.5q-7 2 -12.5 4t-9.5 4q-7 4 -10 8t-3 11q0 16 13 22t46 6l151 1q22 -1 32.5 -8t10.5 -21q0 -7 -2.5 -11.5t-10.5 -8.5q-3 -1 -6.5 -2.5t-8.5 -3.5q-27 -10 -44 -23.5t-29 -33.5l-14 -24l-101 -179v0zM553 825l-167 -104l-11 -7
q-4 -3 -7 -4.5t-6 -2.5q-2 -1 -3.5 -1h-3.5l-44 1q-7 -1 -12.5 1t-5.5 6l3 7l91 113q4 3 6.5 6t5.5 5q5 4 11.5 5t17.5 1l122 1q8 -1 14 -4t6 -8q0 -1 -0.5 -2t-0.5 -2q-2 -2 -5.5 -5t-10.5 -7v1z" />
    <glyph glyph-name="yacute" unicode="&#xfd;" horiz-adv-x="746" 
d="M502 306v-213q0 -19 5.5 -26t27.5 -12q3 -1 6 -1.5t7 -1.5q14 -2 21.5 -8.5t7.5 -17.5q0 -14 -12.5 -20t-41.5 -6h-20h-275h-20q-28 0 -40.5 6.5t-12.5 20.5q0 10 7.5 16.5t20.5 8.5q5 1 8.5 1.5t7.5 1.5q20 5 25.5 12t5.5 25v166l-173 329q-5 10 -11.5 16t-15.5 11
q-7 3 -11.5 5.5t-7.5 4.5q-5 4 -6.5 7.5t-1.5 9.5q0 13 11.5 19t35.5 6l300 1q25 -1 36.5 -7t11.5 -20q0 -7 -4.5 -13t-12.5 -11l-18 -8q-5 -3 -8 -7.5t-3 -9.5q0 -2 0.5 -5.5t1.5 -6.5q1 -1 1 -2t1 -2q0 -3 1 -4.5t1 -3.5l144 -261v0zM525 352l-35 64l63 115q3 4 5 9.5
t3 10.5t1.5 9t0.5 8q0 15 -9.5 25.5t-30.5 17.5q-7 2 -12.5 4t-9.5 4q-7 4 -10 8t-3 11q0 16 13 22t46 6l151 1q22 -1 32.5 -8t10.5 -21q0 -7 -2.5 -11.5t-10.5 -8.5q-3 -1 -6.5 -2.5t-8.5 -3.5q-27 -10 -44 -23.5t-29 -33.5l-14 -24l-101 -179v0zM553 825l-167 -104l-11 -7
q-4 -3 -7 -4.5t-6 -2.5q-2 -1 -3.5 -1h-3.5l-44 1q-7 -1 -12.5 1t-5.5 6l3 7l91 113q4 3 6.5 6t5.5 5q5 4 11.5 5t17.5 1l122 1q8 -1 14 -4t6 -8q0 -1 -0.5 -2t-0.5 -2q-2 -2 -5.5 -5t-10.5 -7v1z" />
    <glyph glyph-name="Thorn" unicode="&#xde;" 
 />
    <glyph glyph-name="thorn" unicode="&#xfe;" 
 />
    <glyph glyph-name="multiply" unicode="&#xd7;" 
 />
    <glyph glyph-name="onesuperior" unicode="&#xb9;" 
 />
    <glyph glyph-name="twosuperior" unicode="&#xb2;" 
 />
    <glyph glyph-name="threesuperior" unicode="&#xb3;" 
 />
    <glyph glyph-name="onehalf" unicode="&#xbd;" 
 />
    <glyph glyph-name="onequarter" unicode="&#xbc;" 
 />
    <glyph glyph-name="threequarters" unicode="&#xbe;" 
 />
    <glyph glyph-name="endash" unicode="&#x2013;" horiz-adv-x="717" 
d="M667 365v-68q0 -12 -5 -16.5t-20 -4.5l-567 1q-14 -1 -19.5 3.5t-5.5 15.5v69q0 10 5.5 14.5t19.5 4.5l567 1q15 -1 20 -5.5t5 -15.5v1z" />
    <glyph glyph-name="sfthyphen" unicode="&#xad;" 
 />
    <glyph glyph-name="filledbox" unicode="&#x25a0;" 
 />
    <glyph glyph-name="bullet" unicode="&#x2022;" horiz-adv-x="750" 
d="M247 286q0 39 35.5 67t84.5 28q51 0 87 -28t36 -68t-36 -68t-87 -28q-49 0 -84.5 28t-35.5 68v1z" />
    <glyph glyph-name="overstore" unicode="&#xaf;" 
 />
    <glyph glyph-name="degree" unicode="&#xb0;" 
 />
    <glyph glyph-name="middot" unicode="&#xb7;" 
 />
    <glyph glyph-name="invcircle" unicode="&#x25d9;" 
 />
    <glyph glyph-name="Rcaron" unicode="&#x158;" 
 />
    <glyph glyph-name="Ncaron" unicode="&#x147;" 
 />
    <glyph glyph-name="2510" unicode="&#x2510;" 
 />
  </font>
</defs>
</svg>
